<svg xmlns="http://www.w3.org/2000/svg" width="124" height="124" viewBox="0 0 124 124"><g transform="translate(3610.728 7031.641)"><circle cx="62" cy="62" r="62" fill="#fff" transform="translate(-3610.728 -7031.641)"/><g transform="translate(-3586.848 -7008)"><path fill="#66e0f7" fill-rule="evenodd" d="M45.341 65.839a25.678 25.678 0 1 0-36.316 0 26 26 0 0 0 2.639 2.306A15.58 15.58 0 0 1 20.817 54a10.152 10.152 0 1 1 12.733 0 15.58 15.58 0 0 1 9.154 14.145 26 26 0 0 0 2.637-2.306"/><path fill="#ffdcd5" fill-rule="evenodd" d="M33.549 54.005a10.16 10.16 0 1 0-6.369 2.242 10.14 10.14 0 0 0 6.369-2.242"/><path fill="#ffcd69" fill-rule="evenodd" d="M27.18 73.363a25.6 25.6 0 0 0 15.521-5.218 15.57 15.57 0 0 0-9.153-14.141 10.15 10.15 0 0 1-12.733 0 15.58 15.58 0 0 0-9.152 14.137 25.6 25.6 0 0 0 15.517 5.222"/><path fill="#faf7f5" fill-rule="evenodd" d="M75.496 59.329V49.013a1.96 1.96 0 0 0-1.957-1.957H51.466a1.96 1.96 0 0 0-1.952 1.957v1.867l-4.966 3.291 4.966 3.291v1.867a1.96 1.96 0 0 0 1.952 1.957h22.07a1.96 1.96 0 0 0 1.96-1.957"/><g fill-rule="evenodd" transform="translate(30.994 1.506)"><path fill="#ffcd69" d="M23.153 38.805A19.56 19.56 0 1 0 3.07 30.092 13.26 13.26 0 0 1 .9 38.934a16.14 16.14 0 0 0 11.711-1.08 19.5 19.5 0 0 0 10.546.951Z"/><path fill="#66e0f7" d="M8.165 14.761v11.966a1.25 1.25 0 0 0 1.249 1.249h4.212a1.254 1.254 0 0 0 1.249-1.249V14.761a1.255 1.255 0 0 0-1.249-1.253H9.414a1.25 1.25 0 0 0-1.249 1.253"/><path fill="#ffdcd5" d="M14.878 15.537v10.412c.767.887 2.878 1.62 4.83 1.62h5.3a5.516 5.516 0 0 0 5.5-5.5v-3.85a3.55 3.55 0 0 0-3.538-3.534h-2.907V9.949a2.28 2.28 0 0 0-2.276-2.276c-1.253 0-1.833 1.108-2.281 2.276l-1.309 3.432a2.906 2.906 0 0 1-3.319 2.156"/></g><path d="M55.772 52.655a1.517 1.517 0 1 0 1.515 1.519v-.009a1.51 1.51 0 0 0-1.515-1.51m6.765 0a1.517 1.517 0 1 0 1.515 1.519v-.009a1.51 1.51 0 0 0-1.515-1.51m6.769 0a1.517 1.517 0 1 0 1.515 1.519v-.009a1.51 1.51 0 0 0-1.515-1.51M37.655 28.234a2.756 2.756 0 0 0 2.753 2.753h4.212a2.75 2.75 0 0 0 2.236-1.153 10.8 10.8 0 0 0 3.843.744h5.3a7.013 7.013 0 0 0 7.007-7v-3.853a5.046 5.046 0 0 0-5.042-5.038h-1.4v-3.236a3.785 3.785 0 0 0-3.78-3.781c-2.443 0-3.345 2.356-3.686 3.245l-1.314 3.436a2.1 2.1 0 0 1-.585.959 2.755 2.755 0 0 0-2.579-1.8h-4.212a2.76 2.76 0 0 0-2.753 2.757Zm9.718-9.788a4.23 4.23 0 0 0 3.222-3.023l1.308-3.429c.5-1.311.764-1.311.876-1.311a.774.774 0 0 1 .773.773v4.735a1.5 1.5 0 0 0 1.5 1.5h2.907a2.035 2.035 0 0 1 2.034 2.03v3.849a4 4 0 0 1-4 4h-5.3a7.14 7.14 0 0 1-3.319-.819Zm-6.71-1.927h3.7v11.46h-3.7Z"/><path d="M73.539 45.552H54.277a27 27 0 0 0-.532-3.645q.34-.052.678-.114A21.069 21.069 0 1 0 41.809 1.907a1.504 1.504 0 1 0 1.249 2.736 18.065 18.065 0 1 1 1.08 33.313 1.5 1.5 0 0 0-1.215.063 14.33 14.33 0 0 1-8.745 1.354 14.03 14.03 0 0 0 1.387-7.9 1.5 1.5 0 0 0-.231-.686 18.07 18.07 0 0 1-1.023-17.589 1.506 1.506 0 0 0-2.711-1.313 20.9 20.9 0 0 0-2.11 8.717q-1.157-.099-2.313-.1A27.182 27.182 0 1 0 46.4 66.907a27.3 27.3 0 0 0 3.6-4.44 3.4 3.4 0 0 0 1.465.327h22.074A3.465 3.465 0 0 0 77 59.329V49.013a3.465 3.465 0 0 0-3.461-3.461m-38.488-3.054a8.652 8.652 0 1 1-7.871-5.056 8.6 8.6 0 0 1 4.086 1.025c-.2.387-.419.787-.668 1.209a1.5 1.5 0 0 0 .918 2.219 20.6 20.6 0 0 0 3.534.6ZM10.087 64.776a24.172 24.172 0 0 1 19.566-41.139c.054.432.116.864.2 1.3a20.9 20.9 0 0 0 2.743 7.148 11.7 11.7 0 0 1-.241 3.561 11.653 11.653 0 0 0-14.048 18 17.12 17.12 0 0 0-7.87 11.476q-.175-.167-.347-.339Zm17.093 7.083a24 24 0 0 1-13.991-4.452 14.08 14.08 0 0 1 7.472-11.649 11.64 11.64 0 0 0 13.04 0 14.08 14.08 0 0 1 7.474 11.649 24 24 0 0 1-13.995 4.452m17.1-7.083q-.171.17-.346.338a17.12 17.12 0 0 0-7.876-11.477 11.64 11.64 0 0 0 2.2-11.165 16.9 16.9 0 0 0 5.421-1.481 21 21 0 0 0 7.03 1.151 24 24 0 0 1 .549 3.416 3.463 3.463 0 0 0-3.253 3.454v1.06l-4.289 2.845a1.5 1.5 0 0 0 0 2.507l4.293 2.845v1.06a3.5 3.5 0 0 0 .045.555 24.2 24.2 0 0 1-3.778 4.892Zm29.716-5.447a.46.46 0 0 1-.453.453H51.466a.457.457 0 0 1-.448-.453v-1.867a1.5 1.5 0 0 0-.673-1.254l-3.075-2.037 3.075-2.037a1.5 1.5 0 0 0 .673-1.254v-1.867a.457.457 0 0 1 .448-.453h22.073a.46.46 0 0 1 .453.453Z"/><path d="M36.907 8.565a1.5 1.5 0 1 0-1.06-2.568 1.5 1.5 0 0 0 1.064 2.564Z"/></g></g></svg>