<svg xmlns="http://www.w3.org/2000/svg" width="124" height="124" viewBox="0 0 124 124"><g transform="translate(3919.728 7031.641)"><circle cx="62" cy="62" r="62" fill="#fff" transform="translate(-3919.728 -7031.641)"/><g transform="translate(-3889.248 -6996.934)"><g transform="translate(1.029 1.029)"><path fill="#ef7385" d="M55.568 57.421v4.322h-8.232v-4.044l5.145-.021 1.153-.01a7.5 7.5 0 0 0 1.934-.247"/><path fill="#ef7385" d="M49.394 49.394a2.073 2.073 0 0 0-2.058 2.058v-10.29h-2.058l1.852-10.188a16.44 16.44 0 0 1 14.613 16.362v2.182a8.14 8.14 0 0 1-6.174 7.9 7.5 7.5 0 0 1-1.935.247l-1.156.009v-6.222l-1.451-1.451a2.06 2.06 0 0 0-1.461-.607Zm-8.232-13.377 4.116 5.145h-8.232Zm-6.175 21.61v4.116h-8.232V57.39a8 8 0 0 0 1.935.237Zm0-7.379v1.2h-5.145a3.083 3.083 0 0 1-3.087-3.086v-7.2a2.02 2.02 0 0 0 .607 1.451Z"/><path fill="#ef7385" d="M26.755 57.39a8.11 8.11 0 0 1-6.174-7.873v-2.181a16.37 16.37 0 0 1 3.869-10.6c-.01-.01 0-.01 0-.01a16.44 16.44 0 0 1 10.744-5.752l1.852 10.188h-2.058v3.262l-4.723-4.713a2.058 2.058 0 0 0-3.509 1.451v7.2a3.083 3.083 0 0 0 3.087 3.087h5.145v6.174h-6.3a8 8 0 0 1-1.935-.237Z"/><path fill="#ed5565" d="m47.13 30.971-1.852 10.19-4.116-5.145 4.116-5.145a16 16 0 0 1 1.852.1m-10.084-.1 4.116 5.145-4.116 5.145-1.852-10.19a16 16 0 0 1 1.852-.1"/><path fill="#e6e9ed" d="M20.859 0H3.838A3.83 3.83 0 0 0 0 3.838a3 3 0 0 0 .041.545L1.585 15.22a3.846 3.846 0 0 0 3.807 3.3h4.9l3.694 3.694a1.455 1.455 0 0 0 2.48-1.029v-2.662H19.3a3.846 3.846 0 0 0 3.807-3.3l1.549-10.839a3 3 0 0 0 .041-.545A3.84 3.84 0 0 0 20.859 0M10.291 49.394h-4.9a3.846 3.846 0 0 1-3.807-3.3L.041 35.255A3 3 0 0 1 0 34.709a3.83 3.83 0 0 1 3.838-3.838h17.02a3.84 3.84 0 0 1 3.842 3.838 3 3 0 0 1-.041.545l-.206 1.472s-.01 0 0 .01a16.37 16.37 0 0 0-3.869 10.6v2.058h-4.119v2.665a1.455 1.455 0 0 1-2.48 1.029Z"/><path fill="#aab2bd" d="M34.987 44.424v5.824l-7.625-7.636a2.052 2.052 0 1 1 2.9-2.9Z"/><path fill="#e6e9ed" d="M47.337 57.699v4.044H34.988V41.162h12.349v10.29a3.09 3.09 0 0 0-3.087 3.1v.082a3.07 3.07 0 0 0 3.087 3.065"/><path fill="#fcd770" d="m37.251 8.85-1.5.5a4.1 4.1 0 0 0-2.82 3.9v2.182H31.9a3.1 3.1 0 0 0-2.12.844A11.635 11.635 0 0 1 40.452 0h1.42a11.635 11.635 0 0 1 10.671 16.28 3.1 3.1 0 0 0-2.12-.844h-1.029v-1.029a2.064 2.064 0 0 0-2.058-2.058h-6.174c-2.326 0-3.479-1.749-3.911-3.499"/><path fill="#f0d0b4" d="m44.661 27.764.617 3.108-4.116 5.145-4.116-5.145.617-3.108c.134.01.268.021.412.021h6.171c.147-.001.281-.011.415-.021m7.944-11.422a3.085 3.085 0 0 1-2.182 5.269h-1.029v-6.175h1.029a3.1 3.1 0 0 1 2.12.844zm-19.676-.906v6.174H31.9a3.087 3.087 0 0 1 0-6.174Z"/><path fill="#f0d0b4" d="M49.395 15.436v7.2a5.147 5.147 0 0 1-4.734 5.125c-.134.01-.268.021-.412.021h-6.174c-.144 0-.278-.01-.412-.021a5.147 5.147 0 0 1-4.733-5.122V13.25a4.1 4.1 0 0 1 2.82-3.9l1.5-.5c.432 1.749 1.585 3.5 3.91 3.5h6.174a2.064 2.064 0 0 1 2.058 2.058Zm-2.059 42.258a3.07 3.07 0 0 1-3.087-3.062v-.082a3.09 3.09 0 0 1 3.087-3.1 2.073 2.073 0 0 1 2.058-2.056h.175a2.06 2.06 0 0 1 1.461.607l1.451 1.451v6.226Z"/></g><path d="M13.377 34.988a4.12 4.12 0 0 0-4.116 4.116v8.232h2.058V43.22h4.116v4.116h2.058v-8.232a4.12 4.12 0 0 0-4.116-4.116m-2.058 6.174v-2.058a2.058 2.058 0 0 1 4.116 0v2.058Zm.725-28.279a15.2 15.2 0 0 1-3.311 2.7l1.059 1.765a17.2 17.2 0 0 0 3.586-2.866 17.3 17.3 0 0 0 3.586 2.866l1.059-1.765a15.1 15.1 0 0 1-3.311-2.7 17.2 17.2 0 0 0 2.484-4.651h2.357V6.174h-5.15V4.116h-2.055v2.058H7.203v2.058H9.56a17.2 17.2 0 0 0 2.484 4.651m1.334-1.659a15.2 15.2 0 0 1-1.616-2.992h3.23a15.2 15.2 0 0 1-1.615 2.993Z"/><path d="M1.6 16.4a4.9 4.9 0 0 0 4.82 4.181h4.473l3.389 3.389a2.484 2.484 0 0 0 4.241-1.757v-1.632h1.812a4.9 4.9 0 0 0 4.823-4.181l1.549-10.839a5 5 0 0 0 .048-.689A4.877 4.877 0 0 0 21.884 0H4.872A4.87 4.87 0 0 0 .049 5.561ZM4.872 2.058h17.011A2.82 2.82 0 0 1 24.7 4.872a3 3 0 0 1-.028.4l-1.55 10.835a2.83 2.83 0 0 1-2.787 2.416h-3.87v3.69a.442.442 0 0 1-.728.3l-3.992-3.992H6.42a2.83 2.83 0 0 1-2.786-2.416L2.087 5.271a3 3 0 0 1-.029-.4 2.817 2.817 0 0 1 2.814-2.813m34.232 23.668h4.116a3.09 3.09 0 0 0 3.084-3.087h-2.055a1.03 1.03 0 0 1-1.029 1.029h-4.116Z"/><ellipse cx=".5" cy="1" rx=".5" ry="1" transform="translate(37.886 16.643)"/><ellipse cx="1.5" cy="1" rx="1.5" ry="1" transform="translate(44.886 16.643)"/><path d="m47.155 30.892-.255-1.273a6.18 6.18 0 0 0 4.551-5.951 4.12 4.12 0 0 0 4.116-4.116 4.08 4.08 0 0 0-.82-2.441A12.633 12.633 0 0 0 42.9 0h-1.415a12.632 12.632 0 0 0-11.851 17.11 4.1 4.1 0 0 0 3.3 6.558 6.18 6.18 0 0 0 4.553 5.951l-.254 1.273A17.4 17.4 0 0 0 26.69 35.1a4.865 4.865 0 0 0-4.807-4.228H4.872A4.87 4.87 0 0 0 .05 36.433L1.6 47.268a4.9 4.9 0 0 0 4.82 4.184h4.473l3.389 3.389a2.484 2.484 0 0 0 4.241-1.757v-1.632h2.1a9.15 9.15 0 0 0 6.129 7.731V63.8h30.875v-4.59a9.2 9.2 0 0 0 6.173-8.658v-2.187a17.516 17.516 0 0 0-16.645-17.473m5.327 26.788-4.118.022a1.92 1.92 0 0 1-1.453-.6 2.08 2.08 0 0 1-.6-1.529 2.06 2.06 0 0 1 2.057-2.066h1.029v-1.026a1.03 1.03 0 0 1 1.029-1.029h.174a1.02 1.02 0 0 1 .729.3l1.155 1.154Zm-17.494-8.889-5.873-5.873a1.03 1.03 0 0 1 0-1.455 1.043 1.043 0 0 1 1.455 0l4.418 4.418Zm-6.174-3.264 5.925 5.925h-3.867a2.06 2.06 0 0 1-2.058-2.058Zm16.032-15.685.358 1.79-3.013 3.768-3.013-3.766.358-1.79ZM37.6 32.953l3.273 4.093-2.19 2.738-1.24-6.822c.057-.003.104-.007.157-.009m4.592 5.74 1.975 2.469h-3.952Zm5.145 4.527v8.369a4.1 4.1 0 0 0-1.881 1.068 4.16 4.16 0 0 0-1.206 3 4.06 4.06 0 0 0 3.087 3.961v2.125H37.046V43.22Zm-3.827-6.174 3.273-4.093.157.008-1.24 6.822Zm7.943-15.436v-4.116a2.058 2.058 0 1 1 0 4.116m-20.581-2.058a2.06 2.06 0 0 1 2.058-2.058v4.116a2.06 2.06 0 0 1-2.058-2.058m2.058-5.266v1.149a4.1 4.1 0 0 0-1.594.322 10.6 10.6 0 0 1 10.148-13.7H42.9a10.6 10.6 0 0 1 10.15 13.7 4.1 4.1 0 0 0-1.594-.321 3.09 3.09 0 0 0-3.087-3.087h-6.178c-2.442 0-3.087-2.693-3.087-4.116V7.2h-2.058v1.032a8 8 0 0 0 .058.954l-.656.218a5.14 5.14 0 0 0-3.518 4.882m2.058 9.382v-9.382a3.08 3.08 0 0 1 2.112-2.928l.525-.175a4.86 4.86 0 0 0 4.568 3.224h6.174a1.03 1.03 0 0 1 1.029 1.029v8.232a4.12 4.12 0 0 1-4.116 4.116H39.1a4.12 4.12 0 0 1-4.116-4.116ZM16.465 49.394v3.69a.442.442 0 0 1-.728.3l-3.992-3.992H6.42a2.83 2.83 0 0 1-2.786-2.416L2.087 36.142a3 3 0 0 1-.029-.4 2.817 2.817 0 0 1 2.814-2.812h17.011a2.82 2.82 0 0 1 2.817 2.813 3 3 0 0 1-.028.4l-.172 1.218a17.4 17.4 0 0 0-3.915 11v1.029Zm6.174 1.158v-2.187A15.45 15.45 0 0 1 35.39 33.179l1.452 7.983h-1.854v1.809l-2.963-2.963a3.16 3.16 0 0 0-4.365 0 3.06 3.06 0 0 0-.9 2.183v7.2a4.12 4.12 0 0 0 4.116 4.116h4.116v4.116h-5.278a7.083 7.083 0 0 1-7.075-7.075Zm6.174 9.088q.45.044.9.045h5.274v2.058h-6.174Zm26.755 2.1h-6.174v-1.986l5.279-.028c.3 0 .6-.02.9-.05Zm6.174-11.191a7.133 7.133 0 0 1-7.081 7.117h-.121v-4.3a4.11 4.11 0 0 0 3.087-3.97v-7.2h-2.058v7.2a2.06 2.06 0 0 1-1.669 2.019L52.783 50.3a3.07 3.07 0 0 0-2.184-.9h-.176a3.1 3.1 0 0 0-1.029.18v-8.418H47.54l1.451-7.983a15.45 15.45 0 0 1 12.752 15.186Z"/></g></g></svg>