<svg xmlns="http://www.w3.org/2000/svg" width="124" height="124" viewBox="0 0 124 124"><g transform="translate(-788.62 -4678.359)"><circle cx="62" cy="62" r="62" fill="#fff" transform="translate(788.62 4678.359)"/><g transform="translate(823.184 4699.188)"><g transform="translate(1.128 1.128)"><g transform="translate(0 7.335)"><path fill="#eab14d" d="M50.853 67.409H3.821a3.82 3.82 0 0 1-3.818-3.818V3.817A3.82 3.82 0 0 1 3.821 0h47.036a3.82 3.82 0 0 1 3.818 3.818v59.774a3.82 3.82 0 0 1-3.822 3.817"/><path fill="#e49542" d="M50.853 0h-5.84v63.592a3.82 3.82 0 0 1-3.818 3.818h9.658a3.82 3.82 0 0 0 3.818-3.818V3.817A3.817 3.817 0 0 0 50.854 0Z"/><path fill="#f2f9ff" d="M6.944 0v59.751a1.107 1.107 0 0 0 1.107 1.107h38.57a1.107 1.107 0 0 0 1.107-1.107V0Z"/></g><path fill="#e2f4ff" d="M45.013 7.335v60.858h1.607a1.107 1.107 0 0 0 1.107-1.107V7.335Z"/><path fill="#81a7c6" d="M30.665 3.328a3.328 3.328 0 0 0-6.655 0 .68.68 0 0 1-.679.679h-4.342a2.16 2.16 0 0 0-2.16 2.16V8.5a2.16 2.16 0 0 0 2.16 2.16h16.7a2.16 2.16 0 0 0 2.156-2.16V6.167a2.16 2.16 0 0 0-2.16-2.16h-4.342a.68.68 0 0 1-.678-.679"/><g transform="translate(16.267 21.269)"><path fill="#bed8fb" d="M22.136 17.961V7.088a1.65 1.65 0 0 0-.826-1.431L11.894.221a1.65 1.65 0 0 0-1.652 0L.826 5.657A1.65 1.65 0 0 0 0 7.088V17.96a1.65 1.65 0 0 0 .826 1.431l9.416 5.436a1.65 1.65 0 0 0 1.652 0l9.416-5.436a1.65 1.65 0 0 0 .826-1.43"/><path fill="#9dc6fb" d="m11.068 12.524 10.847-6.262a1.65 1.65 0 0 0-.6-.6L11.899.226a1.65 1.65 0 0 0-1.652 0L.831 5.662a1.65 1.65 0 0 0-.6.6Z"/></g><g transform="translate(22.665 37.846)"><path fill="#e28086" d="M24.223 6.892 4.689 26.426a6.9 6.9 0 0 0-1.207 1.629L.218 34.173a1.854 1.854 0 0 0 2.508 2.508l6.118-3.264a6.9 6.9 0 0 0 1.629-1.207l19.534-19.534Z"/><path fill="#5b8eb7" d="M35.7 1.198a4.09 4.09 0 0 0-5.784 0l-3.171 3.171 5.784 5.784L35.7 6.982a4.09 4.09 0 0 0 0-5.784"/><path fill="#365e7d" d="m2.726 36.68 6.118-3.264-5.362-5.362-3.264 6.118a1.854 1.854 0 0 0 2.508 2.508"/><path fill="#81a7c6" d="m23.698 7.407 3.281-3.281 5.783 5.783-3.28 3.281Z"/></g></g><path fill="#5c90b9" d="M36.812 5.135H32.47a.68.68 0 0 1-.679-.679 3.328 3.328 0 0 0-5.108-2.812c1.555.532 2.457 1.547 2.457 3.946v6.2h7.672a2.16 2.16 0 0 0 2.164-2.162V7.295a2.16 2.16 0 0 0-2.16-2.16Z"/><path d="m35.063 71.98 1.532-1.532h11.153a2.237 2.237 0 0 0 2.235-2.234V57.061l10.309-10.308a5.224 5.224 0 0 0 0-7.379 5.224 5.224 0 0 0-7.379 0L49.982 42.3V9.591h2a2.693 2.693 0 0 1 2.69 2.69v21.466a1.128 1.128 0 1 0 2.256 0V12.28a4.95 4.95 0 0 0-4.945-4.945H40.1V7.3a3.29 3.29 0 0 0-3.288-3.288h-3.916a4.456 4.456 0 0 0-8.866 0h-3.916A3.29 3.29 0 0 0 16.826 7.3v.04H4.945A4.95 4.95 0 0 0 0 12.28v59.775A4.95 4.95 0 0 0 4.945 77h47.036a4.95 4.95 0 0 0 4.945-4.945V55.374a1.128 1.128 0 0 0-2.256 0v16.68a2.693 2.693 0 0 1-2.69 2.69H30.62c2.563-1.367 3.38-1.7 4.443-2.764m-6.356-5.116c.493-.672-.3.243 18.795-18.89l4.189 4.189c-19.959 19.958-18.382 18.423-18.89 18.795Zm24.579-16.3-4.189-4.189 1.686-1.686 4.189 4.189Zm-5.559 17.628h-8.875l8.875-8.875Zm6.781-27.223a2.965 2.965 0 0 1 4.189 0 2.965 2.965 0 0 1 0 4.189l-2.129 2.129-4.19-4.187ZM19.082 7.3a1.033 1.033 0 0 1 1.032-1.032h4.342a1.81 1.81 0 0 0 1.807-1.807 2.2 2.2 0 0 1 4.4 0 1.81 1.81 0 0 0 1.807 1.802h4.342A1.033 1.033 0 0 1 37.845 7.3v2.33a1.033 1.033 0 0 1-1.032 1.032h-16.7a1.033 1.033 0 0 1-1.031-1.032Zm1.032 5.623h16.7A3.29 3.29 0 0 0 40.1 9.63v-.04h7.626v34.969L27.685 64.6a14 14 0 0 0-2.309 3.591H9.199v-58.6h7.626v.04a3.29 3.29 0 0 0 3.288 3.288ZM2.256 72.054V12.28a2.693 2.693 0 0 1 2.689-2.69h2v58.624a2.237 2.237 0 0 0 2.235 2.234h14.992l-1.152 2.167a2.97 2.97 0 0 0-.265 2.129H4.945a2.69 2.69 0 0 1-2.689-2.69m22.878 2.477a.72.72 0 0 1-.127-.855l2.547-4.776 3.209 3.209-4.775 2.548a.72.72 0 0 1-.855-.126Z"/><path d="M16.267 29.486v3.157a1.128 1.128 0 0 0 2.256 0v-2.157l8.812 5.088V45.75l-8.55-4.937a.53.53 0 0 1-.262-.454v-2.438a1.128 1.128 0 0 0-2.256 0v2.438a2.79 2.79 0 0 0 1.39 2.408l9.416 5.436a2.79 2.79 0 0 0 2.78 0l9.416-5.436a2.79 2.79 0 0 0 1.39-2.408V29.486a2.79 2.79 0 0 0-1.39-2.408l-9.416-5.436a2.79 2.79 0 0 0-2.78 0l-9.416 5.436a2.79 2.79 0 0 0-1.39 2.408m21.874 11.326-8.55 4.936V35.573l8.812-5.088v9.873a.53.53 0 0 1-.262.454m-9.94-17.217a.53.53 0 0 1 .524 0l8.55 4.936-8.812 5.088-8.812-5.088Z"/></g></g></svg>