<svg xmlns="http://www.w3.org/2000/svg" width="85" height="112.859" viewBox="0 0 85 112.859"><path fill="#a5b9f6" d="M10.354 20.86a2.133 2.133 0 0 1-2.107-1.892 7.5 7.5 0 0 0-6.388-6.4 2.159 2.159 0 0 1-.014-4.275 7.58 7.58 0 0 0 6.391-6.41 2.119 2.119 0 0 1 4.209-.016 7.62 7.62 0 0 0 6.383 6.461 2.13 2.13 0 0 1 1.852 2.11v.039a2.064 2.064 0 0 1-1.822 2.052 7.615 7.615 0 0 0-6.4 6.48 2.14 2.14 0 0 1-2.104 1.851M10.342 1a1.144 1.144 0 0 0-1.116 1.017A8.575 8.575 0 0 1 2 9.275a1.16 1.16 0 0 0 .008 2.3 8.49 8.49 0 0 1 7.227 7.26 1.12 1.12 0 0 0 2.23.021 8.62 8.62 0 0 1 7.259-7.323 1.073 1.073 0 0 0 .954-1.061v-.04a1.135 1.135 0 0 0-.994-1.12A8.63 8.63 0 0 1 11.455 2a1.135 1.135 0 0 0-1.113-1m21.293 19.86a2.133 2.133 0 0 1-2.107-1.892 7.5 7.5 0 0 0-6.388-6.4 2.159 2.159 0 0 1-.014-4.275 7.58 7.58 0 0 0 6.391-6.41 2.12 2.12 0 0 1 4.21-.017 7.62 7.62 0 0 0 6.382 6.461 2.13 2.13 0 0 1 1.852 2.11v.039a2.064 2.064 0 0 1-1.826 2.047 7.615 7.615 0 0 0-6.4 6.48 2.14 2.14 0 0 1-2.1 1.857M31.62 1a1.144 1.144 0 0 0-1.116 1.017 8.575 8.575 0 0 1-7.223 7.258 1.16 1.16 0 0 0 .008 2.3 8.49 8.49 0 0 1 7.227 7.26 1.12 1.12 0 0 0 2.23.021 8.62 8.62 0 0 1 7.259-7.323 1.073 1.073 0 0 0 .954-1.061v-.04a1.135 1.135 0 0 0-.994-1.12A8.625 8.625 0 0 1 32.735 2a1.14 1.14 0 0 0-1.115-1m21.289 19.86a2.133 2.133 0 0 1-2.107-1.892 7.5 7.5 0 0 0-6.388-6.4 2.159 2.159 0 0 1-.014-4.275 7.58 7.58 0 0 0 6.391-6.41A2.119 2.119 0 0 1 55 1.867a7.62 7.62 0 0 0 6.383 6.461 2.13 2.13 0 0 1 1.852 2.11v.039a2.064 2.064 0 0 1-1.822 2.052 7.615 7.615 0 0 0-6.4 6.48 2.14 2.14 0 0 1-2.104 1.851M52.897 1a1.144 1.144 0 0 0-1.116 1.017 8.575 8.575 0 0 1-7.223 7.258 1.16 1.16 0 0 0 .008 2.3 8.49 8.49 0 0 1 7.227 7.26 1.12 1.12 0 0 0 2.23.021 8.62 8.62 0 0 1 7.259-7.323 1.073 1.073 0 0 0 .954-1.061v-.04a1.135 1.135 0 0 0-.994-1.12A8.63 8.63 0 0 1 54.01 2a1.135 1.135 0 0 0-1.113-1m21.291 19.86a2.133 2.133 0 0 1-2.107-1.892 7.5 7.5 0 0 0-6.388-6.4 2.159 2.159 0 0 1-.014-4.275 7.58 7.58 0 0 0 6.391-6.41 2.119 2.119 0 0 1 4.209-.016 7.62 7.62 0 0 0 6.383 6.461 2.13 2.13 0 0 1 1.852 2.11v.039a2.064 2.064 0 0 1-1.822 2.052 7.615 7.615 0 0 0-6.4 6.48 2.14 2.14 0 0 1-2.104 1.851M74.176 1a1.144 1.144 0 0 0-1.116 1.017 8.575 8.575 0 0 1-7.223 7.258 1.16 1.16 0 0 0 .008 2.3 8.49 8.49 0 0 1 7.227 7.26 1.12 1.12 0 0 0 2.23.021 8.62 8.62 0 0 1 7.259-7.323 1.073 1.073 0 0 0 .954-1.061v-.04a1.135 1.135 0 0 0-.994-1.12A8.63 8.63 0 0 1 75.289 2a1.135 1.135 0 0 0-1.113-1M10.354 43.861a2.134 2.134 0 0 1-2.107-1.892 7.5 7.5 0 0 0-6.388-6.4 2.159 2.159 0 0 1-.014-4.275 7.74 7.74 0 0 0 4.267-2.15 7.4 7.4 0 0 0 2.124-4.264 2.119 2.119 0 0 1 4.209-.017 7.62 7.62 0 0 0 6.383 6.461 2.13 2.13 0 0 1 1.852 2.11v.04a2.09 2.09 0 0 1-1.822 2.052 7.61 7.61 0 0 0-6.4 6.479 2.14 2.14 0 0 1-2.104 1.856M10.342 24a1.144 1.144 0 0 0-1.116 1.018A8.58 8.58 0 0 1 2 32.28a1.16 1.16 0 0 0 .008 2.3 8.49 8.49 0 0 1 7.227 7.26 1.12 1.12 0 0 0 2.23.02 8.62 8.62 0 0 1 7.259-7.322 1.073 1.073 0 0 0 .954-1.061v-.04a1.136 1.136 0 0 0-.995-1.12 8.63 8.63 0 0 1-7.231-7.309A1.135 1.135 0 0 0 10.342 24m21.293 19.861a2.134 2.134 0 0 1-2.107-1.892 7.5 7.5 0 0 0-6.388-6.4 2.159 2.159 0 0 1-.014-4.275 7.74 7.74 0 0 0 4.267-2.15 7.4 7.4 0 0 0 2.124-4.26 2.12 2.12 0 0 1 4.21-.018 7.62 7.62 0 0 0 6.382 6.461 2.13 2.13 0 0 1 1.852 2.11v.04a2.09 2.09 0 0 1-1.826 2.047 7.61 7.61 0 0 0-6.4 6.479 2.14 2.14 0 0 1-2.1 1.858M31.62 24a1.144 1.144 0 0 0-1.116 1.018 8.58 8.58 0 0 1-7.223 7.262 1.16 1.16 0 0 0 .008 2.3 8.49 8.49 0 0 1 7.227 7.26 1.12 1.12 0 0 0 2.23.02 8.62 8.62 0 0 1 7.259-7.322 1.073 1.073 0 0 0 .954-1.061v-.04a1.136 1.136 0 0 0-.995-1.12 8.62 8.62 0 0 1-7.23-7.309A1.14 1.14 0 0 0 31.62 24m21.289 19.861a2.134 2.134 0 0 1-2.107-1.892 7.5 7.5 0 0 0-6.388-6.4 2.159 2.159 0 0 1-.014-4.275 7.74 7.74 0 0 0 4.267-2.15 7.4 7.4 0 0 0 2.124-4.26A2.119 2.119 0 0 1 55 24.867a7.62 7.62 0 0 0 6.383 6.461 2.13 2.13 0 0 1 1.852 2.11v.04a2.09 2.09 0 0 1-1.822 2.052 7.61 7.61 0 0 0-6.4 6.479 2.14 2.14 0 0 1-2.104 1.852M52.897 24a1.144 1.144 0 0 0-1.116 1.018 8.58 8.58 0 0 1-7.223 7.262 1.16 1.16 0 0 0 .008 2.3 8.49 8.49 0 0 1 7.227 7.26 1.12 1.12 0 0 0 2.23.02 8.62 8.62 0 0 1 7.259-7.322 1.073 1.073 0 0 0 .954-1.061v-.04a1.136 1.136 0 0 0-.995-1.12 8.63 8.63 0 0 1-7.231-7.309A1.135 1.135 0 0 0 52.897 24m21.291 19.861a2.134 2.134 0 0 1-2.107-1.892 7.5 7.5 0 0 0-6.388-6.4 2.159 2.159 0 0 1-.014-4.275 7.74 7.74 0 0 0 4.267-2.15 7.4 7.4 0 0 0 2.124-4.26 2.119 2.119 0 0 1 4.209-.017 7.62 7.62 0 0 0 6.383 6.461 2.13 2.13 0 0 1 1.852 2.11v.04a2.09 2.09 0 0 1-1.822 2.052 7.61 7.61 0 0 0-6.4 6.479 2.14 2.14 0 0 1-2.104 1.852M74.176 24a1.144 1.144 0 0 0-1.116 1.018 8.58 8.58 0 0 1-7.223 7.262 1.16 1.16 0 0 0 .008 2.3 8.49 8.49 0 0 1 7.227 7.26 1.12 1.12 0 0 0 2.23.02 8.62 8.62 0 0 1 7.259-7.322 1.073 1.073 0 0 0 .954-1.061v-.04a1.136 1.136 0 0 0-.995-1.12 8.63 8.63 0 0 1-7.231-7.309A1.135 1.135 0 0 0 74.176 24M10.354 66.859a2.133 2.133 0 0 1-2.107-1.892 7.5 7.5 0 0 0-6.388-6.4 2.16 2.16 0 0 1-.014-4.276 7.58 7.58 0 0 0 6.391-6.409 2.119 2.119 0 0 1 4.209-.016 7.62 7.62 0 0 0 6.383 6.461 2.13 2.13 0 0 1 1.852 2.109v.039a2.09 2.09 0 0 1-1.822 2.052 7.615 7.615 0 0 0-6.4 6.48 2.14 2.14 0 0 1-2.104 1.852m-.012-19.86a1.144 1.144 0 0 0-1.116 1.017A8.57 8.57 0 0 1 2 55.274a1.16 1.16 0 0 0 .008 2.3 8.49 8.49 0 0 1 7.227 7.26 1.12 1.12 0 0 0 2.23.021 8.62 8.62 0 0 1 7.259-7.323 1.073 1.073 0 0 0 .954-1.061v-.039a1.135 1.135 0 0 0-.994-1.12 8.63 8.63 0 0 1-7.231-7.309A1.135 1.135 0 0 0 10.342 47Zm21.293 19.86a2.133 2.133 0 0 1-2.107-1.892 7.5 7.5 0 0 0-6.393-6.408 2.16 2.16 0 0 1-.014-4.276 7.58 7.58 0 0 0 6.391-6.409 2.12 2.12 0 0 1 4.21-.017 7.62 7.62 0 0 0 6.382 6.461 2.13 2.13 0 0 1 1.852 2.109v.039a2.09 2.09 0 0 1-1.821 2.057 7.615 7.615 0 0 0-6.4 6.48 2.14 2.14 0 0 1-2.1 1.856m-.012-19.86a1.144 1.144 0 0 0-1.116 1.017 8.57 8.57 0 0 1-7.223 7.257 1.16 1.16 0 0 0 .008 2.3 8.49 8.49 0 0 1 7.227 7.26 1.12 1.12 0 0 0 2.23.021 8.62 8.62 0 0 1 7.259-7.323 1.073 1.073 0 0 0 .954-1.061v-.039a1.135 1.135 0 0 0-.994-1.12 8.625 8.625 0 0 1-7.23-7.309A1.14 1.14 0 0 0 31.62 47Zm21.286 19.86a2.133 2.133 0 0 1-2.107-1.892 7.5 7.5 0 0 0-6.388-6.4 2.16 2.16 0 0 1-.014-4.276 7.58 7.58 0 0 0 6.391-6.409A2.119 2.119 0 0 1 55 47.866a7.62 7.62 0 0 0 6.383 6.461 2.13 2.13 0 0 1 1.852 2.109v.039a2.09 2.09 0 0 1-1.822 2.052 7.615 7.615 0 0 0-6.4 6.48 2.14 2.14 0 0 1-2.104 1.852m-.012-19.86a1.144 1.144 0 0 0-1.116 1.017 8.57 8.57 0 0 1-7.223 7.257 1.16 1.16 0 0 0 .008 2.3 8.49 8.49 0 0 1 7.227 7.26 1.12 1.12 0 0 0 2.23.021 8.62 8.62 0 0 1 7.259-7.323 1.073 1.073 0 0 0 .954-1.061v-.039a1.135 1.135 0 0 0-.994-1.12 8.63 8.63 0 0 1-7.231-7.309A1.135 1.135 0 0 0 52.897 47Zm21.291 19.86a2.133 2.133 0 0 1-2.107-1.892 7.5 7.5 0 0 0-6.388-6.4 2.16 2.16 0 0 1-.014-4.276 7.58 7.58 0 0 0 6.391-6.409 2.119 2.119 0 0 1 4.209-.016 7.62 7.62 0 0 0 6.383 6.461 2.13 2.13 0 0 1 1.852 2.109v.039a2.09 2.09 0 0 1-1.822 2.052 7.615 7.615 0 0 0-6.4 6.48 2.14 2.14 0 0 1-2.104 1.852m-.012-19.86a1.144 1.144 0 0 0-1.116 1.017 8.57 8.57 0 0 1-7.223 7.257 1.16 1.16 0 0 0 .008 2.3 8.49 8.49 0 0 1 7.227 7.26 1.12 1.12 0 0 0 2.23.021 8.62 8.62 0 0 1 7.259-7.323 1.073 1.073 0 0 0 .954-1.061v-.039a1.135 1.135 0 0 0-.994-1.12 8.63 8.63 0 0 1-7.231-7.309A1.135 1.135 0 0 0 74.176 47Zm-63.822 42.86a2.133 2.133 0 0 1-2.107-1.892 7.5 7.5 0 0 0-6.388-6.4 2.159 2.159 0 0 1-.014-4.275 7.58 7.58 0 0 0 6.391-6.41 2.119 2.119 0 0 1 4.209-.016 7.62 7.62 0 0 0 6.383 6.461 2.13 2.13 0 0 1 1.852 2.109v.039a2.064 2.064 0 0 1-1.822 2.052 7.615 7.615 0 0 0-6.4 6.48 2.14 2.14 0 0 1-2.104 1.852m-.012-19.86a1.144 1.144 0 0 0-1.116 1.017A8.575 8.575 0 0 1 2 78.274a1.16 1.16 0 0 0 .007 2.3 8.49 8.49 0 0 1 7.227 7.26 1.12 1.12 0 0 0 2.23.021 8.62 8.62 0 0 1 7.259-7.323 1.073 1.073 0 0 0 .954-1.061v-.039a1.135 1.135 0 0 0-.994-1.12 8.63 8.63 0 0 1-7.231-7.309 1.135 1.135 0 0 0-1.11-1.004m21.293 19.86a2.133 2.133 0 0 1-2.107-1.892 7.5 7.5 0 0 0-6.388-6.4 2.159 2.159 0 0 1-.014-4.275 7.58 7.58 0 0 0 6.391-6.41 2.12 2.12 0 0 1 4.21-.017 7.62 7.62 0 0 0 6.382 6.461 2.13 2.13 0 0 1 1.852 2.109v.039a2.064 2.064 0 0 1-1.826 2.048 7.615 7.615 0 0 0-6.4 6.48 2.14 2.14 0 0 1-2.1 1.857m-.012-19.86a1.144 1.144 0 0 0-1.116 1.017 8.575 8.575 0 0 1-7.223 7.258 1.16 1.16 0 0 0 .007 2.3 8.49 8.49 0 0 1 7.227 7.26 1.12 1.12 0 0 0 2.23.021 8.62 8.62 0 0 1 7.259-7.323 1.073 1.073 0 0 0 .954-1.061v-.039a1.135 1.135 0 0 0-.994-1.12 8.625 8.625 0 0 1-7.23-7.309 1.14 1.14 0 0 0-1.117-1.004Zm21.286 19.86a2.133 2.133 0 0 1-2.107-1.892 7.5 7.5 0 0 0-6.388-6.4 2.159 2.159 0 0 1-.014-4.275 7.58 7.58 0 0 0 6.391-6.41A2.119 2.119 0 0 1 55 70.866a7.62 7.62 0 0 0 6.383 6.461 2.13 2.13 0 0 1 1.852 2.109v.039a2.064 2.064 0 0 1-1.822 2.052 7.615 7.615 0 0 0-6.4 6.48 2.14 2.14 0 0 1-2.104 1.852m-.012-19.86a1.144 1.144 0 0 0-1.116 1.017 8.575 8.575 0 0 1-7.223 7.258 1.16 1.16 0 0 0 .007 2.3 8.49 8.49 0 0 1 7.227 7.26 1.12 1.12 0 0 0 2.23.021 8.62 8.62 0 0 1 7.259-7.323 1.073 1.073 0 0 0 .954-1.061v-.039a1.135 1.135 0 0 0-.994-1.12 8.63 8.63 0 0 1-7.231-7.309 1.135 1.135 0 0 0-1.113-1.004m21.291 19.86a2.133 2.133 0 0 1-2.107-1.892 7.5 7.5 0 0 0-6.388-6.4 2.159 2.159 0 0 1-.014-4.275 7.58 7.58 0 0 0 6.391-6.41 2.119 2.119 0 0 1 4.209-.016 7.62 7.62 0 0 0 6.383 6.461 2.13 2.13 0 0 1 1.852 2.109v.039a2.064 2.064 0 0 1-1.822 2.052 7.615 7.615 0 0 0-6.4 6.48 2.14 2.14 0 0 1-2.104 1.852m-.012-19.86a1.144 1.144 0 0 0-1.116 1.017 8.575 8.575 0 0 1-7.223 7.258 1.16 1.16 0 0 0 .007 2.3 8.49 8.49 0 0 1 7.227 7.26 1.12 1.12 0 0 0 2.23.021 8.62 8.62 0 0 1 7.259-7.323 1.073 1.073 0 0 0 .954-1.061v-.039a1.135 1.135 0 0 0-.994-1.12 8.63 8.63 0 0 1-7.231-7.309 1.135 1.135 0 0 0-1.113-1.004m-63.336 42.86a2.133 2.133 0 0 1-2.107-1.892 7.5 7.5 0 0 0-6.388-6.4 2.159 2.159 0 0 1-.014-4.275 7.58 7.58 0 0 0 6.391-6.41 2.119 2.119 0 0 1 4.209-.016 7.62 7.62 0 0 0 6.383 6.461 2.13 2.13 0 0 1 1.852 2.109v.039a2.064 2.064 0 0 1-1.822 2.052 7.615 7.615 0 0 0-6.4 6.48 2.14 2.14 0 0 1-2.104 1.852m-.012-19.86a1.144 1.144 0 0 0-1.116 1.017 8.575 8.575 0 0 1-7.226 7.258 1.16 1.16 0 0 0 .007 2.3 8.49 8.49 0 0 1 7.227 7.26 1.12 1.12 0 0 0 2.23.021 8.62 8.62 0 0 1 7.259-7.323 1.073 1.073 0 0 0 .954-1.061v-.039a1.135 1.135 0 0 0-.994-1.12 8.63 8.63 0 0 1-7.231-7.309 1.135 1.135 0 0 0-1.11-1.004m21.292 19.86a2.133 2.133 0 0 1-2.107-1.892 7.5 7.5 0 0 0-6.388-6.4 2.159 2.159 0 0 1-.014-4.275 7.58 7.58 0 0 0 6.391-6.41 2.12 2.12 0 0 1 4.21-.017 7.62 7.62 0 0 0 6.382 6.461 2.13 2.13 0 0 1 1.852 2.109v.039a2.064 2.064 0 0 1-1.826 2.048 7.615 7.615 0 0 0-6.4 6.48 2.14 2.14 0 0 1-2.1 1.857m-.012-19.86a1.144 1.144 0 0 0-1.116 1.017 8.575 8.575 0 0 1-7.223 7.258 1.16 1.16 0 0 0 .007 2.3 8.49 8.49 0 0 1 7.227 7.26 1.12 1.12 0 0 0 2.23.021 8.62 8.62 0 0 1 7.259-7.323 1.073 1.073 0 0 0 .954-1.061v-.039a1.135 1.135 0 0 0-.994-1.12 8.625 8.625 0 0 1-7.23-7.309 1.14 1.14 0 0 0-1.117-1.004Zm21.287 19.86a2.133 2.133 0 0 1-2.107-1.892 7.5 7.5 0 0 0-6.388-6.4 2.159 2.159 0 0 1-.014-4.275 7.58 7.58 0 0 0 6.391-6.41 2.119 2.119 0 0 1 4.209-.016 7.62 7.62 0 0 0 6.383 6.461 2.13 2.13 0 0 1 1.852 2.109v.039a2.064 2.064 0 0 1-1.822 2.052 7.615 7.615 0 0 0-6.4 6.48 2.14 2.14 0 0 1-2.104 1.852m-.012-19.86a1.144 1.144 0 0 0-1.116 1.017 8.575 8.575 0 0 1-7.223 7.258 1.16 1.16 0 0 0 .007 2.3 8.49 8.49 0 0 1 7.227 7.26 1.12 1.12 0 0 0 2.23.021 8.62 8.62 0 0 1 7.259-7.323 1.073 1.073 0 0 0 .954-1.061v-.039a1.135 1.135 0 0 0-.994-1.12 8.63 8.63 0 0 1-7.231-7.309 1.135 1.135 0 0 0-1.113-1.004m21.29 19.86a2.133 2.133 0 0 1-2.107-1.892 7.5 7.5 0 0 0-6.388-6.4 2.159 2.159 0 0 1-.014-4.275 7.58 7.58 0 0 0 6.391-6.41 2.119 2.119 0 0 1 4.209-.016 7.62 7.62 0 0 0 6.383 6.461 2.13 2.13 0 0 1 1.852 2.109v.039a2.064 2.064 0 0 1-1.822 2.052 7.615 7.615 0 0 0-6.4 6.48 2.14 2.14 0 0 1-2.104 1.852m-.012-19.86a1.144 1.144 0 0 0-1.116 1.017 8.575 8.575 0 0 1-7.223 7.258 1.16 1.16 0 0 0 .007 2.3 8.49 8.49 0 0 1 7.227 7.26 1.12 1.12 0 0 0 2.23.021 8.62 8.62 0 0 1 7.259-7.323 1.073 1.073 0 0 0 .954-1.061v-.039a1.135 1.135 0 0 0-.994-1.12 8.63 8.63 0 0 1-7.231-7.309 1.135 1.135 0 0 0-1.113-1.004"/></svg>