<svg xmlns="http://www.w3.org/2000/svg" width="124" height="124" viewBox="0 0 124 124"><g transform="translate(-375.009 -3489.451)"><circle cx="62" cy="62" r="62" fill="#fff" transform="translate(375.009 3489.451)"/><g transform="translate(407.936 3521.309)"><path fill="#2978b8" d="M29.073 71.472S1.211 67.838 1.211 15.748L29.073 1.211l27.862 14.537c.001 52.09-27.862 55.724-27.862 55.724"/><path fill="#3397e8" d="M29.074 66.627S6.057 60.57 6.057 18.171L29.074 6.057l23.017 12.114C52.09 60.57 29.074 66.627 29.074 66.627"/><path fill="#ffd33a" d="M29.073 56.936a13.325 13.325 0 0 1-13.325-13.328v-8.48a2.423 2.423 0 0 1 2.423-2.42h21.805a2.423 2.423 0 0 1 2.423 2.423v8.48a13.325 13.325 0 0 1-13.326 13.325"/><path fill="#e9eef2" d="M18.171 26.648v6.057h4.846v-6.057a6.057 6.057 0 0 1 12.114 0v6.057h4.846v-6.057a10.903 10.903 0 1 0-21.805 0Z"/><path fill="#ffb632" d="M32.708 41.188a3.634 3.634 0 1 0-6.057 2.708v3.349a2.423 2.423 0 0 0 4.846 0v-3.349a3.62 3.62 0 0 0 1.211-2.708"/><path d="M57.5 14.674 29.634.137a1.21 1.21 0 0 0-1.121 0L.651 14.674A1.21 1.21 0 0 0 0 15.748c0 12.015 1.487 22.469 4.418 31.073a46.8 46.8 0 0 0 9.841 17.152c7.18 7.648 14.356 8.661 14.658 8.7a1.2 1.2 0 0 0 .313 0c.3-.039 7.478-1.053 14.658-8.7a46.8 46.8 0 0 0 9.841-17.152c2.931-8.6 4.418-19.058 4.418-31.073a1.21 1.21 0 0 0-.651-1.074Zm-15.239 47.5c-6.031 6.5-12.137 7.88-13.186 8.075-1.044-.189-7.025-1.518-13.045-7.93C9.882 55.77 2.564 42.512 2.43 16.485l26.649-13.9 26.649 13.9c-.135 25.885-7.379 39.128-13.465 45.689ZM28.51 4.985 5.493 17.1a1.21 1.21 0 0 0-.647 1.072A82.9 82.9 0 0 0 8.5 44.009a45.1 45.1 0 0 0 8.14 15.071c5.933 7.026 11.876 8.652 12.126 8.718a1.2 1.2 0 0 0 .617 0c.25-.066 6.193-1.692 12.126-8.718a45.1 45.1 0 0 0 8.137-15.071A82.9 82.9 0 0 0 53.3 18.171a1.21 1.21 0 0 0-.647-1.072L29.638 4.985a1.21 1.21 0 0 0-1.128 0M50.877 18.9c-.135 20.946-6.091 32.472-11.1 38.469-4.7 5.636-9.463 7.558-10.707 7.987-1.243-.429-6-2.351-10.707-7.987-5.005-6-10.961-17.522-11.1-38.469l21.8-11.475ZM16.96 26.65v5.05a3.64 3.64 0 0 0-2.423 3.426v8.48a14.537 14.537 0 0 0 29.074 0V35.13a3.64 3.64 0 0 0-2.423-3.426V26.65a12.114 12.114 0 0 0-24.228 0m24.228 16.96a12.114 12.114 0 0 1-24.228 0v-8.48a1.213 1.213 0 0 1 1.211-1.211h21.805a1.213 1.213 0 0 1 1.211 1.211ZM33.919 31.5h-9.691v-4.85a4.846 4.846 0 0 1 9.691 0Zm4.846-4.846V31.5h-2.423v-4.85a7.269 7.269 0 0 0-14.537 0v4.85h-2.423v-4.85a9.691 9.691 0 0 1 19.382 0Zm-9.691 24.225a3.64 3.64 0 0 1-3.634-3.634v-2.854a4.846 4.846 0 1 1 7.268 0v2.853a3.64 3.64 0 0 1-3.634 3.635m0-12.114a2.422 2.422 0 0 0-1.615 4.228 1.2 1.2 0 0 1 .4.9v3.349a1.212 1.212 0 0 0 2.423 0V43.9a1.2 1.2 0 0 1 .4-.9 2.422 2.422 0 0 0-1.615-4.228Z"/></g></g></svg>