<svg xmlns="http://www.w3.org/2000/svg" width="124" height="124" viewBox="0 0 124 124"><g transform="translate(-4431.422 8252.908)"><circle cx="62" cy="62" r="62" fill="#fff" transform="translate(4431.422 -8252.908)"/><g transform="translate(4464.396 -8219.935)"><g transform="translate(1.065 1.065)"><path fill="#e6e9ed" d="M44.744 59.66a10.64 10.64 0 0 0 8.524 4.261H0v-55.4h8.523V0h42.614v42.827a10.655 10.655 0 0 0-8.523 10.439V49.1a9.59 9.59 0 0 0-7.263-9.3l-5.521-1.379V36.7a2.13 2.13 0 0 1 1.382-1.995L32.3 34.3a9.32 9.32 0 0 0 6.049-8.728v-2.134h2.131a4.262 4.262 0 1 0 0-8.523h-2.14A11.186 11.186 0 0 0 27.167 4.261h-3.2A11.186 11.186 0 0 0 12.8 14.915h-2.146a4.262 4.262 0 1 0 0 8.523h2.131v2.131a9.32 9.32 0 0 0 6.048 8.731l1.092.41a2.13 2.13 0 0 1 1.382 1.99v1.719L15.786 39.8a9.59 9.59 0 0 0-7.263 9.3v4.164H6.392v6.396h6.392v-6.392h4.261v6.392h6.392v-6.392H27.7v6.392h6.392v-6.392h4.261v6.392Z"/><path fill="#ccd1d9" d="M8.523 0v8.523H0Z"/><path fill="#fcd770" d="M42.614 53.268a10.6 10.6 0 0 0 2.129 6.392h-6.39v-6.392zm-14.915 0h6.392v6.392h-6.392Zm-10.653 0h6.392v6.392h-6.392Zm-4.262 0v6.392H6.392v-6.392z"/><path fill="#ff826e" d="M44.743 59.66a10.654 10.654 0 1 1 8.524 4.261 10.6 10.6 0 0 1-8.524-4.261"/><path fill="#f0d0b4" d="M40.484 14.915a4.262 4.262 0 1 1 0 8.523h-2.131v-7.99c0-.178 0-.357-.013-.533z"/><path fill="#f0d0b4" d="M42.614 49.103v4.164H8.523v-4.164a9.59 9.59 0 0 1 7.263-9.3l5.521-1.381v-1.721a2.13 2.13 0 0 0-1.384-1.995l-1.092-.41a9.32 9.32 0 0 1-6.049-8.728V15.447c0-.178 0-.357.013-.533A11.186 11.186 0 0 1 23.971 4.261h3.2a11.186 11.186 0 0 1 11.173 10.654q.013.264.013.533v10.12a9.32 9.32 0 0 1-6.049 8.728l-1.092.41a2.13 2.13 0 0 0-1.382 1.995v1.719l5.521 1.381a9.59 9.59 0 0 1 7.259 9.302"/><path fill="#f0d0b4" d="M12.784 14.915h.013q-.013.264-.013.533v7.99h-2.131a4.262 4.262 0 1 1 0-8.523Z"/><path fill="#5cd6b3" d="M31.96 19.177V27.7a2.13 2.13 0 0 1-2.131 2.131h-8.523a2.13 2.13 0 0 1-2.13-2.131v-8.523a2.13 2.13 0 0 1 2.131-2.131h8.523a2.13 2.13 0 0 1 2.13 2.131"/></g><path d="M34.091 28.765v-8.523a3.2 3.2 0 0 0-2.131-3.013v-1.248a5.327 5.327 0 0 0-10.654 0v1.249a3.2 3.2 0 0 0-2.13 3.012v8.523a3.2 3.2 0 0 0 3.2 3.2h8.523a3.2 3.2 0 0 0 3.192-3.2m-7.458-15.98a3.2 3.2 0 0 1 3.2 3.2v1.065h-6.392v-1.069a3.2 3.2 0 0 1 3.192-3.196m-5.327 15.98v-8.523a1.067 1.067 0 0 1 1.065-1.065h8.523a1.067 1.067 0 0 1 1.065 1.065v8.523a1.067 1.067 0 0 1-1.065 1.065h-8.518a1.067 1.067 0 0 1-1.069-1.065Z"/><path d="M23.438 23.438h2.131v4.261H27.7v-4.261h2.131v-2.131h-6.393Zm-6.392 38.353h8.523v-8.523h-8.523Zm2.131-6.392h4.261v4.261h-4.261Zm8.522 6.392h8.523v-8.523h-8.523Zm2.131-6.392h4.261v4.261H29.83Z"/><path d="M54.333 42.614q-.538 0-1.065.049V0H9.147L0 9.147v56.905h54.333a11.719 11.719 0 1 0 0-23.438M8.523 3.637v4.886H3.637ZM2.131 63.921V10.654h8.523V2.131h40.483v40.926a11.77 11.77 0 0 0-6.625 4.889 10.64 10.64 0 0 0-7.837-8.113l-4.715-1.179v-.888a1.07 1.07 0 0 1 .691-1l1.092-.409a10.435 10.435 0 0 0 6.74-9.726v-1.062h1.065a5.327 5.327 0 1 0 0-10.654h-1.169A12.27 12.27 0 0 0 28.232 4.261h-3.2a12.27 12.27 0 0 0-12.144 10.654h-1.169a5.327 5.327 0 1 0 0 10.654h1.065v1.065a10.435 10.435 0 0 0 6.74 9.726l1.092.409a1.07 1.07 0 0 1 .691 1v.888l-4.715 1.179a10.64 10.64 0 0 0-8.07 10.335v3.1h-2.13v8.523h8.523v-8.526h-4.261v-3.1a8.51 8.51 0 0 1 6.455-8.268l6.328-1.582v-2.551a3.21 3.21 0 0 0-2.074-2.992l-1.092-.409a8.3 8.3 0 0 1-5.357-7.731V16.513A10.13 10.13 0 0 1 25.036 6.392h3.2a10.13 10.13 0 0 1 10.117 10.121v10.121A8.3 8.3 0 0 1 33 34.365l-1.091.409a3.21 3.21 0 0 0-2.074 2.992v2.551l6.323 1.583a8.51 8.51 0 0 1 6.456 8.268v3.1h-4.261v8.523H45.3a11.8 11.8 0 0 0 2.3 2.131ZM42.663 55.4a11.6 11.6 0 0 0 1.237 4.26h-3.416V55.4Zm-2.18-38.353h1.065a3.2 3.2 0 1 1 0 6.392h-1.064Zm-27.7 6.392h-1.064a3.2 3.2 0 1 1 0-6.392h1.065Zm0 31.961v4.26h-4.26V55.4Zm41.549 8.523a9.588 9.588 0 1 1 9.588-9.588 9.6 9.6 0 0 1-9.587 9.586Z"/><circle cx="1" cy="1" r="1" transform="translate(53.531 47.052)"/><path d="M53.268 51.137h2.131v10.654h-2.131Z"/></g></g></svg>