<svg xmlns="http://www.w3.org/2000/svg" width="124" height="124" viewBox="0 0 124 124"><g transform="translate(-4119.042 8252.875)"><circle cx="62" cy="62" r="62" fill="#fff" transform="translate(4119.042 -8252.875)"/><g transform="translate(4155.474 -8221.771)"><path fill="#e0e0e2" d="M37.287 11.719V1.065H5.326a4.26 4.26 0 0 0-4.261 4.261v53.268a4.26 4.26 0 0 0 4.261 4.261H45.81a4.26 4.26 0 0 0 4.261-4.261V13.849H39.418a2.13 2.13 0 0 1-2.131-2.13M5.326 7.457a2.13 2.13 0 0 1 2.131-2.131 2.13 2.13 0 0 0-2.131 2.131m36.223 26.634v20.242a2.13 2.13 0 0 1-2.131 2.132h-27.7a2.13 2.13 0 0 1-2.131-2.131V34.091a2.13 2.13 0 0 1 2.132-2.126h2.131v-6.4a8.523 8.523 0 0 1 8.523-8.523h6.392a8.523 8.523 0 0 1 8.522 8.523v6.4h2.131a2.13 2.13 0 0 1 2.131 2.126m0 0"/><path fill="#c6c5ca" d="M37.288 11.719a2.13 2.13 0 0 0 2.131 2.131h10.654L37.288 1.065Zm0 0"/><path fill="#ffcd00" d="M37.288 31.961H11.719a2.13 2.13 0 0 0-2.131 2.131v20.242a2.13 2.13 0 0 0 2.131 2.131h27.7a2.13 2.13 0 0 0 2.131-2.131V34.092a2.13 2.13 0 0 0-2.132-2.131ZM27.7 44.17v5.9a2.131 2.131 0 1 1-4.261 0v-5.9a4.262 4.262 0 1 1 4.261 0m0 0"/><path fill="#acabb1" d="M18.111 25.569a4.26 4.26 0 0 1 4.261-4.261h6.392a4.26 4.26 0 0 1 4.261 4.261v6.392h4.261v-6.392a8.523 8.523 0 0 0-8.521-8.523h-6.392a8.523 8.523 0 0 0-8.523 8.523v6.392h4.261Zm0 0"/><path fill="#e0e0e2" d="M28.765 21.307h-6.392a4.26 4.26 0 0 0-4.262 4.261v6.392h14.915v-6.392a4.26 4.26 0 0 0-4.261-4.261m0 0"/><path fill="#f1f2f2" d="M26.615 36.347a4.261 4.261 0 0 0-3.176 7.822v5.9a2.131 2.131 0 1 0 4.261 0v-5.9a4.26 4.26 0 0 0 2-4.761 4.21 4.21 0 0 0-3.084-3.062Zm0 0"/><g fill="#231f20"><path d="M51.124 13.784a1 1 0 0 0-.055-.276c-.012-.034-.02-.066-.035-.1a1.1 1.1 0 0 0-.213-.312L38.036.312A1.1 1.1 0 0 0 37.724.1c-.032-.015-.065-.023-.1-.035a1 1 0 0 0-.28-.056C37.329.012 37.31 0 37.287 0H5.326A5.333 5.333 0 0 0 0 5.327v53.268a5.333 5.333 0 0 0 5.327 5.327H45.81a5.333 5.333 0 0 0 5.327-5.327V13.85c0-.023-.012-.043-.013-.066m-3.624-1h-8.082a1.065 1.065 0 0 1-1.065-1.065V3.637Zm-1.69 49.007H5.326a3.2 3.2 0 0 1-3.2-3.2V5.327a3.2 3.2 0 0 1 3.2-3.2h30.9v9.588a3.2 3.2 0 0 0 3.2 3.2h9.588v43.68a3.2 3.2 0 0 1-3.204 3.196m0 0"/><path d="M39.423 30.895h-1.07v-5.327a9.6 9.6 0 0 0-9.588-9.588h-6.392a9.6 9.6 0 0 0-9.588 9.588v5.327h-1.062a3.2 3.2 0 0 0-3.2 3.2v20.242a3.2 3.2 0 0 0 3.2 3.2h27.7a3.2 3.2 0 0 0 3.2-3.2V34.091a3.2 3.2 0 0 0-3.2-3.196m-24.5-5.327a7.467 7.467 0 0 1 7.457-7.457h6.392a7.467 7.467 0 0 1 7.457 7.457v5.327h-2.137v-5.327a5.333 5.333 0 0 0-5.327-5.327h-6.392a5.333 5.333 0 0 0-5.327 5.327v5.327h-2.131Zm17.046 5.327H19.177v-5.327a3.2 3.2 0 0 1 3.2-3.2h6.392a3.2 3.2 0 0 1 3.2 3.2Zm8.523 23.438a1.065 1.065 0 0 1-1.065 1.065H11.723a1.065 1.065 0 0 1-1.065-1.065V34.091a1.065 1.065 0 0 1 1.065-1.065h27.7a1.065 1.065 0 0 1 1.065 1.065Zm0 0"/><path d="M26.862 35.311a5.329 5.329 0 0 0-4.489 9.434v5.327a3.2 3.2 0 1 0 6.392 0v-5.327a5.34 5.34 0 0 0 1.97-5.585 5.26 5.26 0 0 0-3.873-3.849m.307 7.935a1.07 1.07 0 0 0-.533.924v5.9a1.066 1.066 0 0 1-2.131 0v-5.9a1.07 1.07 0 0 0-.533-.924 3.2 3.2 0 0 1-.38-5.271 3.14 3.14 0 0 1 1.969-.687 3.5 3.5 0 0 1 .808.1 3.16 3.16 0 0 1 2.294 2.277 3.214 3.214 0 0 1-1.5 3.585ZM14.915 5.326a1.065 1.065 0 0 0-1.066-1.065H7.461a3.2 3.2 0 0 0-3.2 3.2v6.392a1.066 1.066 0 0 0 2.131 0V7.461a1.065 1.065 0 0 1 1.069-1.069h6.392a1.065 1.065 0 0 0 1.062-1.066m0 0"/></g></g></g></svg>