<svg xmlns="http://www.w3.org/2000/svg" width="124" height="124" viewBox="0 0 124 124"><defs><path id="a" d="M57.663 21.182h-9.415a3.53 3.53 0 0 1-3.53-3.53V8.237a1.177 1.177 0 0 1 2.009-.833l11.768 11.768a1.177 1.177 0 0 1-.833 2.009Zm-10.591-10.1v6.574a1.177 1.177 0 0 0 1.177 1.177h6.569Z"/></defs><g transform="translate(-1092.515 -4456.125)"><circle cx="62" cy="62" r="62" fill="#fff" transform="translate(1092.515 4456.125)"/><g transform="translate(1117.703 4483.009)"><rect width="45" height="59" fill="#c1d1f7" rx="16" transform="translate(1.312 1)"/><path fill="#adbeee" d="M43.542 56.486H3.531a2.354 2.354 0 0 1-2.354-2.354v3.53a2.354 2.354 0 0 0 2.354 2.354h40.011a2.354 2.354 0 0 0 2.354-2.354v-3.53a2.354 2.354 0 0 1-2.354 2.354"/><path d="M43.541 61.193h-30.6a1.177 1.177 0 0 1 0-2.354h30.6a1.177 1.177 0 0 0 1.177-1.177V3.53a1.177 1.177 0 0 0-1.177-1.177H3.53A1.177 1.177 0 0 0 2.354 3.53v54.133A1.177 1.177 0 0 0 3.53 58.84h4.708a1.177 1.177 0 0 1 0 2.354H3.53A3.53 3.53 0 0 1 0 57.663V3.53A3.53 3.53 0 0 1 3.53 0h40.011a3.53 3.53 0 0 1 3.53 3.53v54.133a3.53 3.53 0 0 1-3.53 3.53"/><path fill="#eaf2ff" d="M57.663 20.006v44.718a2.354 2.354 0 0 1-2.354 2.354h-40.01a2.354 2.354 0 0 1-2.354-2.354V10.592a2.354 2.354 0 0 1 2.354-2.354h30.6Z"/><path fill="#c1d1f7" d="M55.31 63.547H15.299a2.354 2.354 0 0 1-2.354-2.354v3.53a2.354 2.354 0 0 0 2.354 2.354H55.31a2.354 2.354 0 0 0 2.354-2.354v-3.53a2.354 2.354 0 0 1-2.354 2.354"/><path d="M55.309 68.254H15.298a3.53 3.53 0 0 1-3.53-3.53V10.591a3.53 3.53 0 0 1 3.53-3.53h30.6a1.18 1.18 0 0 1 .833.344l11.768 11.768a1.18 1.18 0 0 1 .344.833v4.707a1.177 1.177 0 1 1-2.354 0v-4.22L45.408 9.415h-30.11a1.177 1.177 0 0 0-1.177 1.177v54.132a1.177 1.177 0 0 0 1.177 1.177h40.011a1.177 1.177 0 0 0 1.177-1.177v-32.95a1.177 1.177 0 1 1 2.354 0v32.95a3.53 3.53 0 0 1-3.531 3.53"/><use href="#a"/><path fill="#c1d1f7" d="M57.663 20.006h-9.414a2.354 2.354 0 0 1-2.354-2.354V8.238Z"/><use href="#a"/><path fill="#e38343" d="M20.005 15.298h18.829v4.707H20.005Z"/><path d="M38.834 21.183H20.006a1.177 1.177 0 0 1-1.177-1.177v-4.707a1.177 1.177 0 0 1 1.177-1.177h18.829a1.177 1.177 0 0 1 1.177 1.177v4.707a1.177 1.177 0 0 1-1.178 1.177m-17.652-2.354h16.475v-2.354H21.183Z"/><path fill="#b1da7a" d="M20.005 25.889h7.061v7.061h-7.061Z"/><path d="M27.067 34.127h-7.061a1.177 1.177 0 0 1-1.177-1.176V25.89a1.177 1.177 0 0 1 1.177-1.177h7.061a1.177 1.177 0 0 1 1.177 1.177v7.061a1.177 1.177 0 0 1-1.177 1.176m-5.884-2.354h4.707v-4.707h-4.707Zm24.714-4.706H31.774a1.177 1.177 0 0 1 0-2.354h14.123a1.177 1.177 0 1 1 0 2.354m0 4.707H31.774a1.177 1.177 0 0 1 0-2.354h14.123a1.177 1.177 0 1 1 0 2.354"/><path fill="#b1da7a" d="M20.005 38.834h7.061v7.061h-7.061Z"/><path d="M27.067 47.071h-7.061a1.177 1.177 0 0 1-1.177-1.176v-7.061a1.177 1.177 0 0 1 1.177-1.177h7.061a1.177 1.177 0 0 1 1.177 1.177v7.061a1.177 1.177 0 0 1-1.177 1.176m-5.884-2.354h4.707V40.01h-4.707Zm24.714-4.706H31.774a1.177 1.177 0 1 1 0-2.354h14.123a1.177 1.177 0 1 1 0 2.354m0 4.708H31.774a1.177 1.177 0 0 1 0-2.354h14.123a1.177 1.177 0 0 1 0 2.354"/><path fill="#b1da7a" d="M20.005 51.779h7.061v7.061h-7.061Z"/><path d="M27.067 60.016h-7.061a1.177 1.177 0 0 1-1.177-1.176v-7.061a1.177 1.177 0 0 1 1.177-1.177h7.061a1.177 1.177 0 0 1 1.177 1.177v7.061a1.177 1.177 0 0 1-1.177 1.176m-5.884-2.354h4.707v-4.707h-4.707Zm24.714-4.706H31.774a1.177 1.177 0 1 1 0-2.354h14.123a1.177 1.177 0 1 1 0 2.354m0 4.707H31.774a1.177 1.177 0 1 1 0-2.354h14.123a1.177 1.177 0 1 1 0 2.354"/><path fill="#e38343" d="m62.37 50.602-4.707 4.707 10.793 10.793a3.329 3.329 0 1 0 4.707-4.707Z"/><path fill="#df6117" d="M70.809 63.749 60.017 52.956l-2.354 2.354 10.793 10.793a3.332 3.332 0 0 0 5.569-1.492 3.33 3.33 0 0 1-3.216-.862"/><path d="M70.809 68.256a4.47 4.47 0 0 1-3.185-1.324L56.83 56.139a1.177 1.177 0 0 1 0-1.665l4.707-4.707a1.177 1.177 0 0 1 1.665 0l10.788 10.8a4.5 4.5 0 0 1-3.182 7.69ZM59.326 55.311l9.957 9.962a2.155 2.155 0 1 0 3.048-3.048l-9.962-9.957Z"/><circle cx="15.5" cy="15.5" r="15.5" fill="#596060" transform="translate(35.312 28)"/><path fill="#4c5657" d="M50.606 55.309a15.3 15.3 0 0 1-15.2-13.529 15.3 15.3 0 1 0 30.394 0 15.3 15.3 0 0 1-15.194 13.529"/><path d="M50.602 60.016a16.475 16.475 0 1 1 16.475-16.475 16.475 16.475 0 0 1-16.475 16.475m0-30.6a14.122 14.122 0 1 0 14.125 14.125A14.12 14.12 0 0 0 50.602 29.42Z"/><circle cx="10.5" cy="10.5" r="10.5" fill="#b1da7a" transform="translate(40.312 33)"/><path fill="#96bf5b" d="M50.602 36.481a10.59 10.59 0 0 1 10.444 8.827 10.591 10.591 0 1 0-20.888 0 10.59 10.59 0 0 1 10.444-8.826Z"/><path d="M50.602 55.309A11.768 11.768 0 1 1 62.37 43.541a11.77 11.77 0 0 1-11.768 11.768m0-21.182a9.414 9.414 0 1 0 9.414 9.414 9.414 9.414 0 0 0-9.414-9.414"/><path d="m49.77 47.905-3.53-3.53a1.177 1.177 0 0 1 1.665-1.665l2.7 2.7 5.051-5.053a1.177 1.177 0 0 1 1.665 1.665l-5.884 5.884a1.177 1.177 0 0 1-1.665 0Z"/></g></g></svg>