<svg xmlns="http://www.w3.org/2000/svg" width="116.206" height="116.473" viewBox="0 0 116.206 116.473"><g transform="translate(1.711 1.712)"><path fill="#cc8b66" d="m112.788 22.292-8.595 8.615a14.35 14.35 0 0 1-2.923 16.019l-11.1 11.122-.166.166-.008-.008a5.343 5.343 0 0 1-7.4-.158l-1.211-1.213-2.964 2.971a5.363 5.363 0 0 1-7.575-7.593 5.363 5.363 0 1 1-7.575-7.593 5.363 5.363 0 1 1-7.575-7.593l.176-.176a5.363 5.363 0 0 1-7.575-7.593l3.446-3.454.166-.166 14.06-14.093a14.27 14.27 0 0 1 15.982-2.93L90.546 0Z"/><g transform="translate(0 25.976)"><path fill="#ffcab9" d="m22.241 87.073 8.595-8.615a14.27 14.27 0 0 0 15.982-2.93l11.1-11.122.166-.166-.008-.008a5.373 5.373 0 0 0-.157-7.418l-1.211-1.213 2.964-2.971a5.363 5.363 0 0 0-7.575-7.593 5.363 5.363 0 0 0-7.575-7.593 5.363 5.363 0 0 0-7.575-7.593l-.176.176a5.363 5.363 0 0 0-7.575-7.593l-3.446 3.454-.166.166-14.06 14.093a14.35 14.35 0 0 0-2.93 16.019L-.001 64.78Z"/><path fill="#fabba7" d="M59.802 45.178a5.35 5.35 0 0 0-7.711-.14 5.363 5.363 0 0 0-7.575-7.593 5.38 5.38 0 0 0-.141-7.729 5.433 5.433 0 0 0-7.524.227l-.086.086a5.38 5.38 0 0 0-.141-7.729 5.433 5.433 0 0 0-7.524.226l-3.3 3.3a5.35 5.35 0 0 1 6.234.979 5.4 5.4 0 0 1 1.449 4.235 1.583 1.583 0 0 0 1.8 1.656 5.34 5.34 0 0 1 4.5 1.525 5.9 5.9 0 0 1 1.642 4.563 1.575 1.575 0 0 0 1.805 1.646 4.8 4.8 0 0 1 4.128 1.383 6.3 6.3 0 0 1 1.652 4.62 1.6 1.6 0 0 0 1.859 1.686 4.29 4.29 0 0 1 4.32 1.57 5.62 5.62 0 0 1-.446 7.5l-2.774 2.78 1.211 1.213a5.5 5.5 0 0 1 .449 7.508l4.277-4.287.166-.166-.008-.008a5.374 5.374 0 0 0-.157-7.419l-1.211-1.213 2.872-2.879a5.46 5.46 0 0 0 .234-7.54"/><path fill="#bf7950" d="M70.965 33.997a5.35 5.35 0 0 1-.14-7.711 5.363 5.363 0 0 1-7.593-7.575 5.38 5.38 0 0 1-7.729-.141 5.433 5.433 0 0 1 .227-7.524l.086-.086a5.38 5.38 0 0 1-7.729-.141 5.433 5.433 0 0 1 .226-7.524l3.3-3.3a5.35 5.35 0 0 0 .979 6.234 5.4 5.4 0 0 0 4.235 1.449 1.583 1.583 0 0 1 1.656 1.8 5.34 5.34 0 0 0 1.525 4.5 5.9 5.9 0 0 0 4.563 1.642 1.575 1.575 0 0 1 1.646 1.805 4.8 4.8 0 0 0 1.383 4.128 6.3 6.3 0 0 0 4.62 1.652 1.6 1.6 0 0 1 1.686 1.859 4.29 4.29 0 0 0 1.57 4.32 5.62 5.62 0 0 0 7.5-.446l2.78-2.774 1.213 1.211a5.5 5.5 0 0 0 7.508.449l-4.287 4.277-.166.166-.008-.008a5.374 5.374 0 0 1-7.419-.157l-1.213-1.211-2.879 2.872a5.46 5.46 0 0 1-7.545.227Z"/></g></g><path d="m92.927 61.129 5.3-5.309a1.707 1.707 0 0 0-2.415-2.41l-5.155 5.167a3.86 3.86 0 0 1-5.144-.033l7.188-7.2a1.707 1.707 0 0 0-2.415-2.41l-11.354 11.38a3.657 3.657 0 0 1-5.16-5.182l1.844-1.848a1.707 1.707 0 0 0-2.415-2.41l-1.844 1.848a3.657 3.657 0 1 1-5.16-5.183l1.843-1.847a1.707 1.707 0 0 0-2.415-2.41l-1.842 1.847a3.74 3.74 0 0 1-5.161 0c-1.631-1.635-1.1-3.766.176-5.359l1.668-1.672a1.707 1.707 0 0 0-2.415-2.41l-1.666 1.67a3.72 3.72 0 0 1-5.161 0 3.675 3.675 0 0 1 0-5.183l17.672-17.713a12.63 12.63 0 0 1 14.072-2.58 1.705 1.705 0 0 0 1.91-.35l8.595-8.615A1.71 1.71 0 0 0 91.051.501l-7.8 7.813a16.07 16.07 0 0 0-16.778 3.736L48.802 29.763a7.093 7.093 0 0 0 5.371 12.067 7.1 7.1 0 0 0 7.561 7.759 7.065 7.065 0 0 0 7.575 7.593 7.07 7.07 0 0 0 2.043 5.539 7.157 7.157 0 0 0 9.991 0l1.756-1.76a7.1 7.1 0 0 0 9.828.169Zm22.777-38.333a1.706 1.706 0 0 0-2.412 0l-8.595 8.615a1.71 1.71 0 0 0-.348 1.9 12.71 12.71 0 0 1-2.575 14.114 1.707 1.707 0 0 0 2.415 2.41 16.15 16.15 0 0 0 3.719-16.817l7.8-7.816a1.706 1.706 0 0 0-.004-2.406M13.796 64.851l-1.775 1.779a16.15 16.15 0 0 0-3.719 16.817l-7.8 7.817a1.707 1.707 0 0 0 2.415 2.41l8.595-8.615a1.71 1.71 0 0 0 .348-1.9 12.71 12.71 0 0 1 2.575-14.114l1.775-1.779a1.707 1.707 0 0 0-2.415-2.41Zm48.789 16.671a7.075 7.075 0 0 0-5.534-12.054 7.064 7.064 0 0 0-7.575-7.593 7.065 7.065 0 0 0-7.741-7.579 7.07 7.07 0 0 0-2.054-5.377 7.157 7.157 0 0 0-9.991 0l-9.783 9.805a1.707 1.707 0 0 0 2.415 2.41l9.782-9.8a3.657 3.657 0 0 1 5.16 5.182l-1.668 1.672a1.707 1.707 0 0 0 2.415 2.41l1.668-1.672a3.733 3.733 0 0 1 5.336-.176 3.675 3.675 0 0 1 0 5.183l-1.844 1.848a1.707 1.707 0 0 0 2.415 2.41l1.842-1.847a3.74 3.74 0 0 1 5.161 0 3.675 3.675 0 0 1 0 5.183l-1.843 1.847a1.707 1.707 0 0 0 2.415 2.41l1.844-1.848a3.657 3.657 0 1 1 5.16 5.183l-2.964 2.971-8.39 8.409a1.707 1.707 0 0 0 2.415 2.41l7.182-7.2a3.88 3.88 0 0 1 .027 5.162l-11.12 11.146a12.63 12.63 0 0 1-14.072 2.58 1.71 1.71 0 0 0-1.91.35l-8.595 8.615a1.707 1.707 0 0 0 2.415 2.41l7.8-7.813a16.07 16.07 0 0 0 16.781-3.731l11.268-11.294c3.007-3.011 1.741-7.067-.059-9.96ZM21.631 24.24a1.707 1.707 0 0 0 2.433-2.393L13.248 10.856a1.707 1.707 0 0 0-2.432 2.393Zm9.939 9.94a1.707 1.707 0 0 0 2.477-2.347l-3.169-3.353a1.707 1.707 0 0 0-2.477 2.347Zm-14.832 9.084L4.517 39.883a1.707 1.707 0 0 0-.91 3.288l12.222 3.381c2.05.567 3.013-2.706.909-3.288M43.79 17.82a1.707 1.707 0 0 0 3.3-.856L43.911 4.689a1.707 1.707 0 0 0-3.3.856Zm47.879 71.761a1.707 1.707 0 0 0-2.432 2.393l10.815 10.991a1.707 1.707 0 0 0 2.432-2.393Zm-9.94-9.939a1.707 1.707 0 0 0-2.477 2.347l3.172 3.349a1.707 1.707 0 0 0 2.477-2.347Zm27.964-8.992-12.219-3.378a1.707 1.707 0 0 0-.91 3.288l12.222 3.381c2.048.564 3.012-2.709.907-3.291M69.509 96.002a1.707 1.707 0 0 0-3.3.856l3.183 12.275a1.707 1.707 0 0 0 3.3-.856Z"/></svg>