<svg xmlns="http://www.w3.org/2000/svg" width="124" height="124" viewBox="0 0 124 124"><g transform="translate(-388.841 -4456.125)"><circle cx="62" cy="62" r="62" fill="#fff" transform="translate(388.841 4456.125)"/><g transform="translate(402.015 4473.125)"><path fill="#ffa426" d="m73.606 74.424 1.173 4.577c-3.708 4.33-9.139 6.546-15.192 6.546s-11.485-2.216-15.192-6.546l1.172-4.577c2.421-9.446.2-18.986-1.144-28.4a48 48 0 0 1-.536-5.33 13 13 0 0 1 .1-1.68l3.751 1.13a.728.728 0 0 0 .84-1.057l-3.041-5.489a15.7 15.7 0 0 1 8.415-7.821 15.54 15.54 0 0 1 11.268 0 15.985 15.985 0 0 1 10.066 14.921 48 48 0 0 1-.536 5.33c-1.382 9.483-3.589 18.893-1.144 28.4Z"/><path fill="#333940" d="M79.858 63.451c0 6.677-1.926 11.876-5.083 15.555l-1.173-4.577c-2.216-8.617-.985-15.193.869-26.619.072-.463.174-1.086.275-1.781a30.96 30.96 0 0 1 5.112 17.422"/><g transform="translate(44.394 47.433)"><path fill="#f2860f" d="M30.385 31.575c-3.708 4.33-9.139 6.546-15.192 6.546S3.708 35.903 0 31.575l.087-.348A20.5 20.5 0 0 0 11.572 34.5c6.054 0 11.485-2.216 15.192-6.546a19 19 0 0 0 2.013-2.9c.014.014.014.014.014.029.029.232.087.463.13.7.087.406.188.811.29 1.217Z"/><path fill="#ffa426" d="M30.139 0c-.058.434-.116.869-.188 1.3 0-.014-.014-.029-.014-.043.043-.29.1-.579.145-.883.014-.116.029-.246.058-.377Z"/></g><path fill="#23272b" d="M73.171 72.546a3 3 0 0 0 .072.319c.212.849.4 1.7.616 2.553l.631 2.46.289 1.128c3.157-3.679 5.083-8.878 5.083-15.555a30.96 30.96 0 0 0-5.112-17.423c-.043.348-.1.681-.145.97-.014.145-.043.29-.072.434s-.043.261-.058.377c-.043.3-.1.594-.145.883 0 .014.014.029.014.043a32.7 32.7 0 0 1 1.9 11.094 25.36 25.36 0 0 1-3.07 12.716Z"/><path fill="#333940" d="m45.567 74.429-1.173 4.577c-3.158-3.679-5.084-8.879-5.084-15.555a30.96 30.96 0 0 1 5.112-17.423c.1.7.2 1.318.275 1.781 1.854 11.427 3.085 18 .869 26.619Zm27.619-1.911c0 .014 0 .014-.015.014a4 4 0 0 1-.072-.42 3 3 0 0 0 .087.406M62.483 39.21v11.583a2.9 2.9 0 1 1-5.793 0V39.21a2.9 2.9 0 1 1 5.793 0"/><path fill="#f7f7ff" d="m47.739 40.148-3.751-1.13-7.4-2.216a11.2 11.2 0 0 0-3.317-.492h-20.03a5.79 5.79 0 0 1-5.793-5.793V10.241a5.79 5.79 0 0 1 5.793-5.793h23.173a5.79 5.79 0 0 1 5.793 5.793v14.382a11.6 11.6 0 0 0 1.463 5.619l1.868 3.36 3.041 5.489a.728.728 0 0 1-.84 1.057"/><path fill="#f2860f" d="m52.084 44.495-3.751-1.13-4.374-1.32a18 18 0 0 1-.072-1.347 13 13 0 0 1 .1-1.68l3.751 1.13a.728.728 0 0 0 .84-1.057l-3.041-5.489a14.4 14.4 0 0 1 1.29-2.187 11.5 11.5 0 0 0 1.188 3.172l1.868 3.36 3.044 5.489a.728.728 0 0 1-.84 1.057Z"/><path fill="#dadaea" d="m48.58 39.091-3.041-5.489-1.868-3.36a11.6 11.6 0 0 1-1.463-5.619V10.242a5.785 5.785 0 0 0-4.5-5.637 5.8 5.8 0 0 1 .154 1.292v14.381a11.6 11.6 0 0 0 1.463 5.619l1.868 3.36 3.041 5.489a.728.728 0 0 1-.84 1.057l-3.751-1.13-7.4-2.216a11.2 11.2 0 0 0-3.317-.492H8.897a5.8 5.8 0 0 1-1.292-.156 5.785 5.785 0 0 0 5.637 4.5h20.03a11.2 11.2 0 0 1 3.317.492l7.4 2.216 3.751 1.13a.728.728 0 0 0 .84-1.057Z"/><path fill="#00d5f6" d="m34.893 17.946-1.94 5.788a1.44 1.44 0 0 1-1.361.985h-8.5a1.44 1.44 0 0 1-1.4-1.13l-1.687-7.555h13.512a1.458 1.458 0 0 1 1.376 1.912"/><path fill="#00b7e0" d="M33.517 16.034h-1.85l-1.611 4.808a1.44 1.44 0 0 1-1.361.985h-7.4l.393 1.767a1.44 1.44 0 0 0 1.4 1.13h8.5a1.44 1.44 0 0 0 1.361-.985l1.941-5.793a1.458 1.458 0 0 0-1.373-1.912"/><g transform="translate(6 3)"><path d="M74.482 52.815a1.45 1.45 0 0 0-2.831.616 33 33 0 0 1 .764 7.02 23.7 23.7 0 0 1-3.009 12.164l-.4-1.548c-2.36-9.2-.14-18.655 1.175-27.833a51 51 0 0 0 .55-5.536 17.54 17.54 0 0 0-10.985-16.266 16.92 16.92 0 0 0-12.315 0 16.7 16.7 0 0 0-5.026 3.059 1.449 1.449 0 0 0 1.915 2.174 13.8 13.8 0 0 1 4.16-2.533 14 14 0 0 1 3.659-.87v8.868a4.34 4.34 0 0 0-2.9 4.078v11.585a4.345 4.345 0 1 0 8.69 0V36.207a4.34 4.34 0 0 0-2.9-4.078V23.26a14 14 0 0 1 3.657.869 14.62 14.62 0 0 1 9.145 13.568 45 45 0 0 1-.52 5.122c-1.389 9.58-3.588 19.366-1.114 28.968l.974 3.8a18.24 18.24 0 0 1-13.59 5.518 20 20 0 0 1-7.957-1.562 1.449 1.449 0 0 0-1.145 2.661 22.9 22.9 0 0 0 9.1 1.8 20.97 20.97 0 0 0 16.297-7.055c3.554-4.142 5.432-9.847 5.432-16.5a36 36 0 0 0-.829-7.636Zm-19.447-5.022a1.45 1.45 0 1 1-2.9 0V36.207a1.45 1.45 0 0 1 2.9 0Z"/><path d="M55.038 59.38v-2.9a1.45 1.45 0 0 0-2.9 0v2.9a1.45 1.45 0 0 0 2.9 0M17.094 20.276 14.701 9.51a2.88 2.88 0 0 0-2.827-2.269H8.69a1.45 1.45 0 0 0 0 2.9h3.182l2.393 10.766a2.88 2.88 0 0 0 2.827 2.269h8.493a2.89 2.89 0 0 0 2.747-1.98l1.933-5.794a2.93 2.93 0 0 0-2.749-3.812h-7.24a1.45 1.45 0 0 0 0 2.9h7.241l-1.932 5.793Z"/><ellipse cx="2.5" cy="2" rx="2.5" ry="2" transform="translate(14 25)"/><ellipse cx="2.5" cy="2" rx="2.5" ry="2" transform="translate(23 25)"/><path d="M41.952 38.628a2.2 2.2 0 0 0 1.894-3.24l-4.911-8.849a10.2 10.2 0 0 1-1.28-4.916V7.241A7.25 7.25 0 0 0 30.414 0H7.241A7.25 7.25 0 0 0 0 7.241v14.483a1.45 1.45 0 0 0 2.9 0V7.241A4.35 4.35 0 0 1 7.241 2.9h23.173a4.35 4.35 0 0 1 4.345 4.345v14.378a13.06 13.06 0 0 0 1.641 6.322l4.055 7.306-9.441-2.832a12.6 12.6 0 0 0-3.747-.557H7.241A4.35 4.35 0 0 1 2.9 27.518a1.45 1.45 0 0 0-2.9 0 7.25 7.25 0 0 0 7.241 7.241h20.03a9.7 9.7 0 0 1 2.9.431l6.3 1.89a30 30 0 0 0 .442 5.633 32.66 32.66 0 0 0-5.052 17.739c0 6.755 2.073 13.876 7.339 18.419a1.44 1.44 0 0 0 .945.351 1.46 1.46 0 0 0 .944-2.546 15 15 0 0 1-1.1-1.071l.979-3.815c2.148-8.357.827-16.656-.451-24.682a382 382 0 0 1-.75-4.889 33 33 0 0 1-.428-4.279l1.979.594a2.2 2.2 0 0 0 .631.094Zm-4.327 8.712.035.224c1.287 8.089 2.5 15.73.5 23.506l-.4 1.547a23.7 23.7 0 0 1-3.009-12.164 30.7 30.7 0 0 1 2.874-13.113"/></g></g></g></svg>