<svg xmlns="http://www.w3.org/2000/svg" width="124" height="124" viewBox="0 0 124 124"><g transform="translate(-1101 -4678.392)"><circle cx="62" cy="62" r="62" fill="#fff" transform="translate(1101 4678.392)"/><g transform="translate(1132.813 4705)"><path fill="#d7e6eb" d="M9.625 1.203h37.3v7.219h-37.3Z"/><path fill="#ccdce4" d="m14.438 1.203 4.813 4.812h13.234l-4.813-4.812Z"/><path fill="#b4c2c9" d="m6.016 1.203 4.813 4.812h13.234L19.25 1.203Z"/><path fill="#ecae49" d="M1.203 66.172V1.203h8.422l4.813 4.812h32.484v60.157Z"/><path fill="#ccdce4" d="m7.69 21.771 35.126-8.303 11.348 48.005-35.126 8.303Z"/><path fill="#7a8a9a" d="m14.928 26.24 23.418-5.536 2.214 9.367-23.418 5.536Z"/><ellipse cx="17" cy="16.5" fill="#0093ba" rx="17" ry="16.5" transform="translate(36.707 14)"/><path fill="#ecae49" d="M56.547 50.531v18.047a2.406 2.406 0 0 1-4.812 0V50.531Z"/><path fill="#d7a145" d="M51.734 50.531h4.813v3.609h-4.813Z"/><rect width="11" height="5" fill="#d08b29" rx="2.5" transform="translate(48.707 47)"/><ellipse cx="11.5" cy="12.5" fill="#7fcbe5" rx="11.5" ry="12.5" transform="translate(42.707 18)"/><path fill="#d08b29" d="M51.734 66.172h4.813v2.406a2.406 2.406 0 0 1-4.812 0Z"/><path d="M54.14 16.844a13.234 13.234 0 1 0 13.234 13.234A13.234 13.234 0 0 0 54.14 16.844m0 24.062a10.828 10.828 0 1 1 10.828-10.828A10.83 10.83 0 0 1 54.14 40.906"/><path d="M72.187 30.078a18.047 18.047 0 1 0-23.439 17.224 3.606 3.606 0 0 0 1.782 5.428v15.848a3.61 3.61 0 0 0 7.219 0v-15.85a3.606 3.606 0 0 0 1.782-5.429 18.08 18.08 0 0 0 12.656-17.221M55.343 52.937v12.031h-2.406V52.937Zm-1.2 16.844a1.2 1.2 0 0 1-1.2-1.2v-1.2h2.406v1.2a1.2 1.2 0 0 1-1.209 1.2Zm2.406-21.656a1.203 1.203 0 0 1 0 2.406h-4.812a1.203 1.203 0 0 1 0-2.406Zm-2.406-2.406a15.641 15.641 0 1 1 15.641-15.641 15.64 15.64 0 0 1-15.644 15.64Z"/><path d="M2.406 2.406h6.721l4.46 4.46a1.2 1.2 0 0 0 .851.352h31.281v3.609h2.406V1.2a1.2 1.2 0 0 0-1.2-1.2H1.2A1.2 1.2 0 0 0 0 1.2v64.972a1.2 1.2 0 0 0 1.2 1.2h13.238v-2.403H2.406Zm10.123 0h6.222l2.406 2.406h-6.221Zm9.625 0h5.019l2.406 2.406h-5.018Zm23.564 2.406H32.983l-2.406-2.406h15.142Z"/><path d="M19.931 68.334 9.139 22.67l33.956-8.024-.556-2.342-35.126 8.3a1.2 1.2 0 0 0-.894 1.448l11.344 48.006a1.2 1.2 0 0 0 1.448.894l29.088-6.874-.553-2.342Z"/><path d="m19.418 40.011 2.341-.553.554 2.341-2.342.553Zm4.682-1.105 10.51-2.485.554 2.342-10.51 2.484Zm-5.917 6.342 18.833-4.452.553 2.342-18.833 4.451Zm1.107 4.683 21.336-5.044.553 2.342-21.336 5.043Zm1.107 4.682 25.76-6.09.553 2.342-25.76 6.09Zm1.107 4.682 21.075-4.982.554 2.342-21.076 4.981Zm12.575-38.81-19.424 4.59a1.2 1.2 0 0 0-.894 1.448l2.213 9.367a1.2 1.2 0 0 0 1.448.894l16.543-3.909-.553-2.342-15.374 3.637-1.661-7.025 18.253-4.313Z"/></g></g></svg>