<svg xmlns="http://www.w3.org/2000/svg" width="124" height="124" viewBox="0 0 124 124"><g transform="translate(-1092.174 -1378.076)"><circle cx="62" cy="62" r="62" fill="#fff" transform="translate(1092.174 1378.076)"/><g transform="translate(7041.015 11750.208)"><path fill="#c7efbc" fill-rule="evenodd" d="M-5917.04-10307.453v22.075h13.247v-22.075a2.214 2.214 0 0 0-2.207-2.207h-8.83a2.214 2.214 0 0 0-2.21 2.207"/><path fill="#61748b" fill-rule="evenodd" d="M-5924.911-10285.378h73.141v4.415h-73.141Z"/><path fill="#faef93" d="M-5866.015-10351.532a8.256 8.256 0 0 1 8.256 8.256 8.35 8.35 0 0 1-3.664 6.862 8.04 8.04 0 0 1-4.593 1.394 8.256 8.256 0 0 1 .001-16.512"/><path fill="#8edf78" fill-rule="evenodd" d="M-5917.04-10307.453v22.075h13.247v-3.311h-9.934v-20.97h-1.1a2.214 2.214 0 0 0-2.213 2.206"/><path fill="#faef93" fill-rule="evenodd" d="M-5894.963-10316.283v30.9h13.245v-30.9a2.214 2.214 0 0 0-2.207-2.207h-8.83a2.214 2.214 0 0 0-2.208 2.207"/><path fill="#f6e23d" fill-rule="evenodd" d="M-5894.963-10316.283v30.9h13.245v-3.307h-9.934v-29.8h-1.1a2.214 2.214 0 0 0-2.211 2.207"/><path fill="#d15573" fill-rule="evenodd" d="M-5872.888-10325.113v39.734h13.245v-39.734a2.214 2.214 0 0 0-2.207-2.207h-8.83a2.214 2.214 0 0 0-2.208 2.207"/><path fill="#c21d44" fill-rule="evenodd" d="M-5872.888-10325.113v39.734h13.245v-3.311h-9.935v-38.63h-1.1a2.214 2.214 0 0 0-2.21 2.207"/><path fill="#536275" fill-rule="evenodd" d="M-5924.911-10285.378h3.311v4.415h-3.311Z"/><path fill="#f6e23d" fill-rule="evenodd" d="M-5874.27-10343.275a8.26 8.26 0 0 0 9.495 8.164 8.257 8.257 0 0 1 0-16.328 8.26 8.26 0 0 0-9.495 8.164"/><path fill="#fff" d="M-5885.03-10312.972h-2.207v-2.207h2.207Zm22.075-4.415h-2.207v-2.208h2.207Zm0-4.415h-2.207v-2.207h2.207Z"/><path d="M-5858.54-10286.482v-38.631a3.315 3.315 0 0 0-3.311-3.312h-8.83a3.315 3.315 0 0 0-3.311 3.311v38.631h-6.623v-29.8a3.315 3.315 0 0 0-3.311-3.311h-8.83a3.315 3.315 0 0 0-3.311 3.311v29.8h-6.622v-20.97a3.315 3.315 0 0 0-3.311-3.311h-8.83a3.315 3.315 0 0 0-3.311 3.311v3.311h2.207v-3.311a1.1 1.1 0 0 1 1.1-1.1h8.83a1.1 1.1 0 0 1 1.1 1.1v20.971h-11.03v-15.453h-2.207v15.453h-7.874v6.622h63.207v-2.207h-61v-2.208h70.934v2.207h-3.312v2.207h5.519v-6.622Zm-13.245-38.631a1.1 1.1 0 0 1 1.1-1.1h8.83a1.1 1.1 0 0 1 1.1 1.1v38.631h-11.03Zm-22.075 8.83a1.1 1.1 0 0 1 1.1-1.1h8.83a1.1 1.1 0 0 1 1.1 1.1v29.8h-11.03Zm27.846-17.911a9.082 9.082 0 1 0-9.082-9.082 9.09 9.09 0 0 0 9.082 9.082m0-16.513a7.431 7.431 0 1 1-7.431 7.431 7.44 7.44 0 0 1 7.431-7.431"/></g></g></svg>