<svg xmlns="http://www.w3.org/2000/svg" width="124" height="124" viewBox="0 0 124 124"><g transform="translate(7287.348 7580.875)"><circle cx="62" cy="62" r="62" fill="#fff" transform="translate(-7287.348 -7580.875)"/><g transform="translate(-7260 -7553)"><g transform="translate(2.129 2.129)"><circle cx="3.5" cy="3.5" r="3.5" fill="#fcd770" transform="translate(9.87 -.129)"/><path fill="#e6e9ed" d="M27.1 15.806v18.065a2.265 2.265 0 0 1-2.258 2.258H2.258A2.265 2.265 0 0 1 0 33.871V15.806a2.265 2.265 0 0 1 2.258-2.258h22.581a2.265 2.265 0 0 1 2.261 2.258"/><path fill="#b4dd7f" d="M22.581 18.065v13.548h-4.516V18.065Zm-4.517 2.258v11.29h-4.516v-11.29Zm-4.516 2.258v9.032H9.032v-9.032Zm-9.032 2.258h4.516v6.774H4.516Z"/><path fill="#e6e9ed" d="M31.613 45.161v18.065a2.265 2.265 0 0 1-2.258 2.258H2.258A2.265 2.265 0 0 1 0 63.226V45.161a2.265 2.265 0 0 1 2.258-2.258h27.1a2.265 2.265 0 0 1 2.255 2.258"/><path fill="#fcd770" d="M4.516 47.419h9.032v9.032H4.516Z"/><path fill="#969faa" d="M54.193 47.984v15.242a4.516 4.516 0 0 1-9.032 0V47.984a18.35 18.35 0 0 0 9.032 0"/><circle cx="18" cy="18" r="18" fill="#fcd770" transform="translate(31.871 12.871)"/><circle cx="13.5" cy="13.5" r="13.5" fill="#69d6f4" transform="translate(35.871 16.871)"/><path fill="#d3a06c" d="M56.451 28.226H42.903a2.257 2.257 0 0 1-2.258-2.259V12.419a2.257 2.257 0 0 1 2.258-2.258h13.548a2.257 2.257 0 0 1 2.258 2.258v13.548a2.257 2.257 0 0 1-2.258 2.259"/><path fill="#b27946" d="M51.935 10.161v4.516h-4.516v-4.516z"/></g><g transform="translate(1 1)"><path d="M54.194 32.742h2.258V35h-2.258Zm-4.517 0h2.258V35h-2.258Zm9.033 0h2.258V35H58.71Zm-13.549 0h2.258V35h-2.258Zm-4.516 0h2.258V35h-2.258Z"/><path d="M70 31.613a19.25 19.25 0 0 0-9.032-16.254v-1.811a3.39 3.39 0 0 0-3.387-3.387h-5.646V6.774a3.39 3.39 0 0 0-3.387-3.387H19.033a4.507 4.507 0 1 0-5.485 5.485v4.676H3.387A3.39 3.39 0 0 0 0 16.935V35a3.39 3.39 0 0 0 3.387 3.387h10.161V42.9H3.387A3.39 3.39 0 0 0 0 46.29v18.065a3.39 3.39 0 0 0 3.387 3.387h27.1a3.39 3.39 0 0 0 3.387-3.387V46.29a3.39 3.39 0 0 0-3.39-3.39H15.806v-4.513h10.162A3.39 3.39 0 0 0 29.355 35V16.935a3.39 3.39 0 0 0-3.387-3.387H15.806V8.872a4.51 4.51 0 0 0 3.227-3.227h29.515a1.13 1.13 0 0 1 1.129 1.129v3.387h-5.645a3.39 3.39 0 0 0-3.387 3.387v1.811a19.17 19.17 0 0 0 4.516 34.6v14.4a5.645 5.645 0 0 0 11.29 0v-14.4A19.225 19.225 0 0 0 70 31.613M31.613 46.29v18.065a1.13 1.13 0 0 1-1.129 1.129H3.387a1.13 1.13 0 0 1-1.129-1.129V46.29a1.13 1.13 0 0 1 1.129-1.129h27.1a1.13 1.13 0 0 1 1.126 1.129M27.1 16.935V35a1.13 1.13 0 0 1-1.129 1.129H3.387A1.13 1.13 0 0 1 2.258 35V16.935a1.13 1.13 0 0 1 1.129-1.129h22.581a1.13 1.13 0 0 1 1.132 1.129M14.677 6.774a2.258 2.258 0 1 1 2.258-2.258 2.26 2.26 0 0 1-2.258 2.258m29.355 23.71h13.549a3.39 3.39 0 0 0 3.387-3.384v-2.586a12.419 12.419 0 1 1-20.323 0V27.1a3.39 3.39 0 0 0 3.387 3.384m5.645-18.065h2.258v2.258h-2.258ZM42.9 13.548a1.13 1.13 0 0 1 1.129-1.129h3.387v4.516h6.774v-4.516h3.387a1.13 1.13 0 0 1 1.129 1.129V27.1a1.13 1.13 0 0 1-1.129 1.129H44.032A1.13 1.13 0 0 1 42.9 27.1Zm11.29 50.806a3.387 3.387 0 0 1-6.774 0V50.489a18.2 18.2 0 0 0 6.774 0Zm-3.384-15.806a16.917 16.917 0 0 1-10.161-30.456v2.976a14.677 14.677 0 1 0 20.323 0v-2.976a16.917 16.917 0 0 1-10.162 30.456"/><path d="M24.839 18.065h-6.775v2.258h-4.516v2.258H9.032v2.258H4.516v9.032h20.323Zm-6.774 4.516v9.032h-2.259v-9.032ZM6.774 27.097h2.258v4.516H6.774Zm4.516-2.258h2.258v6.774H11.29Zm11.29 6.774h-2.258v-11.29h2.258Zm-6.774 15.806H4.516v11.29h11.29Zm-2.258 9.032H6.774v-6.774h6.774Zm-9.032 4.517h24.839v2.258H4.516Zm13.549-4.516h11.29v2.258h-11.29Zm0-4.517h11.29v2.258h-11.29Zm0-4.516h11.29v2.258h-11.29Z"/></g></g></g></svg>