<svg xmlns="http://www.w3.org/2000/svg" width="77.361" height="79.664" viewBox="0 0 77.361 79.664"><defs><clipPath id="a"><path fill="none" stroke="#a5b9f6" d="M0 0h77.361v79.664H0z"/></clipPath></defs><g fill="#a5b9f6" clip-path="url(#a)" style="isolation:isolate"><path d="M9.128 18.9a2.013 2.013 0 0 1-1.989-1.785 6.91 6.91 0 0 0-5.886-5.9 2.037 2.037 0 0 1-.013-4.033 6.985 6.985 0 0 0 5.89-5.911 2 2 0 0 1 3.97-.015 7.02 7.02 0 0 0 5.883 5.954 2.01 2.01 0 0 1 1.748 1.99v.036a1.95 1.95 0 0 1-1.72 1.938 7.02 7.02 0 0 0-5.9 5.972A2.016 2.016 0 0 1 9.128 18.9M9.117.5a1.023 1.023 0 0 0-1 .911A7.98 7.98 0 0 1 1.4 8.165a1.037 1.037 0 0 0 .007 2.057 7.9 7.9 0 0 1 6.723 6.756 1 1 0 0 0 1.993.022 8.02 8.02 0 0 1 6.756-6.815.96.96 0 0 0 .852-.946V9.2a1.014 1.014 0 0 0-.889-1 8.03 8.03 0 0 1-6.73-6.8 1.015 1.015 0 0 0-.995-.9m19.721 18.4a2.013 2.013 0 0 1-1.989-1.785 6.91 6.91 0 0 0-5.886-5.9 2.037 2.037 0 0 1-.013-4.033 6.985 6.985 0 0 0 5.889-5.907 2 2 0 0 1 3.973-.015 7.02 7.02 0 0 0 5.881 5.95 2.01 2.01 0 0 1 1.748 1.99v.036a1.95 1.95 0 0 1-1.72 1.938 7.02 7.02 0 0 0-5.9 5.972 2.016 2.016 0 0 1-1.983 1.754M28.827.5a1.023 1.023 0 0 0-1 .911 7.98 7.98 0 0 1-6.722 6.754 1.037 1.037 0 0 0 .007 2.057 7.9 7.9 0 0 1 6.725 6.756 1 1 0 0 0 1.996.022 8.02 8.02 0 0 1 6.756-6.815.96.96 0 0 0 .852-.946V9.2a1.014 1.014 0 0 0-.889-1 8.03 8.03 0 0 1-6.729-6.8 1.02 1.02 0 0 0-.996-.9m19.721 18.4a2.013 2.013 0 0 1-1.989-1.785 6.91 6.91 0 0 0-5.886-5.9 2.037 2.037 0 0 1-.013-4.033 6.985 6.985 0 0 0 5.889-5.907 2 2 0 0 1 3.972-.015 7.02 7.02 0 0 0 5.882 5.95 2.01 2.01 0 0 1 1.748 1.99v.036a1.95 1.95 0 0 1-1.72 1.938 7.02 7.02 0 0 0-5.9 5.972 2.016 2.016 0 0 1-1.983 1.754M48.534.5a1.023 1.023 0 0 0-1 .911 7.98 7.98 0 0 1-6.722 6.754 1.037 1.037 0 0 0 .007 2.057 7.9 7.9 0 0 1 6.725 6.756 1 1 0 0 0 1.999.022 8.02 8.02 0 0 1 6.756-6.815.96.96 0 0 0 .852-.946V9.2a1.014 1.014 0 0 0-.889-1 8.03 8.03 0 0 1-6.728-6.8 1.015 1.015 0 0 0-1-.9m19.725 18.4a2.013 2.013 0 0 1-1.989-1.785 6.91 6.91 0 0 0-5.886-5.9 2.037 2.037 0 0 1-.013-4.033 6.985 6.985 0 0 0 5.89-5.911 2 2 0 0 1 3.972-.015 7.02 7.02 0 0 0 5.881 5.954 2.01 2.01 0 0 1 1.748 1.99v.036a1.95 1.95 0 0 1-1.72 1.938 7.02 7.02 0 0 0-5.9 5.972 2.016 2.016 0 0 1-1.983 1.754M68.248.5a1.023 1.023 0 0 0-1 .911 7.98 7.98 0 0 1-6.722 6.754 1.037 1.037 0 0 0 .007 2.057 7.9 7.9 0 0 1 6.725 6.756 1 1 0 0 0 1.996.022 8.02 8.02 0 0 1 6.756-6.815.96.96 0 0 0 .852-.946V9.2a1.014 1.014 0 0 0-.889-1 8.03 8.03 0 0 1-6.73-6.8 1.015 1.015 0 0 0-.995-.9M9.128 39.319a2.013 2.013 0 0 1-1.989-1.785 6.91 6.91 0 0 0-5.886-5.9 2.037 2.037 0 0 1-.012-4.032 6.99 6.99 0 0 0 5.889-5.908 2 2 0 0 1 3.972-.016 7.02 7.02 0 0 0 5.882 5.954 2.01 2.01 0 0 1 1.747 1.991v.037a1.97 1.97 0 0 1-1.72 1.938 7.02 7.02 0 0 0-5.9 5.971 2.016 2.016 0 0 1-1.983 1.75m-.011-18.4a1.023 1.023 0 0 0-1 .912A7.98 7.98 0 0 1 1.4 28.588a1.037 1.037 0 0 0 .007 2.057 7.9 7.9 0 0 1 6.723 6.757 1 1 0 0 0 1.993.018 8.02 8.02 0 0 1 6.756-6.818.96.96 0 0 0 .852-.947v-.033a1.016 1.016 0 0 0-.89-1 8.03 8.03 0 0 1-6.729-6.8 1.015 1.015 0 0 0-.995-.9Zm19.721 18.4a2.013 2.013 0 0 1-1.989-1.785 6.91 6.91 0 0 0-5.886-5.9 2.037 2.037 0 0 1-.013-4.033 6.99 6.99 0 0 0 5.889-5.907 2 2 0 0 1 3.973-.016 7.02 7.02 0 0 0 5.881 5.954 2.01 2.01 0 0 1 1.747 1.991v.037a1.97 1.97 0 0 1-1.72 1.938 7.02 7.02 0 0 0-5.9 5.971 2.016 2.016 0 0 1-1.982 1.75m-.011-18.4a1.023 1.023 0 0 0-1 .912 7.98 7.98 0 0 1-6.721 6.754 1.037 1.037 0 0 0 .007 2.057 7.9 7.9 0 0 1 6.727 6.76 1 1 0 0 0 1.993.018 8.02 8.02 0 0 1 6.756-6.818.96.96 0 0 0 .852-.947v-.033a1.016 1.016 0 0 0-.89-1 8.025 8.025 0 0 1-6.728-6.8 1.02 1.02 0 0 0-.996-.9Zm19.721 18.4a2.013 2.013 0 0 1-1.989-1.785 6.91 6.91 0 0 0-5.886-5.9 2.037 2.037 0 0 1-.013-4.033 6.99 6.99 0 0 0 5.889-5.907 2 2 0 0 1 3.972-.016 7.02 7.02 0 0 0 5.882 5.954 2.01 2.01 0 0 1 1.747 1.991v.037a1.97 1.97 0 0 1-1.72 1.938 7.02 7.02 0 0 0-5.9 5.971 2.016 2.016 0 0 1-1.982 1.75m-.014-18.397a1.023 1.023 0 0 0-1 .912 7.98 7.98 0 0 1-6.721 6.754 1.037 1.037 0 0 0 .007 2.057 7.9 7.9 0 0 1 6.73 6.757 1 1 0 0 0 1.993.018 8.02 8.02 0 0 1 6.756-6.818.96.96 0 0 0 .852-.947v-.033a1.016 1.016 0 0 0-.89-1 8.03 8.03 0 0 1-6.729-6.8 1.015 1.015 0 0 0-.998-.9m19.725 18.397a2.013 2.013 0 0 1-1.989-1.785 6.91 6.91 0 0 0-5.886-5.9 2.037 2.037 0 0 1-.013-4.033 6.99 6.99 0 0 0 5.889-5.907 2 2 0 0 1 3.972-.016 7.02 7.02 0 0 0 5.882 5.953 2.01 2.01 0 0 1 1.747 1.991v.037a1.97 1.97 0 0 1-1.72 1.938 7.02 7.02 0 0 0-5.9 5.971 2.016 2.016 0 0 1-1.982 1.751m-.011-18.4a1.024 1.024 0 0 0-1 .912 7.98 7.98 0 0 1-6.721 6.754 1.037 1.037 0 0 0 .007 2.057 7.9 7.9 0 0 1 6.727 6.76 1 1 0 0 0 1.993.018 8.02 8.02 0 0 1 6.756-6.818.96.96 0 0 0 .852-.947v-.033a1.016 1.016 0 0 0-.89-1 8.03 8.03 0 0 1-6.729-6.8 1.015 1.015 0 0 0-.995-.9ZM9.128 59.742a2.013 2.013 0 0 1-1.989-1.785 6.91 6.91 0 0 0-5.886-5.9 2.038 2.038 0 0 1-.013-4.034 6.98 6.98 0 0 0 5.89-5.906 2 2 0 0 1 3.97-.013 7.02 7.02 0 0 0 5.882 5.954 2.01 2.01 0 0 1 1.747 1.991v.036a1.97 1.97 0 0 1-1.72 1.938 7.02 7.02 0 0 0-5.9 5.972 2.016 2.016 0 0 1-1.981 1.747m-.011-18.4a1.023 1.023 0 0 0-1 .911A7.98 7.98 0 0 1 1.4 49.009a1.038 1.038 0 0 0 .007 2.058 7.9 7.9 0 0 1 6.723 6.756 1 1 0 0 0 1.993.019 8.02 8.02 0 0 1 6.756-6.815.96.96 0 0 0 .852-.947v-.036a1.014 1.014 0 0 0-.889-1 8.03 8.03 0 0 1-6.73-6.8 1.015 1.015 0 0 0-.995-.899Zm19.721 18.4a2.013 2.013 0 0 1-1.989-1.785 6.91 6.91 0 0 0-5.886-5.9 2.038 2.038 0 0 1-.013-4.034 6.98 6.98 0 0 0 5.89-5.906 2 2 0 0 1 3.973-.015 7.02 7.02 0 0 0 5.881 5.954 2.01 2.01 0 0 1 1.747 1.991v.036a1.97 1.97 0 0 1-1.72 1.938 7.02 7.02 0 0 0-5.9 5.972 2.016 2.016 0 0 1-1.983 1.749m-.011-18.4a1.023 1.023 0 0 0-1 .911 7.98 7.98 0 0 1-6.722 6.753 1.038 1.038 0 0 0 .007 2.058 7.9 7.9 0 0 1 6.725 6.756 1 1 0 0 0 1.993.019 8.02 8.02 0 0 1 6.756-6.815.96.96 0 0 0 .852-.947v-.036a1.014 1.014 0 0 0-.889-1 8.03 8.03 0 0 1-6.729-6.8 1.02 1.02 0 0 0-.993-.896Zm19.721 18.4a2.013 2.013 0 0 1-1.989-1.785 6.91 6.91 0 0 0-5.886-5.9 2.038 2.038 0 0 1-.013-4.034 6.98 6.98 0 0 0 5.89-5.906 2 2 0 0 1 3.972-.015 7.02 7.02 0 0 0 5.882 5.954 2.01 2.01 0 0 1 1.747 1.991v.036a1.97 1.97 0 0 1-1.72 1.938 7.02 7.02 0 0 0-5.9 5.972 2.016 2.016 0 0 1-1.983 1.749m-.011-18.4a1.023 1.023 0 0 0-1 .911 7.98 7.98 0 0 1-6.722 6.753 1.038 1.038 0 0 0 .007 2.058 7.9 7.9 0 0 1 6.725 6.756 1 1 0 0 0 1.993.019 8.02 8.02 0 0 1 6.756-6.815.96.96 0 0 0 .852-.947v-.036a1.014 1.014 0 0 0-.889-1 8.03 8.03 0 0 1-6.73-6.8 1.015 1.015 0 0 0-.995-.896Zm19.722 18.4a2.013 2.013 0 0 1-1.989-1.785 6.91 6.91 0 0 0-5.886-5.9 2.038 2.038 0 0 1-.013-4.034 6.98 6.98 0 0 0 5.89-5.906 2 2 0 0 1 3.972-.015 7.02 7.02 0 0 0 5.882 5.954 2.01 2.01 0 0 1 1.747 1.991v.036a1.97 1.97 0 0 1-1.72 1.938 7.02 7.02 0 0 0-5.9 5.972 2.016 2.016 0 0 1-1.983 1.749m-.011-18.4a1.023 1.023 0 0 0-1 .911 7.98 7.98 0 0 1-6.722 6.753 1.038 1.038 0 0 0 .007 2.058 7.9 7.9 0 0 1 6.725 6.756 1 1 0 0 0 1.993.019 8.02 8.02 0 0 1 6.756-6.815.96.96 0 0 0 .852-.947v-.036a1.014 1.014 0 0 0-.889-1 8.03 8.03 0 0 1-6.73-6.8 1.015 1.015 0 0 0-.992-.896ZM9.128 80.164a2.013 2.013 0 0 1-1.989-1.785 6.91 6.91 0 0 0-5.886-5.9 2.037 2.037 0 0 1-.013-4.033 6.985 6.985 0 0 0 5.89-5.908 2 2 0 0 1 3.972-.015 7.02 7.02 0 0 0 5.882 5.954 2.01 2.01 0 0 1 1.747 1.991v.038a1.95 1.95 0 0 1-1.72 1.938 7.02 7.02 0 0 0-5.9 5.972 2.016 2.016 0 0 1-1.983 1.748m-.011-18.4a1.023 1.023 0 0 0-1 .911A7.98 7.98 0 0 1 1.4 69.432a1.037 1.037 0 0 0 0 2.057 7.9 7.9 0 0 1 6.73 6.756 1 1 0 0 0 1.993.019 8.02 8.02 0 0 1 6.756-6.815.96.96 0 0 0 .852-.946v-.036a1.014 1.014 0 0 0-.889-1 8.03 8.03 0 0 1-6.73-6.8 1.015 1.015 0 0 0-.995-.9Zm19.721 18.4a2.013 2.013 0 0 1-1.989-1.785 6.91 6.91 0 0 0-5.886-5.9 2.037 2.037 0 0 1-.013-4.033 6.985 6.985 0 0 0 5.889-5.907 2 2 0 0 1 3.973-.015 7.02 7.02 0 0 0 5.881 5.954 2.01 2.01 0 0 1 1.747 1.991v.037a1.95 1.95 0 0 1-1.72 1.938 7.02 7.02 0 0 0-5.9 5.972 2.016 2.016 0 0 1-1.982 1.748m-.011-18.4a1.023 1.023 0 0 0-1 .911 7.98 7.98 0 0 1-6.722 6.754 1.037 1.037 0 0 0 .006 2.057 7.9 7.9 0 0 1 6.726 6.756 1 1 0 0 0 1.993.019 8.02 8.02 0 0 1 6.756-6.815.96.96 0 0 0 .852-.946v-.036a1.014 1.014 0 0 0-.889-1 8.03 8.03 0 0 1-6.729-6.8 1.02 1.02 0 0 0-.993-.897Zm19.721 18.4a2.013 2.013 0 0 1-1.989-1.785 6.91 6.91 0 0 0-5.886-5.9 2.037 2.037 0 0 1-.013-4.033 6.985 6.985 0 0 0 5.889-5.907 2 2 0 0 1 3.972-.015 7.02 7.02 0 0 0 5.882 5.954 2.01 2.01 0 0 1 1.747 1.991v.037a1.95 1.95 0 0 1-1.72 1.938 7.02 7.02 0 0 0-5.9 5.972 2.016 2.016 0 0 1-1.982 1.748m-.011-18.4a1.023 1.023 0 0 0-1 .911 7.98 7.98 0 0 1-6.722 6.754 1.037 1.037 0 0 0 .006 2.057 7.9 7.9 0 0 1 6.726 6.756 1 1 0 0 0 1.993.019 8.02 8.02 0 0 1 6.756-6.815.96.96 0 0 0 .852-.946v-.036a1.014 1.014 0 0 0-.889-1 8.03 8.03 0 0 1-6.73-6.8 1.015 1.015 0 0 0-.995-.897Zm19.722 18.4a2.013 2.013 0 0 1-1.989-1.785 6.91 6.91 0 0 0-5.886-5.9 2.037 2.037 0 0 1-.013-4.033 6.985 6.985 0 0 0 5.889-5.907 2 2 0 0 1 3.972-.015 7.02 7.02 0 0 0 5.882 5.954 2.01 2.01 0 0 1 1.747 1.991v.037a1.95 1.95 0 0 1-1.72 1.938 7.02 7.02 0 0 0-5.9 5.972 2.016 2.016 0 0 1-1.982 1.748m-.011-18.4a1.023 1.023 0 0 0-1 .911 7.98 7.98 0 0 1-6.722 6.754 1.037 1.037 0 0 0 .006 2.057 7.9 7.9 0 0 1 6.726 6.756 1 1 0 0 0 1.993.019 8.02 8.02 0 0 1 6.756-6.815.96.96 0 0 0 .852-.946v-.036a1.014 1.014 0 0 0-.889-1 8.03 8.03 0 0 1-6.73-6.8 1.015 1.015 0 0 0-.992-.897Z"/></g></svg>