<svg xmlns="http://www.w3.org/2000/svg" width="91.364" height="91.364" viewBox="0 0 91.364 91.364"><path fill="#c3c6c7" d="M4.568 10.659h85.273v79.182H4.568Z"/><path fill="#e9eef2" d="M1.523 7.614h82.228v76.137H1.523Z"/><path fill="#eb423f" d="M1.523 7.614h82.228v18.273H1.523Z"/><path fill="#f7cc38" d="m53.296 70.046-10.659-6.091-10.659 6.091 1.523-12.182-9.137-9.136 12.182-1.523 6.091-10.659 6.091 10.659 12.182 1.523-9.136 9.136Z"/><path d="M89.842 9.136h-4.568V7.614a1.523 1.523 0 0 0-1.523-1.523h-10.66V4.568a4.568 4.568 0 0 0-9.136 0v1.523H60.91V4.568a4.568 4.568 0 0 0-9.136 0v1.523H33.5V4.568a4.568 4.568 0 0 0-9.136 0v1.523h-3.046V4.568a4.568 4.568 0 0 0-9.136 0v1.523H1.523A1.523 1.523 0 0 0 0 7.614V83.75a1.523 1.523 0 0 0 1.523 1.523h1.523v4.568a1.523 1.523 0 0 0 1.523 1.523h85.273a1.523 1.523 0 0 0 1.523-1.523V10.659a1.523 1.523 0 0 0-1.523-1.523m-86.8 73.091V27.409h79.186v54.819ZM67 4.568a1.523 1.523 0 1 1 3.045 0v1.523H67Zm-12.182 0a1.523 1.523 0 1 1 3.045 0v1.523h-3.044Zm-27.409 0a1.523 1.523 0 1 1 3.045 0v1.523h-3.045Zm-12.182 0a1.523 1.523 0 1 1 3.045 0v1.523h-3.045Zm-3.045 4.568v1.523a4.574 4.574 0 0 0 4.568 4.568 1.523 1.523 0 1 0 0-3.045 1.524 1.524 0 0 1-1.523-1.523V9.136h9.136v1.523a4.574 4.574 0 0 0 4.568 4.568 1.523 1.523 0 1 0 0-3.045 1.524 1.524 0 0 1-1.523-1.523V9.136h24.365v1.523a4.574 4.574 0 0 0 4.568 4.568 1.523 1.523 0 0 0 0-3.045 1.524 1.524 0 0 1-1.523-1.523V9.136h9.136v1.523a4.574 4.574 0 0 0 4.568 4.568 1.523 1.523 0 1 0 0-3.045A1.524 1.524 0 0 1 67 10.659V9.136h15.228v15.228H3.045V9.136Zm76.137 79.182H6.091v-3.045h77.66a1.523 1.523 0 0 0 1.523-1.523V12.182h3.045Z"/><path d="M62.35 48.233a1.52 1.52 0 0 0-1.252-1.017l-11.426-1.428-5.713-10a1.523 1.523 0 0 0-2.644 0l-5.713 10-11.426 1.428a1.523 1.523 0 0 0-.888 2.588l8.61 8.61-1.43 11.443a1.523 1.523 0 0 0 2.266 1.511l9.9-5.659 9.9 5.659a1.523 1.523 0 0 0 2.266-1.511l-1.43-11.443 8.61-8.61a1.52 1.52 0 0 0 .37-1.571m-11.654 8.554a1.52 1.52 0 0 0-.434 1.266l1.145 9.16-8.015-4.58a1.52 1.52 0 0 0-1.511 0l-8.015 4.58 1.145-9.16a1.52 1.52 0 0 0-.434-1.266l-6.935-6.935 9.092-1.137a1.52 1.52 0 0 0 1.133-.755l4.769-8.345 4.769 8.345a1.52 1.52 0 0 0 1.133.755l9.092 1.137Z"/></svg>