<svg xmlns="http://www.w3.org/2000/svg" width="124" height="124" viewBox="0 0 124 124"><g transform="translate(-687.39 -3489.484)"><circle cx="62" cy="62" r="62" fill="#fff" transform="translate(687.39 3489.484)"/><g transform="translate(715.718 3521.309)"><path fill="#ffb69f" d="M29.987 51.955a5.409 5.409 0 1 1-1.584-3.862 5.45 5.45 0 0 1 1.584 3.862"/><rect width="34.888" height="22.99" fill="#efbf27" rx="5" transform="translate(15.046 18.69)"/><path fill="#efefef" d="M44.705 12.903v5.785h-4.652v-5.785a7.563 7.563 0 0 0-15.127 0v5.785h-4.651v-5.785a12.215 12.215 0 0 1 24.43 0"/><path fill="#aeaeae" d="M20.275 16.76h4.652v1.93h-4.652Zm19.779 0h4.652v1.93h-4.652Zm-4.278 10.864a3.286 3.286 0 1 0-5.014 2.793.86.86 0 0 1 .41.734v3.507a1.356 1.356 0 0 0 1.278 1.373 1.32 1.32 0 0 0 1.359-1.318v-3.562a.86.86 0 0 1 .408-.733 3.28 3.28 0 0 0 1.559-2.794"/><path fill="#fb5c3c" d="M32.49 60.847v5.245H16.588v-5.245a5.515 5.515 0 0 1 3.888-5.269 5.44 5.44 0 0 0 8.126 0 5.51 5.51 0 0 1 3.888 5.269"/><path fill="#ffb69f" d="M45.886 51.956a5.42 5.42 0 1 1-1.587-3.858 5.45 5.45 0 0 1 1.587 3.858"/><path fill="#72c1e8" d="M48.39 60.847v5.245h-15.9v-5.245a5.51 5.51 0 0 1 3.888-5.269 5.44 5.44 0 0 0 8.126 0 5.515 5.515 0 0 1 3.888 5.269Z"/><path fill="#ffb69f" d="M14.085 51.956a5.42 5.42 0 1 1-1.587-3.858 5.44 5.44 0 0 1 1.587 3.858"/><path fill="#72c1e8" d="M12.89 55.358a5.445 5.445 0 1 1-7.216-7.969v-4.916a2.493 2.493 0 0 0-4.985 0v23.62h15.9V59.47a4.13 4.13 0 0 0-3.7-4.111Z"/><path fill="#ffb69f" d="M50.896 51.956a5.42 5.42 0 1 0 1.587-3.858 5.44 5.44 0 0 0-1.587 3.858"/><path fill="#fb5c3c" d="M48.392 59.469v6.623h15.9v-23.62a2.493 2.493 0 0 0-4.985 0v4.916a5.445 5.445 0 1 1-7.216 7.969 4.13 4.13 0 0 0-3.7 4.111Z"/><path fill="#f7e4b0" d="M47.178 39.612h-25.79a.69.69 0 0 1 0-1.379h25.1V21.447a.69.69 0 1 1 1.379 0v17.476a.69.69 0 0 1-.689.689m-28.546 0h-.827a.69.69 0 0 1 0-1.379h.827a.69.69 0 0 1 0 1.379"/><path d="M43.427 7.413a.69.69 0 0 0 .251-.943.7.7 0 0 0-.94-.251.69.69 0 1 0 .689 1.194M32.49 36.721a2.007 2.007 0 0 0 2.007-2.008v-3.561a.17.17 0 0 1 .081-.147 3.976 3.976 0 1 0-4.181 0 .18.18 0 0 1 .084.148v3.506a2.05 2.05 0 0 0 2.009 2.063Zm-2.584-9.36a2.6 2.6 0 1 1 3.947 2.473 1.54 1.54 0 0 0-.734 1.319v3.561a.63.63 0 0 1-.649.629.664.664 0 0 1-.609-.684v-3.506a1.54 1.54 0 0 0-.736-1.32 2.59 2.59 0 0 1-1.217-2.471Zm-9.641 34.231a.69.69 0 0 0-.689.692v3.808a.69.69 0 0 0 1.379 0v-3.808a.69.69 0 0 0-.689-.692Zm8.547 0a.69.69 0 0 0-.689.689v3.811a.69.69 0 1 0 1.379 0v-3.811a.69.69 0 0 0-.69-.689m7.354.003a.69.69 0 0 0-.689.687v3.811a.69.69 0 1 0 1.379 0v-3.811a.69.69 0 0 0-.69-.687m8.548-.003a.69.69 0 0 0-.689.689v3.811a.69.69 0 0 0 1.379 0v-3.811a.69.69 0 0 0-.69-.689m7.354.003a.69.69 0 0 0-.692.689v3.808a.691.691 0 1 0 1.382 0v-3.808a.69.69 0 0 0-.69-.689m8.548-.003a.694.694 0 0 0-.692.689v3.811a.69.69 0 0 0 1.379 0v-3.811a.69.69 0 0 0-.686-.689ZM38.287 46.208a.689.689 0 1 0 .888.405.706.706 0 0 0-.888-.405"/><path d="M61.798 39.291a3.186 3.186 0 0 0-3.182 3.182v3.788a6.132 6.132 0 0 0-7.652 8.647 4.8 4.8 0 0 0-2.847 2.608 6.16 6.16 0 0 0-2.522-2.244 6.13 6.13 0 0 0-4.254-9.381.69.69 0 1 0-.2 1.365 4.758 4.758 0 1 1-4.318 1.622.69.69 0 0 0-.08-.974.71.71 0 0 0-.97.077 6.13 6.13 0 0 0-.487 7.3 6.15 6.15 0 0 0-2.796 2.71 6.15 6.15 0 0 0-2.795-2.718 6.134 6.134 0 1 0-10.313 0 6.16 6.16 0 0 0-2.521 2.243 4.8 4.8 0 0 0-2.846-2.608 6.131 6.131 0 0 0-7.652-8.646v-3.788a3.182 3.182 0 1 0-6.364 0v23.617a.69.69 0 0 0 1.379 0v-23.62a1.804 1.804 0 0 1 3.607 0v4.556a6.134 6.134 0 1 0 8.18 9.068 3.43 3.43 0 0 1 2.734 3.372v6.624a.69.69 0 0 0 1.379 0v-5.245a4.8 4.8 0 0 1 3.01-4.472 6.13 6.13 0 0 0 8.5 0 4.79 4.79 0 0 1 3.01 4.472v5.245a.69.69 0 0 0 1.379 0v-5.245a4.79 4.79 0 0 1 3.009-4.472 6.14 6.14 0 0 0 8.5 0 4.8 4.8 0 0 1 3.01 4.472v5.245a.69.69 0 0 0 1.379 0v-6.623a3.43 3.43 0 0 1 2.734-3.372 6.135 6.135 0 1 0 8.182-9.067v-4.557a1.804 1.804 0 0 1 3.607 0v23.619a.69.69 0 0 0 1.379 0v-23.62a3.186 3.186 0 0 0-3.182-3.182ZM3.882 51.956a4.756 4.756 0 1 1 4.756 4.756 4.756 4.756 0 0 1-4.756-4.756m15.9 0a4.756 4.756 0 1 1 4.756 4.756 4.756 4.756 0 0 1-4.754-4.756Zm36.557 4.756a4.756 4.756 0 1 1 4.756-4.756 4.756 4.756 0 0 1-4.754 4.756Z"/><path d="M4.363 61.595a.69.69 0 0 0-.689.689v3.808a.69.69 0 1 0 1.379 0v-3.808a.69.69 0 0 0-.69-.689m8.548 0a.69.69 0 0 0-.689.689v3.808a.69.69 0 1 0 1.379 0v-3.808a.69.69 0 0 0-.69-.689"/><circle cx=".689" cy=".689" r=".689" transform="translate(14.356 30.133)"/><path d="M16.422 42.371h32.134a2.07 2.07 0 0 0 2.066-2.068V20.069a2.07 2.07 0 0 0-2.068-2.068h-3.159v-5.1a13 13 0 0 0-.557-3.764.69.69 0 0 0-1.321.4 11.5 11.5 0 0 1 .5 3.364v5.1h-3.274v-5.1a8.252 8.252 0 1 0-16.5 0v5.1h-3.28v-5.1A11.524 11.524 0 0 1 40.94 5.067a.713.713 0 0 0 .976.039.694.694 0 0 0 .036-.976 12.9 12.9 0 0 0-22.368 8.771v5.1h-3.162a2.07 2.07 0 0 0-2.068 2.068v8a.69.69 0 0 0 1.379 0v-8a.693.693 0 0 1 .689-.689h32.134a.693.693 0 0 1 .689.689v20.234a.69.69 0 0 1-.689.689H16.422a.69.69 0 0 1-.689-.689V33.58a.69.69 0 0 0-1.379 0v6.722a2.07 2.07 0 0 0 2.068 2.069m9.2-29.468a6.873 6.873 0 1 1 13.746 0v5.1H25.622Zm29.276 23.768a.69.69 0 0 0 .687-.689v-.6a.689.689 0 1 0-1.376 0v.6a.69.69 0 0 0 .689.689m0-2.779a.69.69 0 0 0 .687-.689v-3.286a.689.689 0 1 0-1.376 0v3.287a.69.69 0 0 0 .689.688m3.363 2.779a.69.69 0 0 0 .689-.689v-.6a.69.69 0 0 0-1.379 0v.6a.69.69 0 0 0 .69.689m0-2.78a.69.69 0 0 0 .689-.689v-3.286a.69.69 0 1 0-1.379 0v3.287a.69.69 0 0 0 .69.688m-51.543 2.78a.69.69 0 0 0 .687-.689v-.6a.689.689 0 1 0-1.376 0v.6a.69.69 0 0 0 .689.689m0-2.779a.69.69 0 0 0 .687-.689v-3.286a.689.689 0 1 0-1.376 0v3.287a.69.69 0 0 0 .689.688m3.367 2.779a.69.69 0 0 0 .687-.689v-.6a.69.69 0 1 0-1.379 0v.6a.69.69 0 0 0 .692.689m0-2.78a.69.69 0 0 0 .687-.689v-3.287a.69.69 0 1 0-1.379 0v3.287a.69.69 0 0 0 .692.689"/></g></g></svg>