<svg xmlns="http://www.w3.org/2000/svg" width="129.506" height="119.86" viewBox="0 0 129.506 119.86"><path fill="#fff" d="M127.484 110.211a7.626 7.626 0 0 1-7.626 7.626H9.65a7.626 7.626 0 1 1 0-15.252h110.207a7.626 7.626 0 0 1 7.627 7.626"/><path fill="#fff" d="M127.483 110.201a7.62 7.62 0 0 1-7.629 7.629H9.653a7.618 7.618 0 1 1 0-15.237h110.2a7.617 7.617 0 0 1 7.63 7.608"/><path fill="#ff787d" d="M94.054 110.201a7.62 7.62 0 0 1-7.629 7.629H9.653a7.618 7.618 0 1 1 0-15.237h76.773a7.616 7.616 0 0 1 7.628 7.608"/><path fill="#43c3ff" d="M108.381 40.896a11.12 11.12 0 0 1-9.349-7.366c-.3-.789-.627-1.578-.971-2.347a11.16 11.16 0 0 1 1.4-11.858l.425-.526-7.588-7.588-.526.425a11.21 11.21 0 0 1-11.858 1.4 47 47 0 0 0-2.347-.971 11.12 11.12 0 0 1-7.366-9.369l-.061-.668H59.391l-.081.668a11.12 11.12 0 0 1-7.366 9.369c-.789.3-1.578.627-2.347.971a11.21 11.21 0 0 1-11.858-1.4l-.526-.425-7.588 7.587.425.526a11.16 11.16 0 0 1 1.4 11.858 47 47 0 0 0-.971 2.347 11.12 11.12 0 0 1-9.349 7.366l-.688.061v10.745l.688.061a11.17 11.17 0 0 1 9.345 7.386c.3.789.627 1.578.971 2.327a11.2 11.2 0 0 1-1.4 11.878l-.425.526 7.588 7.588.526-.425a11.17 11.17 0 0 1 11.858-1.4c.769.344 1.558.668 2.347.951a11.17 11.17 0 0 1 7.366 9.369l.081.688h10.749l.061-.688a11.17 11.17 0 0 1 7.366-9.369 33 33 0 0 0 2.347-.951 11.17 11.17 0 0 1 11.858 1.4l.526.425 7.588-7.588-.425-.526a11.2 11.2 0 0 1-1.4-11.878c.344-.749.668-1.538.971-2.327a11.17 11.17 0 0 1 9.349-7.386l.688-.061V40.956Zm-43.628 32.5a27.055 27.055 0 1 1 27.034-27.075 27.04 27.04 0 0 1-27.033 27.073Z"/><path d="M129.506 110.201a9.75 9.75 0 0 0-9.649-9.639H9.649A9.66 9.66 0 0 0 0 110.201a9.66 9.66 0 0 0 9.649 9.649h110.208a9.66 9.66 0 0 0 9.649-9.649s0 .002 0 0M9.651 104.617h76.774a5.595 5.595 0 1 1 0 11.19H9.651a5.595 5.595 0 1 1 0-11.19m110.2 11.19h-25.6a9.5 9.5 0 0 0 .007-11.19h25.6a5.595 5.595 0 1 1 0 11.19ZM20.255 53.722a9.11 9.11 0 0 1 8.331 6.134q.468 1.254 1.02 2.463a9.12 9.12 0 0 1-1.539 10.256 2.02 2.02 0 0 0 .124 2.724l7.6 7.6a2.03 2.03 0 0 0 2.721.128 9.14 9.14 0 0 1 10.26-1.542q1.215.551 2.466 1.019a9.105 9.105 0 0 1 6.13 8.328 2.024 2.024 0 0 0 2.016 1.841H70.13a2.024 2.024 0 0 0 2.016-1.841 9.11 9.11 0 0 1 6.128-8.327 38 38 0 0 0 2.47-1.02 9.13 9.13 0 0 1 10.252 1.54 2.02 2.02 0 0 0 2.725-.125l7.6-7.6a2.02 2.02 0 0 0 .123-2.725 9.13 9.13 0 0 1-1.543-10.258q.551-1.211 1.02-2.466a9.12 9.12 0 0 1 8.331-6.132 2.023 2.023 0 0 0 1.838-2.015V40.962a2.023 2.023 0 0 0-1.838-2.015 9.11 9.11 0 0 1-8.331-6.134q-.468-1.254-1.02-2.464a9.13 9.13 0 0 1 1.543-10.261 2.02 2.02 0 0 0-.128-2.719l-7.6-7.6a2.02 2.02 0 0 0-2.723-.127 9.13 9.13 0 0 1-10.256 1.541q-1.213-.551-2.468-1.02a9.1 9.1 0 0 1-6.13-8.327 2.024 2.024 0 0 0-2.016-1.841H59.382a2.024 2.024 0 0 0-2.016 1.835 9.11 9.11 0 0 1-6.132 8.338q-1.254.468-2.468 1.019a9.12 9.12 0 0 1-10.26-1.543 2.02 2.02 0 0 0-2.719.129l-7.6 7.6a2.023 2.023 0 0 0-.127 2.723 9.13 9.13 0 0 1 1.541 10.256q-.551 1.211-1.02 2.467a9.16 9.16 0 0 1-8.333 6.132 2.023 2.023 0 0 0-1.836 2.015v10.742a2.02 2.02 0 0 0 1.843 2.014m2.209-10.969a13.19 13.19 0 0 0 9.912-8.52q.421-1.123.913-2.209a13.25 13.25 0 0 0-.972-13.058l5.067-5.067a13.24 13.24 0 0 0 13.056.973q1.088-.492 2.209-.912a13.19 13.19 0 0 0 8.523-9.913h7.162a13.19 13.19 0 0 0 8.523 9.913q1.123.418 2.207.912a13.26 13.26 0 0 0 13.058-.972l5.067 5.067a13.25 13.25 0 0 0-.972 13.058q.492 1.083.913 2.206a13.19 13.19 0 0 0 9.912 8.523v7.163a13.19 13.19 0 0 0-9.912 8.521q-.421 1.123-.913 2.208a13.25 13.25 0 0 0 .972 13.057l-5.067 5.067a13.25 13.25 0 0 0-13.058-.97q-1.082.492-2.207.91a13.2 13.2 0 0 0-8.523 9.914h-7.161a13.2 13.2 0 0 0-8.525-9.915q-1.123-.416-2.205-.911a13.25 13.25 0 0 0-13.058.973l-5.065-5.067a13.26 13.26 0 0 0 .97-13.059q-.492-1.083-.911-2.2a13.2 13.2 0 0 0-9.914-8.524z"/><path d="M64.754 75.407a29.072 29.072 0 1 0-29.057-29.088 29.105 29.105 0 0 0 29.057 29.088m0-54.1a25.025 25.025 0 1 1-25.01 25.009 25.036 25.036 0 0 1 25.01-25.006Z"/><path d="m53.043 47.96 6.318-4.551a2.024 2.024 0 0 0-2.367-3.284l-1.984 1.429a10.86 10.86 0 0 1 18.705-1.428 2.024 2.024 0 0 0 3.328-2.3 14.935 14.935 0 0 0-25.9 2.387l-.89-1.833a2.024 2.024 0 0 0-3.64 1.769l3.336 6.867a2.06 2.06 0 0 0 3.094.944m23.451-3.31-6.418 4.409a2.024 2.024 0 1 0 2.292 3.336l2.256-1.549a10.78 10.78 0 0 1-9.85 6.394 10.97 10.97 0 0 1-8.987-4.736 2.023 2.023 0 1 0-3.324 2.308 14.912 14.912 0 0 0 25.84-2.2l.773 1.684a2.024 2.024 0 0 0 3.679-1.688l-3.189-6.949a2.07 2.07 0 0 0-3.071-1.01Z"/></svg>