<svg xmlns="http://www.w3.org/2000/svg" width="124" height="124" viewBox="0 0 124 124"><g transform="translate(-736.589 -4456.125)"><circle cx="62" cy="62" r="62" fill="#fff" transform="translate(736.589 4456.125)"/><g transform="translate(762.01 4480.468)"><path fill="#d1e7f8" d="M60.456 18.916v-.08a17.735 17.735 0 0 0-34.368-6.154 7.1 7.1 0 0 0-10.649 6.154v.033A15.335 15.335 0 0 0 1.103 34.17a15.334 15.334 0 0 0 15.334 15.334h42.44A15.334 15.334 0 0 0 74.211 34.17a15.336 15.336 0 0 0-13.755-15.254"/><path fill="#787680" d="M1.103 58.372h73.108v12.969l-2.87 2.87H3.973l-2.87-2.87Z"/><g fill="#57565c" transform="translate(9.644 63.002)"><circle cx="3.29" cy="3.29" r="3.29" transform="translate(10.11)"/><circle cx="3.29" cy="3.29" r="3.29" transform="translate(20.222)"/><circle cx="3.29" cy="3.29" r="3.29"/></g><circle cx="3.29" cy="3.29" r="3.29" fill="#ffe477" transform="translate(16.813 63.002)"/><circle cx="3.29" cy="3.29" r="3.29" fill="#91dc5a" transform="translate(26.924 63.002)"/><circle cx="3.29" cy="3.29" r="3.29" fill="#ff7956" transform="translate(6.702 63.002)"/><path fill="#57a4ff" d="M34.495 49.505h6.327v8.867h-6.327z"/><path fill="#b3d8f4" d="M26.955 11.733a7.07 7.07 0 0 1 3.546.949A17.75 17.75 0 0 1 44.93 1.239 17.76 17.76 0 0 0 26.464 11.75q.243-.017.491-.017M5.516 34.171a15.335 15.335 0 0 1 14.337-15.3v-.033a7.11 7.11 0 0 1 4.895-6.753 7.1 7.1 0 0 0-9.308 6.753v.033a15.335 15.335 0 0 0-14.337 15.3 15.334 15.334 0 0 0 15.334 15.334h4.413A15.334 15.334 0 0 1 5.516 34.171"/><path fill="#57565c" d="M5.516 71.341V58.372H1.103v12.969l2.87 2.87h4.413Z"/><path fill="#ffb655" d="M19.755 66.292a3.29 3.29 0 0 1 1.819-2.944 3.29 3.29 0 1 0 0 5.887 3.29 3.29 0 0 1-1.819-2.943"/><path fill="#64c37d" d="M29.865 66.292a3.29 3.29 0 0 1 1.819-2.944 3.29 3.29 0 1 0 0 5.887 3.29 3.29 0 0 1-1.819-2.943"/><path fill="#ff3f62" d="M9.639 66.292a3.29 3.29 0 0 1 1.819-2.944 3.29 3.29 0 1 0 0 5.887 3.29 3.29 0 0 1-1.819-2.943"/><path fill="#006df0" d="M34.495 49.505h2.942v8.867h-2.942z"/><path d="M34.69 44.724h2.206v2.206H34.69zm3.678 0h2.206v2.206h-2.206zm-7.355 0h2.206v2.206h-2.206zm11.032 0h2.206v2.206h-2.206zm19.394 24.707h8.118v2.206h-8.118z"/><path d="M16.438 50.608h42.44a16.439 16.439 0 0 0 2.662-32.66 18.84 18.84 0 0 0-36.032-6.763 8.206 8.206 0 0 0-11.114 6.675 16.438 16.438 0 0 0 2.043 32.748Zm-.955-30.636h6.337v-2.206h-5.18a6 6 0 0 1 8.9-4.128l1.133.654.454-1.227a16.632 16.632 0 0 1 32.23 5.771v1.076l.994.1A14.232 14.232 0 0 1 58.877 48.4H16.438a14.231 14.231 0 0 1-.955-28.429Z"/><path fill="#fff" d="M71.638 34.17h-2.206a10.6 10.6 0 0 1-.187 1.986l2.167.414a13 13 0 0 0 .226-2.4m-.63 3.96-2.1-.686a10.5 10.5 0 0 1-.8 1.827l1.93 1.07a13 13 0 0 0 .97-2.211m-1.832 3.569-1.78-1.3a10.6 10.6 0 0 1-8.519 4.332v2.206a12.82 12.82 0 0 0 10.299-5.238"/><path d="m0 71.798 3.517 3.517H71.8l3.517-3.517V57.269H0Zm2.206-12.323h70.9v11.409l-2.224 2.224H4.431l-2.224-2.224Z"/><path fill="#fff" d="M52 60.946h11.18v2.206H52zm12.651 0h2.206v2.206h-2.206zm3.677 0h2.206v2.206h-2.206z"/><path d="M20.103 70.685a4.393 4.393 0 1 0-4.393-4.393 4.4 4.4 0 0 0 4.393 4.393m0-6.58a2.187 2.187 0 1 1-2.189 2.186 2.19 2.19 0 0 1 2.189-2.187Zm10.11 6.58a4.393 4.393 0 1 0-4.393-4.393 4.4 4.4 0 0 0 4.393 4.393m0-6.58a2.187 2.187 0 1 1-2.187 2.187 2.19 2.19 0 0 1 2.187-2.188Zm-20.221 6.58a4.393 4.393 0 1 0-4.393-4.393 4.4 4.4 0 0 0 4.393 4.393m0-6.58a2.187 2.187 0 1 1-2.187 2.187 2.19 2.19 0 0 1 2.187-2.188Zm28.126 1.083h2.206v2.206h-2.206zm7.355 0h2.206v2.206h-2.206zm-3.678 0h2.206v2.206h-2.206zm-8.404-13.477h2.206v4.454h-2.206zm6.326 0h2.206v4.454h-2.206z"/><path fill="#fff" d="M55.676 18.822h2.207a15.23 15.23 0 0 0-7.584-13.111L49.193 7.62a13.01 13.01 0 0 1 6.483 11.202M45.092 3.862a15 15 0 0 0-2.368-.185v2.206a13 13 0 0 1 2.025.158Zm3.794 1.125a15 15 0 0 0-2.242-.8l-.571 2.131a13 13 0 0 1 1.913.679Z"/><path d="M16.437 46.93v-2.207A10.566 10.566 0 0 1 5.883 34.169H3.677a12.775 12.775 0 0 0 12.76 12.761m-14.231-.122h2.206v2.206H2.206zm0 7.355h2.206v2.206H2.206zm0-3.677h2.206v2.206H2.206zM70.9 46.808h2.206v2.206H70.9zm0 3.678h2.206v2.206H70.9zm0 3.677h2.206v2.206H70.9zm-34.346-2.09h2.206v3.776h-2.206z"/></g></g></svg>