<svg xmlns="http://www.w3.org/2000/svg" width="101.591" height="101.607" viewBox="0 0 101.591 101.607"><path fill="#ffeb99" d="M99.897 69.437v30.477H69.42V59.278h20.318v10.159Z"/><path fill="#ff3051" d="M99.898 25.414v20.314H72.807V25.414a2 2 0 0 1 .017-.3 3.386 3.386 0 0 1 3.37-3.086h20.313a3.4 3.4 0 0 1 3.391 3.386"/><path fill="#ff9811" d="M99.898 69.437H89.739V59.278Z"/><ellipse cx="10.196" cy="9.629" fill="#ffc477" rx="10.196" ry="9.629" transform="translate(76.668 2.266)"/><path fill="#2488ff" d="M84.659 50.812H64.341a73.6 73.6 0 0 0-2.303-18.866 33.7 33.7 0 0 0 10.769-6.21v20h11.462a33.5 33.5 0 0 1 .389 5.08Z"/><path fill="#9bc9ff" d="M64.341 50.812h20.318a34 34 0 0 1-1.067 8.468H69.42v15.745a33.5 33.5 0 0 0-7.822-3.813 72.1 72.1 0 0 0 2.743-20.4m8.482-25.703a2 2 0 0 0-.017.3v.322a33.7 33.7 0 0 1-10.768 6.217c-2.422-9.057-6.553-15-11.243-15a33.73 33.73 0 0 1 22.028 8.161"/><path fill="#2488ff" d="M69.42 75.025v4.064a33.64 33.64 0 0 1-18.625 5.587c4.419 0 8.33-5.283 10.8-13.461a33.5 33.5 0 0 1 7.823 3.81Z"/><path fill="#9bc9ff" d="M64.341 50.812H37.25q0-2.591.152-5.08h4.928a3.4 3.4 0 0 0 3.386-3.386v-8.838a36 36 0 0 0 5.08.372 33.4 33.4 0 0 0 11.243-1.93 73.6 73.6 0 0 1 2.3 18.862Z"/><path fill="#2488ff" d="M37.249 50.812h27.092a72.1 72.1 0 0 1-2.743 20.4 33.5 33.5 0 0 0-10.8-1.778 33 33 0 0 0-10.8 1.778 72.1 72.1 0 0 1-2.749-20.4"/><path fill="#9bc9ff" d="M50.796 69.437a33.5 33.5 0 0 1 10.8 1.778c-2.472 8.178-6.383 13.461-10.8 13.461s-8.33-5.283-10.8-13.461a33 33 0 0 1 10.8-1.778"/><path fill="#2488ff" d="M50.796 16.948c4.69 0 8.821 5.943 11.243 15a33.4 33.4 0 0 1-11.243 1.93 36 36 0 0 1-5.08-.371v-14.1a7.27 7.27 0 0 1 5.08-2.459"/><path fill="#ffc477" d="M45.716 33.508v8.838a3.4 3.4 0 0 1-3.386 3.386H11.852a3.4 3.4 0 0 1-3.386-3.386v-23.7a3.4 3.4 0 0 1 3.386-3.391H42.33a3.37 3.37 0 0 1 3.136 2.116 3.2 3.2 0 0 1 .254 1.27Z"/><path fill="#2488ff" d="M39.993 71.215c2.472 8.178 6.383 13.461 10.8 13.461a33.6 33.6 0 0 1-21.382-7.62 33.7 33.7 0 0 1 10.582-5.841"/><path fill="#9bc9ff" d="M39.993 71.212a33.7 33.7 0 0 0-10.582 5.841 33 33 0 0 1-5.52-5.689 10 10 0 0 0 1.507-5.317 10.184 10.184 0 0 0-8.043-9.935 32 32 0 0 1-.423-5.3H37.25a72.1 72.1 0 0 0 2.743 20.4"/><path fill="#ff7956" d="M38.943 11.869v3.386H11.852a3.4 3.4 0 0 0-3.386 3.386v23.7a3.4 3.4 0 0 0 3.386 3.386H5.079a3.4 3.4 0 0 1-3.386-3.381V5.096A3.4 3.4 0 0 1 5.079 1.71h6.773a3.41 3.41 0 0 1 3.386 3.386 3.4 3.4 0 0 0 3.386 3.386h16.933a3.4 3.4 0 0 1 3.386 3.386Z"/><path fill="#2488ff" d="M17.321 45.732h20.082q-.152 2.489-.152 5.08H16.932a33.5 33.5 0 0 1 .389-5.08"/><path fill="#b2fa09" d="M28.784 79.596V99.91H1.693V79.596a3.4 3.4 0 0 1 3.386-3.386h20.314a3.4 3.4 0 0 1 3.386 3.386Z"/><path fill="#ffc477" d="M25.398 66.05a10 10 0 0 1-1.507 5.317 10.159 10.159 0 1 1-8.653-15.476 9.7 9.7 0 0 1 2.116.22 10.184 10.184 0 0 1 8.043 9.939Z"/><path d="M101.591 45.733V25.41a5.08 5.08 0 0 0-5.08-5.08H94.63a11.852 11.852 0 1 0-16.556 0h-1.881a5.07 5.07 0 0 0-4.075 2.08A35.53 35.53 0 0 0 50.8 15.255a35 35 0 0 0-4.455.3 5.06 5.06 0 0 0-4.011-2h-1.698v-1.686a5.08 5.08 0 0 0-5.08-5.08H18.625a1.693 1.693 0 0 1-1.693-1.693 5.08 5.08 0 0 0-5.08-5.08H5.08A5.08 5.08 0 0 0 0 5.096v37.25a5.08 5.08 0 0 0 5.08 5.08h10.345a35 35 0 0 0-.186 3.386c0 1.156.073 2.286.179 3.395-.061 0-.119-.008-.179-.008a11.84 11.84 0 0 0-8.278 20.318H5.08A5.08 5.08 0 0 0 0 79.596V99.91a1.693 1.693 0 0 0 1.693 1.7h27.091a1.693 1.693 0 0 0 1.693-1.693V80.003a35.54 35.54 0 0 0 37.25 2.062V99.91a1.693 1.693 0 0 0 1.693 1.7H99.9a1.693 1.693 0 0 0 1.693-1.693v-30.48a1.7 1.7 0 0 0-.5-1.2L90.936 58.081a1.7 1.7 0 0 0-1.2-.5H85.7a36 36 0 0 0 .648-6.773c0-1.123-.075-2.255-.186-3.386H99.9a1.693 1.693 0 0 0 1.693-1.693Zm-23.7-33.864a8.466 8.466 0 1 1 8.466 8.466 8.466 8.466 0 0 1-8.466-8.466M50.8 82.983c-3.065 0-6.314-3.969-8.635-10.648a31.7 31.7 0 0 1 17.27 0c-2.322 6.675-5.573 10.648-8.635 10.648m-7.306-.828a31.7 31.7 0 0 1-11.283-5.08 32 32 0 0 1 6.747-3.654 29.8 29.8 0 0 0 4.536 8.733ZM50.8 67.744a35.4 35.4 0 0 0-9.634 1.355 70 70 0 0 1-2.187-16.589h23.633a70 70 0 0 1-2.179 16.581 35.5 35.5 0 0 0-9.633-1.347M39 49.119a79 79 0 0 1 .051-1.693h3.279a5.08 5.08 0 0 0 5.08-5.08v-6.952c1.141.107 2.276.179 3.386.179a35.5 35.5 0 0 0 10.024-1.471 72 72 0 0 1 1.793 15.017Zm11.8-16.932a34 34 0 0 1-3.386-.2V20.166a5.27 5.27 0 0 1 3.386-1.524c3.293 0 6.8 4.585 9.143 12.191a32 32 0 0 1-9.143 1.354m7.35-12.66a32.2 32.2 0 0 1 12.322 5.883 32 32 0 0 1-7.359 4.28 31.7 31.7 0 0 0-4.968-10.168ZM3.386 42.346V5.096A1.693 1.693 0 0 1 5.08 3.403h6.773a1.693 1.693 0 0 1 1.693 1.693 5.08 5.08 0 0 0 5.08 5.08h16.931a1.693 1.693 0 0 1 1.693 1.693v1.693h-25.4a5.08 5.08 0 0 0-5.08 5.08v23.7a5 5 0 0 0 .312 1.693h-2a1.693 1.693 0 0 1-1.696-1.689m6.773 0v-23.7a1.693 1.693 0 0 1 1.693-1.693H42.33a1.693 1.693 0 0 1 1.693 1.693v23.7a1.693 1.693 0 0 1-1.693 1.694H11.852a1.693 1.693 0 0 1-1.693-1.694m25.5 5.08a95 95 0 0 0-.051 1.693H18.691q.046-.847.139-1.693ZM18.691 52.51h16.9a73 73 0 0 0 2.37 17.675 35.5 35.5 0 0 0-8.486 4.717 33 33 0 0 1-3.556-3.725 11.808 11.808 0 0 0-7.015-16.388 23 23 0 0 1-.215-2.279Zm5.234 21.583c.125.146.261.284.389.428h-.8c.145-.141.275-.289.411-.433ZM6.773 66.051a8.466 8.466 0 1 1 8.466 8.466 8.466 8.466 0 0 1-8.466-8.466m20.318 32.17H3.386V79.596a1.693 1.693 0 0 1 1.694-1.693H25.4a1.693 1.693 0 0 1 1.693 1.693ZM58.12 82.136a29.9 29.9 0 0 0 4.528-8.733 32 32 0 0 1 5.08 2.572v2.165a31.9 31.9 0 0 1-9.608 3.996m12.993 16.085v-37.25h16.932v8.466a1.693 1.693 0 0 0 1.693 1.693H98.2v27.091Zm20.319-34.856 4.379 4.379h-4.379Zm-22.012-5.78a1.693 1.693 0 0 0-1.693 1.693V72.05a35 35 0 0 0-4.087-1.9A73 73 0 0 0 66 52.51h16.913a32.4 32.4 0 0 1-.677 5.08Zm13.48-8.466H66a75 75 0 0 0-1.971-16.138 35.5 35.5 0 0 0 7.086-3.813v16.565a1.693 1.693 0 0 0 1.693 1.693h9.954q.09.846.138 1.693m15.3-5.08H74.5V25.41a1.693 1.693 0 0 1 1.693-1.693h20.318A1.693 1.693 0 0 1 98.2 25.41Z"/><path d="M77.886 77.903h13.545v3.386H77.886Zm0 10.159h13.545v3.386H77.886Z"/></svg>