<svg xmlns="http://www.w3.org/2000/svg" width="123.672" height="114.721" viewBox="0 0 123.672 114.721"><path fill-rule="evenodd" d="M55.255 2.456A1.639 1.639 0 0 1 58.097.823l3.838 6.648a1.64 1.64 0 0 1-.6 2.235l-6.648 3.839a1.642 1.642 0 1 1-1.646-2.841l3.427-1.978a30.26 30.26 0 0 0-32.481 17.089 1.646 1.646 0 0 1-2.985-1.387 33.576 33.576 0 0 1 36-18.94l-1.75-3.032Zm-25.392 28.31a1.643 1.643 0 0 1 2.289.4l6.112 8.7a8.857 8.857 0 0 1 10.046 14.3l6.11 8.7a1.643 1.643 0 0 1-.4 2.289l-9.949 6.993a1.643 1.643 0 0 1-2.289-.4 5.57 5.57 0 0 0-9.117 6.4 1.643 1.643 0 0 1-.4 2.289l-4.616 3.242c1.109 3.61 1.079 5.808-.737 11.561l.42 2.9c1.112-.161 1.981-.407 2.973.334a2.6 2.6 0 0 1 1.012 1.706l1.21 8.366a2.585 2.585 0 0 1-2.193 2.926l-22.249 3.219a2.585 2.585 0 0 1-2.926-2.193l-1.2-8.261a2.59 2.59 0 0 1 2.271-3.045l1.143-.165-.445-3.077-4.32-10.507c-1.543-3.749-1.985-12.418.79-15.9l3.054-3.837-4.985-7.1a8.11 8.11 0 0 1 1.97-11.278l26.426-18.56Zm59.852 29.392-5.077-.184a8.86 8.86 0 0 1-8.9 6.9 8.85 8.85 0 0 1-8.493-7.525l-11.01-.4a1.64 1.64 0 0 1-1.582-1.7l.436-12.018a1.64 1.64 0 0 1 1.745-1.666 5.616 5.616 0 0 0 4.4-9.46 5.53 5.53 0 0 0-4.032-1.722 1.64 1.64 0 0 1-1.582-1.7l.441-12.155a1.64 1.64 0 0 1 1.7-1.582l30.746 1.116a9.987 9.987 0 0 1 9.6 10.32l-.161 4.441 4.652 1.555c4.226 1.413 8.577 8.9 9.328 12.908l2.1 11.173 1.3 2.817c1.1-.506 1.916-1.045 3.113-.6a2.58 2.58 0 0 1 1.456 1.344l3.542 7.676a2.587 2.587 0 0 1-1.265 3.431l-20.318 9.365a2.59 2.59 0 0 1-3.572-1.316l-3.5-7.579a2.586 2.586 0 0 1 1.264-3.431l.968-.447-1.228-2.661c-3.519-2.9-5.075-4.651-6.074-6.905Z"/><path fill="#696" fill-rule="evenodd" d="m26.548 80.44 2.609-1.833a8.857 8.857 0 0 1 14.244-10l7.386-5.188-6.045-8.611a1.64 1.64 0 0 1 .492-2.35 5.569 5.569 0 1 0-6.452-9.076 1.65 1.65 0 0 1-2.373-.438l-6-8.544-25.08 17.615a4.834 4.834 0 0 0-1.173 6.7l10.915 15.54-.379-2.647a4.867 4.867 0 0 1 9.621-1.469l1.771 8.972.469 1.326Z"/><path fill="#f6bfac" fill-rule="evenodd" d="M19.304 80.579a1.645 1.645 0 0 1-2.992 1.16L8.421 70.504l-2.45 3.079c-.805 1.012-1.2 3.064-1.291 5.3a19.5 19.5 0 0 0 .964 7.313l4.406 10.705a1.7 1.7 0 0 1 .107.392l.472 3.265 13.449-1.946-.473-3.273a1.64 1.64 0 0 1 .062-.733c2.093-6.535 1.622-7.864-.231-13.1-.073-.208-.154-.434-.47-1.338-.179-.463-1.661-8.232-1.891-9.4a1.658 1.658 0 0 0-2.573-1.129 1.44 1.44 0 0 0-.567 1.505l1.364 9.431Z"/><path fill="#eb5757" fill-rule="evenodd" d="m94.29 43.014.535-14.749a6.715 6.715 0 0 0-6.437-6.925L59.28 20.284l-.326 8.987a8.886 8.886 0 0 1-.636 17.515l-.324 8.937 10.859.394a1.64 1.64 0 0 1 1.582 1.639h.005a2 2 0 0 1-.009.177 5.576 5.576 0 0 0 5.31 5.65 2 2 0 0 1 .177.009 5.576 5.576 0 0 0 5.651-5.309 1.642 1.642 0 0 1 1.839-1.635l5.22.189c-.189-.727-.381-1.524-.6-2.418a208 208 0 0 0-.327-1.347l-3.4-8.481a4.928 4.928 0 0 1 4.592-6.854 4.58 4.58 0 0 1 4.277 2.854l1.119 2.426Z"/><path fill="#f6bfac" fill-rule="evenodd" d="m97.819 36.24-.5 13.676a1.644 1.644 0 0 1-3.134.718l-4-8.67a1.5 1.5 0 0 0-2.582-.375 1.615 1.615 0 0 0-.256 1.777c.418 1.043 3.435 8.464 3.525 8.869l.342 1.422c1.3 5.392 1.624 6.761 6.942 11.1a1.6 1.6 0 0 1 .455.586l1.384 3 12.34-5.695c-.255-.552-1.43-2.978-1.506-3.385l-2.136-11.377a19.5 19.5 0 0 0-3.177-6.658c-1.293-1.83-2.743-3.333-3.965-3.742l-3.735-1.248Z"/><path fill="#6babff" fill-rule="evenodd" d="m26.175 101.63-18.872 2.729 1.01 6.981 20.863-3.018-1.01-6.981ZM99.89 72.015l-1.83.844 2.956 6.405 19.142-8.833-2.956-6.4Z"/></svg>