<svg xmlns="http://www.w3.org/2000/svg" width="77.326" height="65.891" viewBox="0 0 77.326 65.891"><g transform="translate(29.886 -10.121)"><g transform="translate(-29.886 10.121)"><g fill-rule="evenodd" transform="translate(39.069 37.712)"><path fill="#fc685b" d="M.858 16.136h4.233a.86.86 0 0 1 .858.858v8.646a.86.86 0 0 1-.858.858H.858A.86.86 0 0 1 0 25.64v-8.646a.86.86 0 0 1 .858-.858"/><path fill="#72d561" d="M11.246 4.653h4.233a.86.86 0 0 1 .858.858v20.13a.86.86 0 0 1-.858.858h-4.233a.86.86 0 0 1-.858-.858V5.511a.86.86 0 0 1 .858-.858"/><path fill="#ffda2d" d="M21.634 9.591h4.233a.86.86 0 0 1 .858.858V25.64a.86.86 0 0 1-.858.858h-4.233a.86.86 0 0 1-.858-.858V10.449a.86.86 0 0 1 .858-.858"/><path fill="#64b5f6" d="M32.022 0h4.233a.86.86 0 0 1 .858.858V25.64a.86.86 0 0 1-.858.858h-4.233a.86.86 0 0 1-.858-.858V.858A.86.86 0 0 1 32.022 0"/></g><g fill-rule="evenodd" transform="translate(5.559 37.261)"><path fill="#ffda2d" d="M.858 21.504h4.267a.86.86 0 0 1 .858.858v4.267a.86.86 0 0 1-.858.858H.858a.86.86 0 0 1-.854-.858v-4.267a.86.86 0 0 1 .854-.858"/><path fill="#72d561" d="M.858 10.752h4.267a.86.86 0 0 1 .858.858v4.267a.86.86 0 0 1-.858.858H.858a.86.86 0 0 1-.854-.858V11.61a.86.86 0 0 1 .854-.858"/><path fill="#64b5f6" d="M.858 0h4.267a.86.86 0 0 1 .858.858v4.267a.86.86 0 0 1-.858.858H.858a.86.86 0 0 1-.854-.858V.858A.86.86 0 0 1 .858 0"/></g><circle cx="13.418" cy="13.418" r="13.418" fill="#64b5f6" transform="rotate(-45 22.904 9.487)"/><path fill="#ffda2d" fill-rule="evenodd" d="M18.977 5.556v13.416l12.324 5.316A13.425 13.425 0 0 0 18.977 5.553Z"/><path fill="#72d561" fill-rule="evenodd" d="m31.302 24.291-12.324-5.317-8.055 10.731a13.423 13.423 0 0 0 20.382-5.414Z"/><circle cx="5.632" cy="5.632" r="5.632" fill="#eff4f7" transform="rotate(-9.2 95.157 -70.534)"/></g><path fill-rule="evenodd" d="M-19.487 73.724h-3.695v-3.7h3.695Zm1.144-5.983h-5.983a1.143 1.143 0 0 0-1.143 1.144v5.983a1.143 1.143 0 0 0 1.144 1.144h5.982a1.143 1.143 0 0 0 1.144-1.144v-5.983a1.143 1.143 0 0 0-1.144-1.144M2.585 74.33a1.143 1.143 0 0 1-1.144 1.144h-14.486a1.144 1.144 0 0 1 0-2.287H1.441a1.143 1.143 0 0 1 1.144 1.143m0-4.907a1.145 1.145 0 0 1-1.144 1.144h-14.486a1.144 1.144 0 0 1 0-2.288H1.441a1.143 1.143 0 0 1 1.144 1.145Zm-22.072-6.451h-3.695v-3.7h3.695Zm1.144-5.983h-5.983a1.145 1.145 0 0 0-1.143 1.144v5.983a1.143 1.143 0 0 0 1.144 1.144h5.982a1.143 1.143 0 0 0 1.144-1.144v-5.983a1.145 1.145 0 0 0-1.144-1.144m20.928 1.683a1.144 1.144 0 0 1-1.144 1.144h-14.486a1.144 1.144 0 1 1 0-2.287H1.441a1.143 1.143 0 0 1 1.144 1.143m0 4.907a1.143 1.143 0 0 1-1.144 1.143h-14.486a1.144 1.144 0 0 1 0-2.288H1.441a1.143 1.143 0 0 1 1.144 1.144ZM-19.487 52.22h-3.695v-3.7h3.695Zm1.144-5.983h-5.983a1.144 1.144 0 0 0-1.143 1.143v5.983a1.144 1.144 0 0 0 1.144 1.144h5.982a1.144 1.144 0 0 0 1.144-1.144V47.38a1.144 1.144 0 0 0-1.144-1.143M9.643 35.363a1.144 1.144 0 0 1 1.144-1.144h18.692a1.144 1.144 0 0 1 0 2.288H10.787a1.144 1.144 0 0 1-1.144-1.144m0-6.269a1.144 1.144 0 0 1 1.144-1.142h18.692a1.144 1.144 0 1 1 0 2.287H10.787a1.144 1.144 0 0 1-1.144-1.145m0-6.267a1.144 1.144 0 0 1 1.144-1.144h18.692a1.144 1.144 0 0 1 0 2.287H10.787a1.145 1.145 0 0 1-1.144-1.143M.766 32.884l-5.089-2.195a6.77 6.77 0 0 0-5.446-8.271v-5.543A12.27 12.27 0 0 1 .766 32.884m-11.674 8.485A12.28 12.28 0 0 0-.142 34.984l-5.091-2.2a6.763 6.763 0 0 1-8.769 2.33l-3.326 4.438a12.2 12.2 0 0 0 6.42 1.817m-12.274-12.275a12.29 12.29 0 0 1 11.131-12.219v5.542a6.768 6.768 0 0 0-3.778 11.326l-3.328 4.434a12.25 12.25 0 0 1-4.025-9.082Zm7.786 0a4.489 4.489 0 1 0 4.488-4.488 4.493 4.493 0 0 0-4.488 4.488m4.488-14.562A14.562 14.562 0 1 0 3.654 29.094a14.58 14.58 0 0 0-14.562-14.562M2.585 47.919a1.143 1.143 0 0 1-1.144 1.144h-14.486a1.144 1.144 0 0 1 0-2.288H1.441a1.143 1.143 0 0 1 1.144 1.144m0 4.907a1.143 1.143 0 0 1-1.144 1.144h-14.486a1.144 1.144 0 0 1 0-2.288H1.441a1.143 1.143 0 0 1 1.144 1.144m30.236-5.424 8.014-7.4-1.5-.07a1.144 1.144 0 0 1 .107-2.285l4.379.206a1.144 1.144 0 0 1 1.073 1.347l-.783 4.313a1.14 1.14 0 0 1-1.125.939 1 1 0 0 1-.2-.019 1.143 1.143 0 0 1-.921-1.33l.2-1.122-8.354 7.714a1.144 1.144 0 0 1-1.413.11l-9.5-6.364-9.732 12.656a1.143 1.143 0 0 1-1.813-1.394L21.64 41.196a1.144 1.144 0 0 1 1.542-.253Zm12.332 25.785V48.976h-3.661v24.211Zm1.144-26.5h-5.949a1.143 1.143 0 0 0-1.144 1.144v26.5a1.143 1.143 0 0 0 1.144 1.144h5.949a1.143 1.143 0 0 0 1.144-1.144V47.832a1.143 1.143 0 0 0-1.144-1.143Zm-32.308 26.5h-3.658v-8.075h3.661Zm1.142-10.362H9.184a1.143 1.143 0 0 0-1.144 1.144v10.362a1.143 1.143 0 0 0 1.144 1.144h5.947a1.144 1.144 0 0 0 1.144-1.144V63.968a1.144 1.144 0 0 0-1.144-1.143m9.246 10.362V53.628h-3.662v19.559Zm1.144-21.846h-5.95a1.146 1.146 0 0 0-1.14 1.143V74.33a1.145 1.145 0 0 0 1.144 1.144h5.95a1.145 1.145 0 0 0 1.144-1.144V52.484a1.146 1.146 0 0 0-1.147-1.144Zm9.244 21.846h-3.66v-14.62h3.661Zm1.144-16.907h-5.948a1.143 1.143 0 0 0-1.144 1.144v16.907a1.143 1.143 0 0 0 1.144 1.144h5.948a1.143 1.143 0 0 0 1.144-1.144V57.424a1.143 1.143 0 0 0-1.144-1.144"/></g></svg>