<svg xmlns="http://www.w3.org/2000/svg" width="88.334" height="88.334" viewBox="0 0 88.334 88.334"><g transform="translate(1.425 1.425)"><path fill="#cf9e76" d="m74.1 55.337-.513-.214a2.92 2.92 0 0 1-1.681-1.8A2.97 2.97 0 0 0 69.1 51.29h10.686V14.247h5.7v42.742h-4.333l-.014.014a.7.7 0 0 0-.157-.2l-1.012-1.012a2.94 2.94 0 0 0-3.419-.544 2.9 2.9 0 0 1-1.325.313 2.8 2.8 0 0 1-1.126-.223M42.742 51.29h24.933a2.97 2.97 0 0 0-2.807 2.037 2.92 2.92 0 0 1-1.681 1.8l-.513.214a2.9 2.9 0 0 1-2.45-.094 3 3 0 0 0-1.339-.328 2.95 2.95 0 0 0-2.08.869L55.793 56.8a.7.7 0 0 0-.157.2l-.014-.014h-8.606v1.425a4.274 4.274 0 0 1-8.548 0v-1.422H0V14.247h5.7V51.29Z"/><path fill="#e6e9ed" d="M42.742 0H5.699v51.291h74.087V0Z"/><circle cx="10" cy="10" r="10" fill="#ffeaa7" transform="translate(11.575 5.575)"/><path fill="#ff826e" d="M21.372 19.946a5.7 5.7 0 0 1 5.443 4.075 9.93 9.93 0 0 1-10.885 0 5.7 5.7 0 0 1 5.442-4.075"/><circle cx="4" cy="4" r="4" fill="#ff826e" transform="translate(17.575 11.576)"/><path fill="#fcd770" d="M72.661 14.247a8.555 8.555 0 0 1-8.549 8.548 8.47 8.47 0 0 1-6.041-2.508l6.041-6.04Z"/><path fill="#ff826e" d="M64.113 5.699v8.548l-6.041 6.041a8.47 8.47 0 0 1-2.507-6.041 8.555 8.555 0 0 1 8.548-8.548"/><path fill="#b4dd7f" d="M72.661 14.247h-8.548V5.699a8.555 8.555 0 0 1 8.548 8.548"/><path fill="#ff826e" d="M54.14 28.495h19.946v5.7H54.14Z"/><path fill="#fcd770" d="M48.443 41.318v2.849a1.43 1.43 0 0 1-1.427 1.426h-8.548a1.43 1.43 0 0 1-1.425-1.426v-2.849a1.43 1.43 0 0 1 1.425-1.425h8.548a1.43 1.43 0 0 1 1.427 1.425m0-11.398v2.849a1.43 1.43 0 0 1-1.427 1.426h-8.548a1.43 1.43 0 0 1-1.425-1.426V29.92a1.43 1.43 0 0 1 1.425-1.425h8.548a1.43 1.43 0 0 1 1.427 1.425m0-11.398v2.849a1.43 1.43 0 0 1-1.427 1.426h-8.548a1.43 1.43 0 0 1-1.425-1.426v-2.849a1.43 1.43 0 0 1 1.425-1.425h8.548a1.43 1.43 0 0 1 1.427 1.425m0-11.398v2.849a1.43 1.43 0 0 1-1.427 1.426h-8.548a1.43 1.43 0 0 1-1.425-1.426V7.124a1.43 1.43 0 0 1 1.425-1.425h8.548a1.43 1.43 0 0 1 1.427 1.425"/><path fill="#ccd1d9" d="M47.173 77.72a2.317 2.317 0 0 1 0 4.132l-7.28 3.635v-11.4ZM11.4 79.787v5.7H2.849A2.86 2.86 0 0 1 0 82.635v-5.7a2.86 2.86 0 0 1 2.849-2.848H11.4Z"/><path fill="#ff826e" d="M11.398 79.786h28.495v5.7H11.398Z"/><path fill="#fcd770" d="M11.398 74.087h28.495v5.7H11.398Z"/><circle cx="3" cy="3" r="3" fill="#ff826e" transform="translate(22.575 62.576)"/><circle cx="3" cy="3" r="3" fill="#ff826e" transform="translate(11.575 62.576)"/><circle cx="3" cy="3" r="3" fill="#ff826e" transform="translate(-.425 62.576)"/><path fill="#ffc729" d="M81.524 60.224a2.9 2.9 0 0 0-.085 2.451l.214.513a2.92 2.92 0 0 0 1.8 1.681 2.97 2.97 0 0 1 2.037 2.807v1.425a2.97 2.97 0 0 1-2.037 2.807 2.92 2.92 0 0 0-1.8 1.681l-.214.513a2.8 2.8 0 0 0-.228 1.126 2.9 2.9 0 0 0 .313 1.325 2.94 2.94 0 0 1-.541 3.419l-1.012 1.011a2.95 2.95 0 0 1-2.08.869 3 3 0 0 1-1.339-.328 2.9 2.9 0 0 0-2.451-.085l-.513.214a2.92 2.92 0 0 0-1.681 1.8A2.97 2.97 0 0 1 69.1 85.49h-1.424a2.97 2.97 0 0 1-2.807-2.037 2.92 2.92 0 0 0-1.681-1.8l-.513-.214a2.8 2.8 0 0 0-1.126-.228 2.9 2.9 0 0 0-1.325.313 2.94 2.94 0 0 1-3.419-.541l-1.014-1.012a2.95 2.95 0 0 1-.869-2.08 3 3 0 0 1 .328-1.339 2.9 2.9 0 0 0 .085-2.451l-.214-.513a2.92 2.92 0 0 0-1.8-1.681 2.97 2.97 0 0 1-2.03-2.807v-1.424a2.97 2.97 0 0 1 2.037-2.807 2.92 2.92 0 0 0 1.8-1.681l.214-.513a2.8 2.8 0 0 0 .228-1.126 2.9 2.9 0 0 0-.313-1.325 2.9 2.9 0 0 1 .385-3.22.7.7 0 0 1 .157-.2l1.006-1.013a2.95 2.95 0 0 1 2.08-.869 3 3 0 0 1 1.339.328 2.9 2.9 0 0 0 2.451.085l.513-.214a2.92 2.92 0 0 0 1.681-1.8 2.97 2.97 0 0 1 2.807-2.03h1.425a2.97 2.97 0 0 1 2.807 2.037 2.92 2.92 0 0 0 1.681 1.8l.513.214a2.8 2.8 0 0 0 1.126.228 2.9 2.9 0 0 0 1.325-.313 2.94 2.94 0 0 1 3.419.541l1.012 1.012a.7.7 0 0 1 .157.2 2.82 2.82 0 0 1 .712 1.881 3 3 0 0 1-.328 1.339Zm-4.588 8.167a8.548 8.548 0 1 0-8.545 8.545 8.555 8.555 0 0 0 8.545-8.545"/><path fill="#fcd770" d="M68.387 59.839a8.548 8.548 0 1 1-8.548 8.548 8.555 8.555 0 0 1 8.548-8.548m2.852 8.548a2.849 2.849 0 1 0-2.852 2.852 2.86 2.86 0 0 0 2.852-2.852"/></g><path d="M88.334 14.247h-5.7V0H5.7v14.247H0v45.592h38.468a5.7 5.7 0 1 0 11.4 0h5.1a4.37 4.37 0 0 0 .436 2.452 1.47 1.47 0 0 1 .054 1.245q-.12.276-.229.556a1.46 1.46 0 0 1-.923.849 4.37 4.37 0 0 0-3.015 4.159v1.419a4.37 4.37 0 0 0 3.015 4.162 1.46 1.46 0 0 1 .92.846q.109.282.229.56a1.47 1.47 0 0 1-.054 1.244 4.37 4.37 0 0 0 .812 5.074l1 1a4.37 4.37 0 0 0 5.074.812 1.46 1.46 0 0 1 1.245-.054q.276.12.556.229a1.46 1.46 0 0 1 .849.923 4.38 4.38 0 0 0 4.163 3.019h1.419a4.37 4.37 0 0 0 4.162-3.015 1.46 1.46 0 0 1 .846-.92q.282-.108.56-.229a1.46 1.46 0 0 1 1.244.054 4.37 4.37 0 0 0 5.074-.812l1-1a4.37 4.37 0 0 0 .812-5.074 1.47 1.47 0 0 1-.054-1.245q.12-.277.229-.556a1.46 1.46 0 0 1 .923-.849 4.38 4.38 0 0 0 3.012-4.163V69.1a4.37 4.37 0 0 0-3.015-4.162 1.46 1.46 0 0 1-.92-.846 14 14 0 0 0-.229-.56 1.47 1.47 0 0 1 .054-1.244 4.37 4.37 0 0 0 .436-2.452h3.674ZM70.522 51.291h-24.93v-2.85h2.849a2.85 2.85 0 0 0 2.849-2.849v-2.85a2.85 2.85 0 0 0-2.849-2.849h-2.849v-2.85h2.849a2.85 2.85 0 0 0 2.849-2.849v-2.85a2.85 2.85 0 0 0-2.849-2.849h-2.849v-2.85h2.849a2.85 2.85 0 0 0 2.85-2.845v-2.854a2.85 2.85 0 0 0-2.85-2.846h-2.849v-2.853h2.849a2.85 2.85 0 0 0 2.85-2.847V8.548a2.85 2.85 0 0 0-2.85-2.848h-2.849V2.849h34.194v48.442Zm-22.081-8.549v2.849h-8.55v-2.849Zm0-11.4v2.849h-8.55v-2.847Zm0-11.4V22.8h-8.55v-2.854Zm0-11.4V11.4h-8.55V8.548ZM8.548 2.849h34.194V5.7h-2.849a2.85 2.85 0 0 0-2.849 2.849V11.4a2.85 2.85 0 0 0 2.849 2.849h2.849V17.1h-2.849a2.85 2.85 0 0 0-2.849 2.849V22.8a2.85 2.85 0 0 0 2.849 2.849h2.849v2.849h-2.849a2.85 2.85 0 0 0-2.849 2.849v2.849a2.85 2.85 0 0 0 2.849 2.849h2.849v2.849h-2.849a2.85 2.85 0 0 0-2.849 2.849v2.849a2.85 2.85 0 0 0 2.849 2.849h2.849v2.849H8.548ZM47.016 56.99v2.849a2.849 2.849 0 1 1-5.7 0V56.99H2.849V17.1H5.7v37.04h59.31c-.021.057-.05.108-.07.165a1.46 1.46 0 0 1-.849.92q-.28.109-.557.229a1.46 1.46 0 0 1-1.244-.054 4.37 4.37 0 0 0-5.074.812l-.775.776Zm37.416 10.658a1.53 1.53 0 0 1 1.052 1.452v1.419a1.53 1.53 0 0 1-1.054 1.455 4.3 4.3 0 0 0-2.687 2.526c-.06.152-.123.3-.187.453a4.3 4.3 0 0 0 .124 3.664 1.53 1.53 0 0 1-.284 1.772l-1 1a1.53 1.53 0 0 1-1.772.284 4.3 4.3 0 0 0-3.663-.124q-.224.1-.457.188a4.3 4.3 0 0 0-2.523 2.688 1.53 1.53 0 0 1-1.455 1.053H69.1a1.53 1.53 0 0 1-1.455-1.054 4.3 4.3 0 0 0-2.525-2.687c-.152-.06-.3-.123-.453-.187a4.2 4.2 0 0 0-1.69-.352 4.4 4.4 0 0 0-1.975.474 1.53 1.53 0 0 1-1.772-.284l-1-1a1.53 1.53 0 0 1-.284-1.772 4.3 4.3 0 0 0 .124-3.663q-.1-.224-.188-.457a4.3 4.3 0 0 0-2.688-2.523 1.525 1.525 0 0 1-1.053-1.453V69.1a1.53 1.53 0 0 1 1.053-1.455 4.3 4.3 0 0 0 2.688-2.525c.06-.152.123-.3.187-.453a4.3 4.3 0 0 0-.124-3.664 1.53 1.53 0 0 1 .284-1.774l1-1A1.52 1.52 0 0 1 61 57.946a4.3 4.3 0 0 0 3.663.124c.151-.066.3-.128.456-.187a4.31 4.31 0 0 0 2.525-2.688A1.53 1.53 0 0 1 69.1 54.14h1.419a1.53 1.53 0 0 1 1.455 1.054 4.3 4.3 0 0 0 2.526 2.688c.152.06.3.123.454.187a4.3 4.3 0 0 0 3.664-.124 1.53 1.53 0 0 1 1.774.284l1 1A1.53 1.53 0 0 1 81.679 61a4.3 4.3 0 0 0-.124 3.663q.1.224.188.457a4.3 4.3 0 0 0 2.688 2.523Zm1.052-10.658h-2.3l-.775-.775a4.37 4.37 0 0 0-5.074-.812 1.46 1.46 0 0 1-1.245.054q-.274-.119-.556-.229a1.46 1.46 0 0 1-.849-.923c-.019-.057-.047-.107-.068-.162h8.018V17.1h2.849Z"/><path d="M22.798 5.699a11.4 11.4 0 1 0 11.4 11.4 11.41 11.41 0 0 0-11.4-11.4M19.19 24.838a4.205 4.205 0 0 1 7.212 0 8.45 8.45 0 0 1-7.212 0m.757-7.741a2.849 2.849 0 1 1 2.851 2.849 2.85 2.85 0 0 1-2.852-2.847Zm8.8 6.124a7 7 0 0 0-1.986-2.045 5.7 5.7 0 1 0-7.933 0 7 7 0 0 0-1.986 2.045 8.548 8.548 0 1 1 11.905 0M11.398 34.194h2.849v2.849h-2.849Zm0 5.699h2.849v2.849h-2.849Zm0 5.699h2.849v2.849h-2.849Zm5.699-11.398h17.1v2.849h-17.1Zm0 5.699h17.1v2.849h-17.1Zm0 5.699h17.1v2.849h-17.1Zm48.441-19.947a9.973 9.973 0 1 0-9.973-9.973 9.984 9.984 0 0 0 9.973 9.973m0-2.849a7.1 7.1 0 0 1-3.922-1.187l4.512-4.51h6.39a7.14 7.14 0 0 1-6.98 5.7Zm6.98-8.548h-5.553V8.692a7.15 7.15 0 0 1 5.553 5.555Zm-8.4-5.555v6.39l-4.517 4.516a7.11 7.11 0 0 1 4.512-10.9Zm-9.978 28.35h22.8v-8.548h-22.8Zm2.849-5.7h17.1v2.852h-17.1Zm-2.849 8.55h22.8v2.849h-22.8Zm0 5.699h22.8v2.849h-22.8Zm15.672 14.247a9.973 9.973 0 1 0 9.973 9.973 9.984 9.984 0 0 0-9.973-9.973m0 17.1a7.124 7.124 0 1 1 7.127-7.127 7.13 7.13 0 0 1-7.127 7.127"/><path d="M69.812 65.538a4.274 4.274 0 1 0 4.274 4.274 4.28 4.28 0 0 0-4.274-4.274m0 5.7a1.425 1.425 0 1 1 1.426-1.426 1.427 1.427 0 0 1-1.426 1.426m-20.583 6.636-7.575-3.787H4.274A4.28 4.28 0 0 0 0 78.361v5.7a4.28 4.28 0 0 0 4.274 4.274h37.38l7.574-3.787a3.731 3.731 0 0 0 0-6.673Zm-34.982-.937h25.646v2.85H14.247Zm0 5.7h25.646v2.85H14.247Zm-11.4 1.425v-5.7a1.427 1.427 0 0 1 1.425-1.425H11.4v8.55H4.274a1.427 1.427 0 0 1-1.425-1.427ZM47.947 82l-5.212 2.606v-6.789l5.213 2.606a.881.881 0 0 1 0 1.576ZM4.274 71.237A4.274 4.274 0 1 0 0 66.963a4.28 4.28 0 0 0 4.274 4.274m0-5.7a1.425 1.425 0 1 1-1.425 1.425 1.427 1.427 0 0 1 1.425-1.424Zm15.672 1.426a4.274 4.274 0 1 0-4.274 4.274 4.28 4.28 0 0 0 4.274-4.274m-5.7 0a1.425 1.425 0 1 1 1.426 1.426 1.427 1.427 0 0 1-1.425-1.426Zm17.098 0a4.274 4.274 0 1 0-4.274 4.274 4.28 4.28 0 0 0 4.274-4.274m-5.7 0a1.425 1.425 0 1 1 1.426 1.426 1.427 1.427 0 0 1-1.425-1.426Z"/></svg>