<svg xmlns="http://www.w3.org/2000/svg" width="101.347" height="97.608" viewBox="0 0 101.347 97.608"><path fill="#f0b16e" fill-rule="evenodd" d="M49.205 59.151h50.707v30.747a3.084 3.084 0 0 1-3.078 3.078H52.283a3.084 3.084 0 0 1-3.078-3.078Z"/><g fill="#ffe177" fill-rule="evenodd" transform="translate(32.099 1.435)"><path d="M17.106 57.716h50.707v4.485l-14.154 8.84a9.24 9.24 0 0 1-5.108 1.464H36.369a9.24 9.24 0 0 1-5.109-1.464l-14.154-8.84ZM4.827 4.827h6.436V18.86H4.827Z"/><path d="M1.253 0h13.585a1.257 1.257 0 0 1 1.251 1.253v5.54a1.257 1.257 0 0 1-1.253 1.253H1.253A1.257 1.257 0 0 1 0 6.793v-5.54A1.257 1.257 0 0 1 1.253 0"/></g><path fill="#88c8fe" fill-rule="evenodd" d="M40.145 17.077a33.74 33.74 0 0 1 26.964 13.421l-5.183 5.183A26.551 26.551 0 1 0 24.96 72.647l-5.183 5.183A33.791 33.791 0 0 1 40.15 17.079Z"/><path fill="#1e2f3f" fill-rule="evenodd" d="m24.392 70.428-.962-.818 2.936-2.934a1.435 1.435 0 1 0-2.027-2.032l-2.936 2.935a25.27 25.27 0 0 1-6.328-15.216v-.053h4.158a1.437 1.437 0 0 0 0-2.873h-4.158a24.92 24.92 0 0 1 6.34-15.269l2.923 2.929a1.435 1.435 0 1 0 2.027-2.032l-2.923-2.927a25 25 0 0 1 15.266-6.335v4.152a1.436 1.436 0 1 0 2.871 0v-4.157a26 26 0 0 1 4.444.657 25.1 25.1 0 0 1 10.838 5.675l-2.936 2.931a1.438 1.438 0 0 0 1.013 2.449 1.42 1.42 0 0 0 1.013-.42l2.936-2.935 1.143 1.38-35.21 35.219Zm-16.6-19.559A32.1 32.1 0 0 0 19.663 75.91l3.105-3.106A27.985 27.985 0 1 1 62.084 33.49l3.105-3.105a32.357 32.357 0 0 0-57.4 20.484Zm30.567-39.952h3.573v4.772a35 35 0 0 0-3.573 0Zm-4.82-8.045h13.214v5.174H33.539Zm53.283 7.906a1.433 1.433 0 0 0-2.027 0L67.229 28.346a35.2 35.2 0 0 0-22.425-12.4v-5.029h2.131a2.693 2.693 0 0 0 2.69-2.69V2.688A2.693 2.693 0 0 0 46.935 0H33.357a2.693 2.693 0 0 0-2.69 2.688v5.539a2.693 2.693 0 0 0 2.69 2.69h2.131v5.033a35.222 35.222 0 0 0-17.865 62L.423 95.156a1.435 1.435 0 1 0 2.027 2.031L86.822 12.81a1.44 1.44 0 0 0 0-2.031ZM27.185 50.61a1.437 1.437 0 0 0 1.4 1.466l11.528.234a1.443 1.443 0 0 0 1.362-1.993l-7.64-18.36a1.442 1.442 0 0 0-2.664 1.1l6.8 16.328-9.316-.188a1.43 1.43 0 0 0-1.47 1.413m69.654 40.933a1.645 1.645 0 0 0 1.637-1.641V66.226l-11.953 7.468a10.65 10.65 0 0 1-5.873 1.682h-4.651v2.242a1.436 1.436 0 1 1-2.871 0v-2.242h-4.665a10.6 10.6 0 0 1-5.86-1.682l-11.966-7.468v23.673a1.65 1.65 0 0 0 1.65 1.641h44.552ZM62.575 60.589H50.638v2.253l13.486 8.417a7.74 7.74 0 0 0 4.34 1.246h4.664v-2.279a1.436 1.436 0 1 1 2.871 0v2.279h4.651a7.8 7.8 0 0 0 4.353-1.246l13.472-8.417v-2.253H86.549l-.26.118-.052-.118H62.89l-.065.118Zm4-7.754a2.98 2.98 0 0 1 2.781-1.754h10.407a2.98 2.98 0 0 1 2.781 1.754l2.326 4.881H64.254Zm33.339 4.881H88.043l-2.91-6.118a5.82 5.82 0 0 0-5.366-3.39H69.36a5.84 5.84 0 0 0-5.379 3.39l-2.906 6.118H49.208a1.44 1.44 0 0 0-1.442 1.436v30.747a4.52 4.52 0 0 0 4.521 4.514h44.552a4.52 4.52 0 0 0 4.508-4.514V59.152a1.43 1.43 0 0 0-1.429-1.436Z"/></svg>