<svg xmlns="http://www.w3.org/2000/svg" width="104.978" height="104.978" viewBox="0 0 104.978 104.978"><g transform="translate(1.693 1.693)"><path fill="#e6e9ed" d="M8.466 0h67.727v101.591H8.466Z"/><path fill="#969faa" d="M82.965 67.727v13.546a6.773 6.773 0 0 1-13.545 0V67.727a3.4 3.4 0 0 1 3.386-3.386h6.773a3.4 3.4 0 0 1 3.386 3.386"/><path fill="#ccd1d9" d="M81.273 57.06v3.894a3.4 3.4 0 0 1-3.386 3.386H74.5a3.4 3.4 0 0 1-3.386-3.386V57.06a25.7 25.7 0 0 0 10.159 0"/><path fill="#fcd770" d="M76.195 6.773a25.4 25.4 0 0 1 5.08 50.288 25.7 25.7 0 0 1-10.159 0 25.4 25.4 0 0 1 5.079-50.288"/><circle cx="18.692" cy="18.692" r="18.692" fill="#69d6f4" transform="translate(57.544 13.033)"/><path fill="#5cd6b3" d="M54.182 62.647v10.159l-4.3 1.371a24.6 24.6 0 0 1-2.1 5.113l2.066 4-7.2 7.179-4-2.049a24.6 24.6 0 0 1-5.113 2.1l-1.371 4.3H22.011l-1.371-4.3a24.6 24.6 0 0 1-5.113-2.1l-4 2.049-3.065-3.048-4.127-4.134 2.066-4a24.6 24.6 0 0 1-2.1-5.113L0 72.806V62.647l4.3-1.371a24.6 24.6 0 0 1 2.1-5.113l-2.066-4 4.132-4.127 3.065-3.065 4 2.066a24.6 24.6 0 0 1 5.113-2.1l1.367-4.301H32.17l1.371 4.3a24.6 24.6 0 0 1 5.113 2.1l4-2.066 7.2 7.2-2.066 4a24.6 24.6 0 0 1 2.1 5.113Z"/><path fill="#ff826e" d="M15.239 6.773h30.477v13.545H15.239Z"/><circle cx="16.993" cy="16.993" r="16.993" fill="#ffeaa7" transform="translate(9.965 50.418)"/><circle cx="6.797" cy="6.797" r="6.797" fill="#ff826e" transform="translate(20.16 60.613)"/></g><path d="M28.784 88.045A18.625 18.625 0 1 0 10.159 69.42a18.647 18.647 0 0 0 18.625 18.625M13.645 71.113h6.844a8.49 8.49 0 0 0 6.6 6.6v6.844a15.26 15.26 0 0 1-13.444-13.444m15.139-6.773a5.08 5.08 0 1 1-5.08 5.08 5.086 5.086 0 0 1 5.08-5.08m1.693 20.218v-6.843a8.49 8.49 0 0 0 6.6-6.6h6.844a15.26 15.26 0 0 1-13.444 13.444Zm13.446-16.831h-6.844a8.49 8.49 0 0 0-6.6-6.6v-6.846a15.26 15.26 0 0 1 13.444 13.446M27.091 54.281v6.844a8.49 8.49 0 0 0-6.6 6.6h-6.846a15.26 15.26 0 0 1 13.446-13.444m30.477-20.418a20.318 20.318 0 1 0 20.318-20.318 20.34 20.34 0 0 0-20.318 20.318m37.25 0a16.932 16.932 0 1 1-16.932-16.932 16.95 16.95 0 0 1 16.932 16.932"/><path d="M84.659 60.062a27.053 27.053 0 0 0-5.08-53.2V0H8.466v49.031l-4.5 4.5 2.221 4.316a25.6 25.6 0 0 0-1.556 3.774L0 63.107v12.629l4.629 1.483a25.4 25.4 0 0 0 1.556 3.774l-2.221 4.316 4.5 4.5v15.168H79.58V91.261a8.48 8.48 0 0 0 6.773-8.295V69.42a5.07 5.07 0 0 0-2.372-4.282 5 5 0 0 0 .679-2.491Zm-5.08 4.279h-3.386a1.694 1.694 0 0 1-1.693-1.693v-1.929a24.5 24.5 0 0 0 6.773 0v1.929a1.694 1.694 0 0 1-1.693 1.693Zm22.011-30.477a23.7 23.7 0 1 1-23.7-23.7 23.73 23.73 0 0 1 23.701 23.7ZM9.573 80.152a22 22 0 0 1-1.951-4.736l-.247-.875-3.989-1.275v-7.689l3.99-1.277.247-.875a21.8 21.8 0 0 1 1.952-4.736l.444-.794-1.914-3.715 5.439-5.439 3.715 1.913.794-.444a21.8 21.8 0 0 1 4.736-1.952l.875-.247 1.275-3.989h7.689l1.272 3.99.875.247a21.8 21.8 0 0 1 4.736 1.952l.794.444 3.715-1.913 5.439 5.438-1.909 3.715.444.794a21.8 21.8 0 0 1 1.952 4.736l.247.875 3.989 1.275v7.689l-3.989 1.277-.247.875a22 22 0 0 1-1.951 4.736l-.445.792 1.913 3.717-5.439 5.439-3.717-1.912-.792.445a22 22 0 0 1-4.736 1.951l-.875.247-1.275 3.989h-7.688l-1.277-3.989-.875-.247a22 22 0 0 1-4.736-1.951l-.792-.445-3.717 1.912-5.439-5.439 1.913-3.717Zm2.279 21.439v-8.4l1.048 1.046 4.316-2.22a25.4 25.4 0 0 0 3.774 1.556l1.48 4.627H35.1l1.483-4.629a25.4 25.4 0 0 0 3.774-1.556l4.316 2.22 8.93-8.928L51.381 81a25.4 25.4 0 0 0 1.556-3.774l4.631-1.487V63.1l-4.629-1.483a25.5 25.5 0 0 0-1.556-3.774l2.217-4.311-8.93-8.93-4.316 2.221a25.6 25.6 0 0 0-3.774-1.556l-1.48-4.631H22.469l-1.483 4.629a25.5 25.5 0 0 0-3.774 1.556L12.9 44.6l-1.043 1.045V3.386h64.336v3.473a27.053 27.053 0 0 0-5.08 53.2v2.585a5 5 0 0 0 .679 2.491 5.07 5.07 0 0 0-2.372 4.285v13.546a8.48 8.48 0 0 0 6.773 8.295v10.33Zm71.114-18.625a5.08 5.08 0 0 1-10.159 0V69.42a1.694 1.694 0 0 1 1.693-1.693h6.773a1.694 1.694 0 0 1 1.693 1.693Z"/><path d="m68.924 34.36-2.394 2.394 6.277 6.277 16.435-16.436-2.394-2.394-14.041 14.042ZM15.239 23.705h33.864V6.773H15.239Zm3.386-13.546h27.091v10.159H18.625Zm-3.386 16.932h3.386v3.386h-3.386Zm6.772 0h25.4v3.386h-25.4Zm-6.772 6.773h32.17v3.386h-32.17Zm38.943 60.954h13.545v3.386H54.182Zm0-6.773h13.545v3.386H54.182Z"/></svg>