<svg xmlns="http://www.w3.org/2000/svg" width="124" height="124" viewBox="0 0 124 124"><g transform="translate(-3806.662 8252.908)"><circle cx="62" cy="62" r="62" fill="#fff" transform="translate(3806.662 -8252.908)"/><g transform="translate(3836.041 -8228.604)"><path fill="#aeaeae" d="M63.862 31.169v31.88H8.141v-31.88a2.65 2.65 0 0 1 2.65-2.65h13.726a13.65 13.65 0 0 0 22.969 0h13.726a2.65 2.65 0 0 1 2.65 2.65"/><path fill="#868686" d="M27.919 32.141h-2.846a15.5 15.5 0 0 1-2.713-3.622h2.157a13.7 13.7 0 0 0 3.402 3.622m21.721-3.622a15.6 15.6 0 0 1-2.711 3.622h-2.846a13.7 13.7 0 0 0 3.4-3.622ZM8.141 61.194h55.721v1.855H8.141Z"/><path fill="#efbf27" d="M60.24 32.671v26.23a.53.53 0 0 1-.53.53H12.294a.53.53 0 0 1-.53-.53v-26.23a.53.53 0 0 1 .53-.53H27.92a13.65 13.65 0 0 0 16.164 0H59.71a.53.53 0 0 1 .53.53"/><path fill="#e7a523" d="M46.927 32.141a15.5 15.5 0 0 1-21.853 0h2.846a13.65 13.65 0 0 0 16.164 0Z"/><path fill="#aeaeae" d="M4.027 63.049h63.949a.53.53 0 0 1 .53.53v1.507a5.3 5.3 0 0 1-5.3 5.3H8.797a5.3 5.3 0 0 1-5.3-5.3v-1.507a.53.53 0 0 1 .53-.53"/><path fill="#72c2e9" d="M49.651 21.141a13.572 13.572 0 1 1-3.976-9.676 13.65 13.65 0 0 1 3.976 9.676"/><path fill="#f0c020" d="M59.247 21.128c-1.05-.347-2.133-.65-2.742-3.271-.56 2.414-1.457 2.847-2.742 3.271 2.093.692 2.409 1.837 2.742 3.271.569-2.471 1.518-2.871 2.742-3.271m-41.002 0c-1.049-.347-2.133-.65-2.742-3.271-.56 2.414-1.457 2.847-2.742 3.271 2.093.692 2.409 1.837 2.742 3.271.573-2.471 1.522-2.871 2.742-3.271"/><path fill="#fb5c3c" d="M44.785 57.844v1.585H27.217v-1.585a7.22 7.22 0 0 1 4.212-6.561.8.8 0 0 0 .266-1.254 5.676 5.676 0 1 1 8.6.019.79.79 0 0 0 .281 1.234 7.22 7.22 0 0 1 4.212 6.562Z"/><path fill="#f7e4b0" d="M57.622 57.441H44.738a.663.663 0 0 1 0-1.325h12.221V38.235a.663.663 0 0 1 1.325 0v18.544a.66.66 0 0 1-.662.662m0-21.193a.66.66 0 0 1-.662-.662v-.797a.663.663 0 0 1 1.325 0v.795a.66.66 0 0 1-.663.664M27.331 57.441H17.89a.663.663 0 0 1 0-1.325h9.441a.663.663 0 0 1 0 1.325m-12.089 0h-.795a.663.663 0 0 1 0-1.325h.795a.663.663 0 0 1 0 1.325"/><path fill="#c4e4fd" d="M36.034 32.801a11.63 11.63 0 0 1-6.208-1.785.662.662 0 1 1 .705-1.115 10.334 10.334 0 0 0 12.81-16.056.662.662 0 1 1 .937-.936 11.656 11.656 0 0 1-8.246 19.9Zm-8.383-3.552c-.194-.2-.384-.412-.564-.627a.662.662 0 1 1 1.017-.848q.24.287.5.555a.662.662 0 0 1-.952.921Z"/><path fill="#ffcac2" d="M44.739 57.441h-17.41a.663.663 0 1 1 0-1.325h17.409a.663.663 0 1 1 0 1.325Z"/><circle cx=".662" cy=".662" r=".662" transform="translate(59.576 47.348)"/><circle cx=".662" cy=".662" r=".662" transform="translate(20.146 69.723)"/><path d="M67.976 62.389h-3.452V31.17a3.316 3.316 0 0 0-3.312-3.312H48.641a14.315 14.315 0 0 0-19.013-19.53.665.665 0 0 0-.3.89.68.68 0 0 0 .89.3 13 13 0 0 1 2.915-1.036 16.4 16.4 0 0 0-2.809 7.489h-6.23a13 13 0 0 1 2.152-3.392.665.665 0 0 0-.058-.935.683.683 0 0 0-.935.058 14.32 14.32 0 0 0-1.891 16.161H10.791a3.316 3.316 0 0 0-3.312 3.307v31.219H4.027a1.194 1.194 0 0 0-1.192 1.192v1.505A5.97 5.97 0 0 0 8.8 71.048h9.362a.662.662 0 1 0 0-1.325H8.8a4.65 4.65 0 0 1-4.64-4.637v-1.372h23.7v1.68a1.99 1.99 0 0 0 1.987 1.987h12.3a1.99 1.99 0 0 0 1.987-1.987v-1.68h23.7v1.373a4.65 4.65 0 0 1-4.637 4.637H23.459a.662.662 0 1 0 0 1.325h39.747a5.97 5.97 0 0 0 5.962-5.962v-1.506a1.194 1.194 0 0 0-1.192-1.192M40.3 51.886a6.58 6.58 0 0 1 3.827 5.959v.921H27.88v-.921a6.58 6.58 0 0 1 3.827-5.959A1.46 1.46 0 0 0 32.2 49.6a5.013 5.013 0 1 1 7.6.017 1.454 1.454 0 0 0 .5 2.27Zm-27.873 6.88V32.8h15.28a14.2 14.2 0 0 0 7.633 2.634v4.611a6.325 6.325 0 0 0-4.147 10.414.135.135 0 0 1-.038.219 7.91 7.91 0 0 0-4.6 7.164v.921ZM31.48 17.289h9.046a33.2 33.2 0 0 1 0 7.708h-9.047a33.2 33.2 0 0 1 0-7.708Zm17.51 3.852A13 13 0 0 1 48.4 25h-6.542a34.5 34.5 0 0 0 0-7.708h6.55a13 13 0 0 1 .582 3.852Zm-1.079 5.181a13 13 0 0 1-9.042 7.488 16.4 16.4 0 0 0 2.809-7.488Zm-7.576 0c-.8 4.767-2.636 7.8-4.327 7.806h-.014c-1.691-.009-3.524-3.04-4.326-7.806Zm-7.2 7.488a13 13 0 0 1-9.042-7.488h6.235a16.4 16.4 0 0 0 2.806 7.488Zm14.78-17.846h-6.238a16.4 16.4 0 0 0-2.807-7.487 13 13 0 0 1 9.044 7.487ZM36 8.158c1.693 0 3.531 3.034 4.334 7.807h-8.666c.802-4.774 2.641-7.807 4.332-7.807m-5.856 9.132a34.5 34.5 0 0 0 0 7.708H23.6a12.93 12.93 0 0 1 0-7.708ZM8.8 31.17a1.99 1.99 0 0 1 1.987-1.987h13.37a14.7 14.7 0 0 0 1.916 2.271l.026.026H12.295a1.2 1.2 0 0 0-1.195 1.192V58.9a1.2 1.2 0 0 0 1.192 1.192h47.419A1.2 1.2 0 0 0 60.9 58.9v-8.239a.662.662 0 0 0-1.323 0v8.106H45.448v-.921a7.91 7.91 0 0 0-4.6-7.163.13.13 0 0 1-.057-.2 6.33 6.33 0 0 0-4.13-10.443v-4.6A14.13 14.13 0 0 0 44.3 32.8h15.276v12.561a.664.664 0 0 0 1.327 0v-12.69a1.2 1.2 0 0 0-1.19-1.192H45.9l.031-.031a14.6 14.6 0 0 0 1.91-2.265h13.37A1.99 1.99 0 0 1 63.2 31.17v31.217H8.8Zm34.015 34.224a.66.66 0 0 1-.662.662h-12.3a.66.66 0 0 1-.662-.662v-1.68h13.624Z"/><path d="M53.538 21.796c1.772.585 1.973 1.451 2.276 2.761a.7.7 0 0 0 1.373 0c.5-2.176 1.248-2.422 2.276-2.761a.706.706 0 0 0 0-1.339c-.988-.325-1.76-.536-2.277-2.761a.705.705 0 0 0-1.373 0c-.505 2.176-1.21 2.409-2.276 2.762a.705.705 0 0 0 0 1.338Zm2.966-1.881a3.6 3.6 0 0 0 1.054 1.219 3.5 3.5 0 0 0-1.042 1.177 3.7 3.7 0 0 0-1.1-1.166 3.5 3.5 0 0 0 1.092-1.23ZM12.54 21.796c1.772.585 1.973 1.451 2.276 2.761a.7.7 0 0 0 1.373 0c.5-2.176 1.248-2.422 2.276-2.761a.706.706 0 0 0 0-1.339c-.988-.325-1.76-.536-2.276-2.761a.705.705 0 0 0-1.373 0c-.505 2.176-1.21 2.409-2.277 2.762a.705.705 0 0 0 0 1.338Zm2.966-1.881a3.6 3.6 0 0 0 1.054 1.219 3.5 3.5 0 0 0-1.041 1.176 3.7 3.7 0 0 0-1.1-1.166 3.5 3.5 0 0 0 1.087-1.229m20.495 30.568a.66.66 0 0 0-.662.662v.238a.663.663 0 1 0 1.325 0v-.238a.66.66 0 0 0-.663-.662m.512-7.378a2.41 2.41 0 0 0-2.917 2.353.663.663 0 1 0 1.325 0 1.083 1.083 0 0 1 1.321-1.056 1.07 1.07 0 0 1 .816.816 1.08 1.08 0 0 1-.645 1.241A1.76 1.76 0 0 0 35.34 48.1v.859a.663.663 0 1 0 1.325 0V48.1a.44.44 0 0 1 .253-.416 2.407 2.407 0 0 0-.4-4.579ZM28.085 10.85a.66.66 0 0 0 .117-.927.674.674 0 0 0-.927-.119.662.662 0 1 0 .808 1.049Z"/></g></g></svg>