<svg xmlns="http://www.w3.org/2000/svg" width="124" height="124" viewBox="0 0 124 124"><g transform="translate(6975.348 7580.875)"><circle cx="62" cy="62" r="62" fill="#fff" transform="translate(-6975.348 -7580.875)"/><g transform="translate(-6949.151 -7553.991)"><g transform="translate(5.822 26.156)"><path fill="#72c2e9" d="M59.168 35.986v1.412a5.98 5.98 0 0 1-5.978 5.978H5.98a5.98 5.98 0 0 1-5.978-5.978v-1.412a1.115 1.115 0 0 1 1.114-1.117h56.938a1.115 1.115 0 0 1 1.114 1.117"/><path fill="#4ba5c8" d="M35.798 34.869v1.554a2.07 2.07 0 0 1-2.073 2.073h-8.282a2.07 2.07 0 0 1-2.073-2.073v-1.552Z"/><path fill="#72c2e9" d="M55.794 2.679V34.87H3.374V2.679A2.68 2.68 0 0 1 6.053 0h47.062a2.68 2.68 0 0 1 2.679 2.679"/><path fill="#f0c020" d="M7.39 4.651v26.206h44.387V4.651Z"/></g><g transform="translate(32.14 14.702)"><path fill="#f0c020" d="M5.833 3.761c-.982-.325-2-.608-2.566-3.062-.525 2.26-1.365 2.665-2.566 3.062 1.959.648 2.255 1.72 2.566 3.062.536-2.314 1.424-2.685 2.566-3.062"/><path d="M2.583 6.981c-.281-1.213-.467-2.014-2.1-2.554a.7.7 0 0 1 0-1.332c.985-.325 1.636-.54 2.1-2.554a.7.7 0 0 1 1.366 0c.476 2.051 1.182 2.253 2.1 2.554a.7.7 0 0 1 0 1.332c-.985.325-1.636.54-2.1 2.554a.7.7 0 0 1-1.367 0Zm-.262-3.205a3.45 3.45 0 0 1 .956 1.008 3.3 3.3 0 0 1 .9-1.018 3.4 3.4 0 0 1-.914-1.055 3.3 3.3 0 0 1-.942 1.065"/></g><g transform="translate(.591 40.64)"><path fill="#f0c020" d="M5.828 3.761c-.982-.325-2-.608-2.566-3.062-.525 2.26-1.365 2.665-2.566 3.062 1.959.648 2.255 1.72 2.566 3.062.541-2.314 1.429-2.685 2.566-3.062"/><path d="M2.583 6.981c-.281-1.213-.467-2.014-2.1-2.554a.7.7 0 0 1 0-1.332c.985-.325 1.636-.54 2.1-2.554a.7.7 0 0 1 1.366 0c.476 2.051 1.182 2.253 2.1 2.554a.7.7 0 0 1 0 1.332c-.985.325-1.636.54-2.1 2.554a.7.7 0 0 1-1.366 0m-.259-3.205a3.45 3.45 0 0 1 .958 1.008 3.3 3.3 0 0 1 .9-1.018 3.4 3.4 0 0 1-.914-1.055 3.3 3.3 0 0 1-.948 1.064Z"/><g transform="translate(63.097)"><path fill="#f0c020" d="M5.836 3.761c-.982-.325-2-.608-2.566-3.062-.525 2.26-1.365 2.665-2.566 3.062 1.959.648 2.255 1.72 2.566 3.062.533-2.314 1.421-2.685 2.566-3.062"/><path d="M2.583 6.981c-.281-1.213-.467-2.014-2.1-2.554a.7.7 0 0 1 0-1.332c.985-.325 1.636-.54 2.1-2.554a.7.7 0 0 1 1.366 0c.476 2.051 1.182 2.253 2.1 2.554a.7.7 0 0 1 0 1.332c-.985.325-1.636.54-2.1 2.554a.7.7 0 0 1-1.366 0m-.262-3.205a3.45 3.45 0 0 1 .958 1.008 3.3 3.3 0 0 1 .9-1.018 3.4 3.4 0 0 1-.914-1.055 3.3 3.3 0 0 1-.944 1.065"/></g></g><path fill="#efefef" d="M32.632 52.821a1.54 1.54 0 0 1-1.014-1.933l4.629-14.875a1.544 1.544 0 1 1 2.948.917l-4.629 14.871a1.54 1.54 0 0 1-1.934 1.02"/><g transform="translate(2.625 2.03)"><path fill="#7d7b79" d="M1.688 8.226a5.51 5.51 0 0 0 4.589 4.591 3.363 3.363 0 1 1-4.591-4.591Z"/><path fill="#fc5d3d" d="m3.235 3.483 1.87-1.87a5.506 5.506 0 1 1 7.786 7.786l-1.87 1.87a5.506 5.506 0 1 1-7.786-7.786"/><g transform="translate(52.182 .439)"><path fill="#7d7b79" d="M11.781 5.771a5.065 5.065 0 0 0-4.22-4.22 3.091 3.091 0 1 1 4.22 4.22"/><path fill="#fc5d3d" d="M10.358 10.131 8.639 11.85a5.061 5.061 0 1 1-7.157-7.157l1.719-1.719a5.061 5.061 0 1 1 7.157 7.157"/></g></g><path fill="#efefef" d="m25.161 52.303-7.37-7.37a1.543 1.543 0 0 1 0-2.183l7.37-7.37a1.543 1.543 0 1 1 2.18 2.185l-6.277 6.277 6.277 6.277a1.543 1.543 0 1 1-2.18 2.184m18.305-.001a1.546 1.546 0 0 1 0-2.185l6.278-6.277-6.278-6.277a1.544 1.544 0 0 1 2.183-2.185l7.37 7.37a1.55 1.55 0 0 1 0 2.183l-7.368 7.368a1.545 1.545 0 0 1-2.185.003"/><path fill="#c5e5fe" d="M58.608 68.018H16.369a.7.7 0 0 1 0-1.4h42.239a3.48 3.48 0 0 0 3.406-2.8.701.701 0 0 1 1.376.271 4.884 4.884 0 0 1-4.782 3.929m-45.04 0h-1.36a.7.7 0 0 1 0-1.4h1.354a.7.7 0 0 1 .001 1.4Z"/><path d="M12.512 30.808v26.2a.7.7 0 0 0 .7.7h44.387a.7.7 0 0 0 .7-.7V40.631a.7.7 0 0 0-1.4 0v15.681H13.915v-24.8h42.982v3.51a.7.7 0 0 0 1.4 0v-4.211a.7.7 0 0 0-.7-.7H13.213a.7.7 0 0 0-.701.697"/><circle cx=".701" cy=".701" r=".701" transform="translate(56.897 37.123)"/><path d="M28.434 69.534a.7.7 0 1 0-.7.7.7.7 0 0 0 .7-.7m7.143-33.729-4.629 14.874a2.245 2.245 0 0 0 4.287 1.335l4.629-14.874a2.245 2.245 0 0 0-4.287-1.334Zm2.948.917-4.629 14.876a.842.842 0 1 1-1.608-.5l4.629-14.876a.842.842 0 0 1 1.608.5M2.131 14.464a4.07 4.07 0 0 0 2.562 2.559l.058 1.468a.7.7 0 0 0 1.4-.055l-.047-1.2a4.03 4.03 0 0 0 3.147-1.639 6.2 6.2 0 0 0 3.627-.835l1.407 1.407a.701.701 0 0 0 .992-.992l-1.264-1.264a10 10 0 0 0 .838-.825l1.257 1.257a.701.701 0 0 0 .992-.992l-1.257-1.257a6.4 6.4 0 0 0 .775-.886l1.313 1.305a.701.701 0 0 0 .992-.992l-1.584-1.584a6.209 6.209 0 0 0-8.124-8.124L7.631.234a.701.701 0 0 0-.992.992l1.313 1.313a6.4 6.4 0 0 0-.886.775L5.809 2.057a.701.701 0 0 0-.992.992l1.257 1.257c-.933.933-.64.636-.828.835L3.985 3.88a.701.701 0 0 0-.992.992l1.4 1.4a6.24 6.24 0 0 0-.83 3.63 4.03 4.03 0 0 0-1.632 3.15l-1.206-.047a.7.7 0 0 0-.054 1.4Zm11.018-1.661a4.806 4.806 0 0 1-6.261.459l2.943-2.942a8.04 8.04 0 0 1 6.569-2.3c-.207 2.073-1.39 2.922-3.25 4.783ZM6.355 6.009c1.861-1.861 2.71-3.043 4.787-3.25a8.04 8.04 0 0 1-2.3 6.569L5.896 12.27a4.806 4.806 0 0 1 .459-6.261m9.977.593a9.44 9.44 0 0 0-4.48.7 9.44 9.44 0 0 0 .7-4.48 4.79 4.79 0 0 1 3.779 3.78Zm-12.423 4.9a6.25 6.25 0 0 0 3.743 3.743 2.663 2.663 0 0 1-3.743-3.743m66.029-7.138-1.307-.051a3.8 3.8 0 0 0-2.34-2.34L66.239.664a.7.7 0 0 0-1.4.055l.042 1.053a3.75 3.75 0 0 0-2.859 1.5 5.8 5.8 0 0 0-3.3.751l-1.26-1.26a.701.701 0 0 0-.992.992l1.11 1.123c-.185.178.216-.221-.686.682L55.78 4.444a.701.701 0 0 0-.992.992l1.116 1.116a6 6 0 0 0-.639.727l-1.16-1.16a.701.701 0 0 0-.992.992l1.424 1.424a5.782 5.782 0 0 0 7.531 7.531l1.424 1.424a.701.701 0 0 0 .992-.992l-1.16-1.16a6 6 0 0 0 .727-.639l1.116 1.116a.701.701 0 0 0 .992-.992l-1.116-1.116c.9-.9.507-.5.682-.687l1.118 1.118a.701.701 0 0 0 .992-.992l-1.255-1.258a5.8 5.8 0 0 0 .751-3.3 3.75 3.75 0 0 0 1.5-2.859l1.081.042a.7.7 0 0 0 .026-1.4Zm-5.806 1.115-2.658 2.658a7.33 7.33 0 0 1-5.934 2.107c.189-1.681.928-2.274 2.963-4.309a4.36 4.36 0 0 1 5.629-.452Zm-3.773 9.585a7.33 7.33 0 0 1 2.106-5.934l2.658-2.658a4.36 4.36 0 0 1-.456 5.629c-1.718 1.721-2.458 2.757-4.308 2.963m-4.748-3.4a8.7 8.7 0 0 0 3.938-.6 8.7 8.7 0 0 0-.605 3.937 4.33 4.33 0 0 1-3.333-3.332Zm11.363-4.689a5.8 5.8 0 0 0-3.281-3.316l-.06-.027a2.391 2.391 0 0 1 3.342 3.342Z"/><path d="m17.515 16.415 2.171 2.171a3.136 3.136 0 1 0 3.7 3.7 4.17 4.17 0 0 1 1.279 3.172h-12.79a3.385 3.385 0 0 0-3.378 3.377v31.488h-1.56a1.82 1.82 0 0 0-1.815 1.818v1.414a6.686 6.686 0 0 0 6.677 6.677h13.128a.7.7 0 0 0 .006-1.4s0 0-.006 0h-13.13a5.29 5.29 0 0 1-5.275-5.275v-1.414a.416.416 0 0 1 .412-.415H28.49v.848a2.777 2.777 0 0 0 2.775 2.775h8.282a2.777 2.777 0 0 0 2.775-2.775v-.848h21.553a.42.42 0 0 1 .415.415v1.414a5.294 5.294 0 0 1-5.277 5.275H30.539a.7.7 0 0 0 0 1.4h28.474a6.686 6.686 0 0 0 6.677-6.677v-1.414a1.82 1.82 0 0 0-1.815-1.818h-1.557V28.835a3.385 3.385 0 0 0-3.381-3.38H48.02a4.18 4.18 0 0 1 1.277-3.172 3.138 3.138 0 1 0 3.7-3.7l1.682-1.682a.701.701 0 0 0-.992-.992l-5.442 5.442a5.57 5.57 0 0 0-1.626 4.1H26.064a5.56 5.56 0 0 0-1.63-4.1l-5.927-5.928a.701.701 0 0 0-.992.992m36.082 6.472a1.735 1.735 0 1 1-1.227-2.961 1.737 1.737 0 0 1 1.227 2.961M40.919 62.576a1.38 1.38 0 0 1-1.372 1.372h-8.282a1.38 1.38 0 0 1-1.372-1.372v-.848h11.026Zm5.916-35.719a5.5 5.5 0 0 0 .93 1.834.702.702 0 0 0 1.111-.857 4 4 0 0 1-.559-.977h10.62a1.98 1.98 0 0 1 1.978 1.978v31.488H9.897V28.835a1.98 1.98 0 0 1 1.978-1.978h12.483a4.2 4.2 0 0 1-.444.824.7.7 0 0 0 1.149.8 5.6 5.6 0 0 0 .779-1.628Zm-25.3-3.971a1.735 1.735 0 1 1 0-2.454 1.737 1.737 0 0 1-.003 2.455Z"/><path d="M21.704 39.831a.694.694 0 0 0 0-.99.713.713 0 0 0-.99 0 .7.7 0 0 0 .99.99"/><path d="M19.72 41.814a.7.7 0 0 0-.99-.99l-1.431 1.428a2.245 2.245 0 0 0 0 3.176l7.368 7.37a2.245 2.245 0 0 0 3.173-3.176l-5.782-5.782 5.782-5.78a2.245 2.245 0 0 0-3.137-3.212l-.039.034-1.972 1.975a.701.701 0 0 0 .993.99l1.936-1.933.039-.039a.844.844 0 0 1 1.187 1.2l-6.276 6.276a.7.7 0 0 0 0 .99l6.276 6.279a.841.841 0 0 1-1.19 1.19l-7.37-7.37a.84.84 0 0 1 0-1.19Zm26.425 10.985.033-.035 7.337-7.337a2.247 2.247 0 0 0 0-3.175l-7.372-7.372a2.246 2.246 0 0 0-3.173 3.179l5.782 5.782-5.782 5.782a2.246 2.246 0 0 0 3.175 3.177Zm-2.183-2.185 6.278-6.278a.7.7 0 0 0 0-.992l-6.278-6.278a.843.843 0 0 1 1.191-1.193l7.37 7.37a.846.846 0 0 1 0 1.191l-7.368 7.368-.025.026a.843.843 0 0 1-1.167-1.214Z"/></g></g></svg>